# MagicaVoxel @ Ephtracy

# group
o 

# material
mtllib firetruck.mtl
usemtl palette

# normals
vn -1 0 0
vn 1 0 0
vn 0 0 1
vn 0 0 -1
vn 0 -1 0
vn 0 1 0

# texcoords
vt 0.845703 0.5
vt 0.849609 0.5
vt 0.876953 0.5
vt 0.880859 0.5
vt 0.908203 0.5
vt 0.939453 0.5
vt 0.943359 0.5
vt 0.970703 0.5
vt 0.974609 0.5

# verts
v -0.8 0 1.4
v -0.8 0 0.8
v -0.8 0 -0.7
v -0.8 0 -1.3
v -0.8 0.1 1.7
v -0.8 0.1 1.4
v -0.8 0.1 1.3
v -0.8 0.1 0.9
v -0.8 0.1 0.8
v -0.8 0.1 -0.7
v -0.8 0.1 -0.8
v -0.8 0.1 -1.2
v -0.8 0.1 -1.3
v -0.8 0.1 -1.7
v -0.8 0.3 1.7
v -0.8 0.3 1.4
v -0.8 0.3 1.3
v -0.8 0.3 0.9
v -0.8 0.3 0.8
v -0.8 0.3 -0.7
v -0.8 0.3 -0.8
v -0.8 0.3 -1.2
v -0.8 0.3 -1.3
v -0.8 0.3 -1.6
v -0.8 0.3 -1.7
v -0.8 0.4 1.4
v -0.8 0.4 0.8
v -0.8 0.4 -0.7
v -0.8 0.4 -1.3
v -0.8 0.5 0.8
v -0.8 0.5 -0.5
v -0.8 0.5 -0.6
v -0.8 0.5 -1.4
v -0.8 0.6 1.5
v -0.8 0.6 1.4
v -0.8 0.6 0.7
v -0.8 0.6 -0.4
v -0.8 0.6 -0.7
v -0.8 0.6 -1.3
v -0.8 0.7 1.5
v -0.8 0.7 1.4
v -0.8 0.7 0.7
v -0.8 0.7 -0.4
v -0.8 0.7 -0.7
v -0.8 0.7 -1.3
v -0.8 0.8 1.6
v -0.8 0.8 1.1
v -0.8 0.8 0.7
v -0.8 0.8 -0.4
v -0.8 0.8 -0.7
v -0.8 0.8 -1.3
v -0.8 0.9 0.7
v -0.8 0.9 -0.4
v -0.8 0.9 -0.7
v -0.8 0.9 -1.3
v -0.8 1 0.7
v -0.8 1 -0.4
v -0.8 1 -0.7
v -0.8 1 -1.3
v -0.8 1.1 0.7
v -0.8 1.1 -0.4
v -0.8 1.1 -0.7
v -0.8 1.1 -1.3
v -0.8 1.2 0.7
v -0.8 1.2 -0.4
v -0.8 1.2 -0.7
v -0.8 1.2 -1.3
v -0.8 1.3 1.6
v -0.8 1.3 1.1
v -0.8 1.3 0.7
v -0.8 1.3 -0.4
v -0.8 1.3 -0.7
v -0.8 1.3 -1.3
v -0.8 1.4 0.8
v -0.8 1.4 -0.5
v -0.8 1.4 -0.6
v -0.8 1.4 -1.4
v -0.8 1.5 1.7
v -0.8 1.5 0.8
v -0.8 1.5 -1.6
v -0.8 1.8 0.8
v -0.8 1.8 -1.6
v -0.5 1.5 1.3
v -0.5 1.5 1.1
v -0.5 1.6 1.3
v -0.5 1.6 1.1
v -0.5 1.7 1.3
v -0.5 1.7 1.1
v 0.5 0 1.3
v 0.5 0 0.7
v 0.5 0 -0.7
v 0.5 0 -1.3
v 0.5 0.1 1.3
v 0.5 0.1 0.7
v 0.5 0.1 -0.7
v 0.5 0.1 -1.3
v -0.6 0 1.4
v -0.6 0 0.8
v -0.6 0 -0.7
v -0.6 0 -1.3
v -0.6 0.1 1.4
v -0.6 0.1 0.8
v -0.6 0.1 -0.7
v -0.6 0.1 -1.3
v 0.4 1.5 1.3
v 0.4 1.5 1.1
v 0.4 1.6 1.3
v 0.4 1.6 1.1
v 0.4 1.7 1.3
v 0.4 1.7 1.1
v 0.7 0 1.3
v 0.7 0 0.7
v 0.7 0 -0.7
v 0.7 0 -1.3
v 0.7 0.1 1.7
v 0.7 0.1 1.3
v 0.7 0.1 1.2
v 0.7 0.1 0.8
v 0.7 0.1 0.7
v 0.7 0.1 -0.7
v 0.7 0.1 -0.8
v 0.7 0.1 -1.2
v 0.7 0.1 -1.3
v 0.7 0.1 -1.7
v 0.7 0.3 1.7
v 0.7 0.3 1.3
v 0.7 0.3 1.2
v 0.7 0.3 0.8
v 0.7 0.3 0.7
v 0.7 0.3 -0.7
v 0.7 0.3 -0.8
v 0.7 0.3 -1.2
v 0.7 0.3 -1.3
v 0.7 0.3 -1.6
v 0.7 0.3 -1.7
v 0.7 0.4 1.3
v 0.7 0.4 0.7
v 0.7 0.4 -0.7
v 0.7 0.4 -1.3
v 0.7 0.5 0.8
v 0.7 0.5 -0.5
v 0.7 0.5 -0.6
v 0.7 0.5 -1.4
v 0.7 0.6 1.5
v 0.7 0.6 1.4
v 0.7 0.6 0.7
v 0.7 0.6 -0.4
v 0.7 0.6 -0.7
v 0.7 0.6 -1.3
v 0.7 0.7 1.5
v 0.7 0.7 1.4
v 0.7 0.7 0.7
v 0.7 0.7 -0.4
v 0.7 0.7 -0.7
v 0.7 0.7 -1.3
v 0.7 0.8 1.6
v 0.7 0.8 1.1
v 0.7 0.8 0.7
v 0.7 0.8 -0.4
v 0.7 0.8 -0.7
v 0.7 0.8 -1.3
v 0.7 0.9 0.7
v 0.7 0.9 -0.4
v 0.7 0.9 -0.7
v 0.7 0.9 -1.3
v 0.7 1 0.7
v 0.7 1 -0.4
v 0.7 1 -0.7
v 0.7 1 -1.3
v 0.7 1.1 0.7
v 0.7 1.1 -0.4
v 0.7 1.1 -0.7
v 0.7 1.1 -1.3
v 0.7 1.2 0.7
v 0.7 1.2 -0.4
v 0.7 1.2 -0.7
v 0.7 1.2 -1.3
v 0.7 1.3 1.6
v 0.7 1.3 1.1
v 0.7 1.3 0.7
v 0.7 1.3 -0.4
v 0.7 1.3 -0.7
v 0.7 1.3 -1.3
v 0.7 1.4 0.8
v 0.7 1.4 -0.5
v 0.7 1.4 -0.6
v 0.7 1.4 -1.4
v 0.7 1.5 1.7
v 0.7 1.5 0.8
v 0.7 1.5 -1.6
v 0.7 1.8 0.8
v 0.7 1.8 -1.6
v -0.8 0.1 1.7
v -0.8 0.3 1.7
v -0.8 1.5 1.7
v -0.7 0.4 1.7
v -0.7 0.5 1.7
v -0.7 0.8 1.7
v -0.7 1.3 1.7
v -0.4 0.4 1.7
v -0.4 0.5 1.7
v -0.2 0.2 1.7
v -0.2 0.3 1.7
v 0.1 0.2 1.7
v 0.1 0.3 1.7
v 0.3 0.4 1.7
v 0.3 0.5 1.7
v 0.6 0.4 1.7
v 0.6 0.5 1.7
v 0.6 0.8 1.7
v 0.6 1.3 1.7
v 0.7 0.1 1.7
v 0.7 0.3 1.7
v 0.7 1.5 1.7
v -0.8 0 1.4
v -0.8 0.1 1.4
v -0.6 0 1.4
v -0.6 0.1 1.4
v -0.5 1.5 1.3
v -0.5 1.6 1.3
v -0.5 1.7 1.3
v -0.1 1.6 1.3
v -0.1 1.7 1.3
v 0 1.6 1.3
v 0 1.7 1.3
v 0.4 1.5 1.3
v 0.4 1.6 1.3
v 0.4 1.7 1.3
v 0.5 0 1.3
v 0.5 0.1 1.3
v 0.7 0 1.3
v 0.7 0.1 1.3
v -0.8 1.5 0.8
v -0.8 1.8 0.8
v 0.7 1.5 0.8
v 0.7 1.8 0.8
v -0.8 0 -0.7
v -0.8 0.1 -0.7
v -0.6 0 -0.7
v -0.6 0.1 -0.7
v 0.5 0 -0.7
v 0.5 0.1 -0.7
v 0.7 0 -0.7
v 0.7 0.1 -0.7
v -0.5 1.5 1.1
v -0.5 1.6 1.1
v -0.5 1.7 1.1
v -0.1 1.6 1.1
v -0.1 1.7 1.1
v 0 1.6 1.1
v 0 1.7 1.1
v 0.4 1.5 1.1
v 0.4 1.6 1.1
v 0.4 1.7 1.1
v -0.8 0 0.8
v -0.8 0.1 0.8
v -0.6 0 0.8
v -0.6 0.1 0.8
v 0.5 0 0.7
v 0.5 0.1 0.7
v 0.7 0 0.7
v 0.7 0.1 0.7
v -0.8 0 -1.3
v -0.8 0.1 -1.3
v -0.6 0 -1.3
v -0.6 0.1 -1.3
v 0.5 0 -1.3
v 0.5 0.1 -1.3
v 0.7 0 -1.3
v 0.7 0.1 -1.3
v -0.8 0.3 -1.6
v -0.8 1.5 -1.6
v -0.8 1.8 -1.6
v -0.7 0.4 -1.6
v -0.7 0.5 -1.6
v -0.7 0.6 -1.6
v -0.7 0.7 -1.6
v -0.7 0.8 -1.6
v -0.7 0.9 -1.6
v -0.7 1 -1.6
v -0.7 1.1 -1.6
v -0.7 1.2 -1.6
v -0.7 1.3 -1.6
v -0.7 1.4 -1.6
v -0.2 0.3 -1.6
v 0.1 0.3 -1.6
v 0.6 0.4 -1.6
v 0.6 0.5 -1.6
v 0.6 0.6 -1.6
v 0.6 0.7 -1.6
v 0.6 0.8 -1.6
v 0.6 0.9 -1.6
v 0.6 1 -1.6
v 0.6 1.1 -1.6
v 0.6 1.2 -1.6
v 0.6 1.3 -1.6
v 0.6 1.4 -1.6
v 0.7 0.3 -1.6
v 0.7 1.5 -1.6
v 0.7 1.8 -1.6
v -0.8 0.1 -1.7
v -0.8 0.3 -1.7
v -0.2 0.2 -1.7
v -0.2 0.3 -1.7
v 0.1 0.2 -1.7
v 0.1 0.3 -1.7
v 0.7 0.1 -1.7
v 0.7 0.3 -1.7
v -0.8 0 1.4
v -0.6 0 1.4
v 0.5 0 1.3
v 0.7 0 1.3
v -0.8 0 0.8
v -0.6 0 0.8
v 0.5 0 0.7
v 0.7 0 0.7
v -0.8 0 -0.7
v -0.6 0 -0.7
v 0.5 0 -0.7
v 0.7 0 -0.7
v -0.8 0 -1.3
v -0.6 0 -1.3
v 0.5 0 -1.3
v 0.7 0 -1.3
v -0.8 0.1 1.7
v 0.7 0.1 1.7
v -0.8 0.1 1.4
v -0.6 0.1 1.4
v 0.5 0.1 1.3
v 0.7 0.1 1.3
v -0.8 0.1 0.8
v -0.6 0.1 0.8
v 0.5 0.1 0.7
v 0.7 0.1 0.7
v -0.8 0.1 -0.7
v -0.6 0.1 -0.7
v 0.5 0.1 -0.7
v 0.7 0.1 -0.7
v -0.8 0.1 -1.3
v -0.6 0.1 -1.3
v 0.5 0.1 -1.3
v 0.7 0.1 -1.3
v -0.8 0.1 -1.7
v 0.7 0.1 -1.7
v -0.8 0.3 -1.6
v -0.2 0.3 -1.6
v 0.1 0.3 -1.6
v 0.7 0.3 -1.6
v -0.8 0.3 -1.7
v -0.2 0.3 -1.7
v 0.1 0.3 -1.7
v 0.7 0.3 -1.7
v -0.8 1.5 1.7
v 0.7 1.5 1.7
v -0.5 1.5 1.3
v 0.4 1.5 1.3
v -0.5 1.5 1.1
v 0.4 1.5 1.1
v -0.8 1.5 0.8
v 0.7 1.5 0.8
v -0.5 1.7 1.3
v -0.1 1.7 1.3
v 0 1.7 1.3
v 0.4 1.7 1.3
v -0.5 1.7 1.1
v -0.1 1.7 1.1
v 0 1.7 1.1
v 0.4 1.7 1.1
v -0.8 1.8 0.8
v 0.7 1.8 0.8
v -0.8 1.8 -1.6
v 0.7 1.8 -1.6

# faces
f 6/6/1 2/6/1 1/6/1
f 7/6/1 2/6/1 6/6/1
f 8/6/1 2/6/1 7/6/1
f 9/6/1 2/6/1 8/6/1
f 10/6/1 4/6/1 3/6/1
f 11/6/1 4/6/1 10/6/1
f 12/6/1 4/6/1 11/6/1
f 13/6/1 4/6/1 12/6/1
f 15/9/1 6/9/1 5/9/1
f 16/6/1 7/6/1 6/6/1
f 16/9/1 6/9/1 15/9/1
f 17/7/1 8/7/1 7/7/1
f 17/6/1 7/6/1 16/6/1
f 18/6/1 9/6/1 8/6/1
f 18/7/1 8/7/1 17/7/1
f 19/9/1 10/9/1 9/9/1
f 19/6/1 9/6/1 18/6/1
f 20/6/1 11/6/1 10/6/1
f 20/9/1 10/9/1 19/9/1
f 21/7/1 12/7/1 11/7/1
f 21/6/1 11/6/1 20/6/1
f 22/6/1 13/6/1 12/6/1
f 22/7/1 12/7/1 21/7/1
f 23/9/1 14/9/1 13/9/1
f 23/6/1 13/6/1 22/6/1
f 24/9/1 14/9/1 23/9/1
f 25/9/1 14/9/1 24/9/1
f 26/6/1 17/6/1 16/6/1
f 26/8/1 16/8/1 15/8/1
f 26/6/1 18/6/1 17/6/1
f 26/6/1 19/6/1 18/6/1
f 27/8/1 20/8/1 19/8/1
f 27/6/1 19/6/1 26/6/1
f 28/6/1 22/6/1 21/6/1
f 28/8/1 20/8/1 27/8/1
f 28/6/1 23/6/1 22/6/1
f 28/6/1 21/6/1 20/6/1
f 29/8/1 24/8/1 23/8/1
f 29/6/1 23/6/1 28/6/1
f 30/8/1 27/8/1 26/8/1
f 30/8/1 28/8/1 27/8/1
f 30/8/1 29/8/1 28/8/1
f 31/8/1 29/8/1 30/8/1
f 32/8/1 29/8/1 31/8/1
f 33/8/1 24/8/1 29/8/1
f 33/8/1 29/8/1 32/8/1
f 34/8/1 26/8/1 15/8/1
f 34/8/1 30/8/1 26/8/1
f 35/8/1 30/8/1 34/8/1
f 36/7/1 31/7/1 30/7/1
f 37/7/1 31/7/1 36/7/1
f 38/7/1 33/7/1 32/7/1
f 39/7/1 33/7/1 38/7/1
f 40/8/1 34/8/1 15/8/1
f 40/7/1 35/7/1 34/7/1
f 41/8/1 30/8/1 35/8/1
f 41/7/1 35/7/1 40/7/1
f 42/7/1 36/7/1 30/7/1
f 42/3/1 37/3/1 36/3/1
f 43/7/1 31/7/1 37/7/1
f 43/3/1 37/3/1 42/3/1
f 44/3/1 39/3/1 38/3/1
f 44/7/1 38/7/1 32/7/1
f 45/7/1 33/7/1 39/7/1
f 45/3/1 39/3/1 44/3/1
f 46/8/1 40/8/1 15/8/1
f 46/8/1 41/8/1 40/8/1
f 47/8/1 30/8/1 41/8/1
f 47/8/1 41/8/1 46/8/1
f 48/7/1 42/7/1 30/7/1
f 48/4/1 43/4/1 42/4/1
f 49/7/1 31/7/1 43/7/1
f 49/4/1 43/4/1 48/4/1
f 50/7/1 44/7/1 32/7/1
f 50/4/1 45/4/1 44/4/1
f 51/7/1 33/7/1 45/7/1
f 51/4/1 45/4/1 50/4/1
f 52/7/1 48/7/1 30/7/1
f 52/3/1 49/3/1 48/3/1
f 53/7/1 31/7/1 49/7/1
f 53/3/1 49/3/1 52/3/1
f 54/7/1 50/7/1 32/7/1
f 54/3/1 51/3/1 50/3/1
f 55/7/1 33/7/1 51/7/1
f 55/3/1 51/3/1 54/3/1
f 56/7/1 52/7/1 30/7/1
f 56/4/1 53/4/1 52/4/1
f 57/7/1 31/7/1 53/7/1
f 57/4/1 53/4/1 56/4/1
f 58/7/1 54/7/1 32/7/1
f 58/4/1 55/4/1 54/4/1
f 59/7/1 33/7/1 55/7/1
f 59/4/1 55/4/1 58/4/1
f 60/7/1 56/7/1 30/7/1
f 60/3/1 57/3/1 56/3/1
f 61/7/1 31/7/1 57/7/1
f 61/3/1 57/3/1 60/3/1
f 62/7/1 58/7/1 32/7/1
f 62/3/1 59/3/1 58/3/1
f 63/7/1 33/7/1 59/7/1
f 63/3/1 59/3/1 62/3/1
f 64/7/1 60/7/1 30/7/1
f 64/4/1 61/4/1 60/4/1
f 65/7/1 31/7/1 61/7/1
f 65/4/1 61/4/1 64/4/1
f 66/7/1 62/7/1 32/7/1
f 66/4/1 63/4/1 62/4/1
f 67/7/1 33/7/1 63/7/1
f 67/4/1 63/4/1 66/4/1
f 68/8/1 46/8/1 15/8/1
f 68/5/1 47/5/1 46/5/1
f 69/8/1 30/8/1 47/8/1
f 69/5/1 47/5/1 68/5/1
f 70/7/1 64/7/1 30/7/1
f 70/3/1 65/3/1 64/3/1
f 71/7/1 31/7/1 65/7/1
f 71/3/1 65/3/1 70/3/1
f 72/7/1 66/7/1 32/7/1
f 72/3/1 67/3/1 66/3/1
f 73/7/1 33/7/1 67/7/1
f 73/3/1 67/3/1 72/3/1
f 74/7/1 70/7/1 30/7/1
f 74/8/1 30/8/1 69/8/1
f 74/8/1 69/8/1 68/8/1
f 74/7/1 71/7/1 70/7/1
f 75/8/1 32/8/1 31/8/1
f 75/7/1 71/7/1 74/7/1
f 75/7/1 31/7/1 71/7/1
f 76/7/1 73/7/1 72/7/1
f 76/8/1 32/8/1 75/8/1
f 76/7/1 72/7/1 32/7/1
f 77/8/1 24/8/1 33/8/1
f 77/7/1 73/7/1 76/7/1
f 77/7/1 33/7/1 73/7/1
f 78/8/1 74/8/1 68/8/1
f 78/8/1 76/8/1 75/8/1
f 78/8/1 77/8/1 76/8/1
f 78/8/1 75/8/1 74/8/1
f 78/8/1 68/8/1 15/8/1
f 79/8/1 77/8/1 78/8/1
f 80/8/1 24/8/1 77/8/1
f 80/8/1 77/8/1 79/8/1
f 81/7/1 80/7/1 79/7/1
f 82/7/1 80/7/1 81/7/1
f 85/7/1 84/7/1 83/7/1
f 86/7/1 84/7/1 85/7/1
f 87/2/1 86/2/1 85/2/1
f 88/2/1 86/2/1 87/2/1
f 93/6/1 90/6/1 89/6/1
f 94/6/1 90/6/1 93/6/1
f 95/6/1 92/6/1 91/6/1
f 96/6/1 92/6/1 95/6/1
f 97/6/2 98/6/2 101/6/2
f 101/6/2 98/6/2 102/6/2
f 99/6/2 100/6/2 103/6/2
f 103/6/2 100/6/2 104/6/2
f 105/7/2 106/7/2 107/7/2
f 107/7/2 106/7/2 108/7/2
f 107/1/2 108/1/2 109/1/2
f 109/1/2 108/1/2 110/1/2
f 111/6/2 112/6/2 116/6/2
f 116/6/2 112/6/2 117/6/2
f 117/6/2 112/6/2 118/6/2
f 118/6/2 112/6/2 119/6/2
f 113/6/2 114/6/2 120/6/2
f 120/6/2 114/6/2 121/6/2
f 121/6/2 114/6/2 122/6/2
f 122/6/2 114/6/2 123/6/2
f 115/9/2 116/9/2 125/9/2
f 116/6/2 117/6/2 126/6/2
f 125/9/2 116/9/2 126/9/2
f 117/7/2 118/7/2 127/7/2
f 126/6/2 117/6/2 127/6/2
f 118/6/2 119/6/2 128/6/2
f 127/7/2 118/7/2 128/7/2
f 119/9/2 120/9/2 129/9/2
f 128/6/2 119/6/2 129/6/2
f 120/6/2 121/6/2 130/6/2
f 129/9/2 120/9/2 130/9/2
f 121/7/2 122/7/2 131/7/2
f 130/6/2 121/6/2 131/6/2
f 122/6/2 123/6/2 132/6/2
f 131/7/2 122/7/2 132/7/2
f 123/9/2 124/9/2 133/9/2
f 132/6/2 123/6/2 133/6/2
f 133/9/2 124/9/2 134/9/2
f 134/9/2 124/9/2 135/9/2
f 126/6/2 127/6/2 136/6/2
f 125/8/2 126/8/2 136/8/2
f 127/6/2 128/6/2 136/6/2
f 128/6/2 129/6/2 136/6/2
f 129/8/2 130/8/2 137/8/2
f 136/6/2 129/6/2 137/6/2
f 131/6/2 132/6/2 138/6/2
f 137/8/2 130/8/2 138/8/2
f 132/6/2 133/6/2 138/6/2
f 130/6/2 131/6/2 138/6/2
f 133/8/2 134/8/2 139/8/2
f 138/6/2 133/6/2 139/6/2
f 136/8/2 137/8/2 140/8/2
f 137/8/2 138/8/2 140/8/2
f 138/8/2 139/8/2 140/8/2
f 140/8/2 139/8/2 141/8/2
f 141/8/2 139/8/2 142/8/2
f 139/8/2 134/8/2 143/8/2
f 142/8/2 139/8/2 143/8/2
f 125/8/2 136/8/2 144/8/2
f 136/8/2 140/8/2 144/8/2
f 144/8/2 140/8/2 145/8/2
f 140/7/2 141/7/2 146/7/2
f 146/7/2 141/7/2 147/7/2
f 142/7/2 143/7/2 148/7/2
f 148/7/2 143/7/2 149/7/2
f 125/8/2 144/8/2 150/8/2
f 144/7/2 145/7/2 150/7/2
f 145/8/2 140/8/2 151/8/2
f 150/7/2 145/7/2 151/7/2
f 140/7/2 146/7/2 152/7/2
f 146/3/2 147/3/2 152/3/2
f 147/7/2 141/7/2 153/7/2
f 152/3/2 147/3/2 153/3/2
f 148/3/2 149/3/2 154/3/2
f 142/7/2 148/7/2 154/7/2
f 149/7/2 143/7/2 155/7/2
f 154/3/2 149/3/2 155/3/2
f 125/8/2 150/8/2 156/8/2
f 150/8/2 151/8/2 156/8/2
f 151/8/2 140/8/2 157/8/2
f 156/8/2 151/8/2 157/8/2
f 140/7/2 152/7/2 158/7/2
f 152/4/2 153/4/2 158/4/2
f 153/7/2 141/7/2 159/7/2
f 158/4/2 153/4/2 159/4/2
f 142/7/2 154/7/2 160/7/2
f 154/4/2 155/4/2 160/4/2
f 155/7/2 143/7/2 161/7/2
f 160/4/2 155/4/2 161/4/2
f 140/7/2 158/7/2 162/7/2
f 158/3/2 159/3/2 162/3/2
f 159/7/2 141/7/2 163/7/2
f 162/3/2 159/3/2 163/3/2
f 142/7/2 160/7/2 164/7/2
f 160/3/2 161/3/2 164/3/2
f 161/7/2 143/7/2 165/7/2
f 164/3/2 161/3/2 165/3/2
f 140/7/2 162/7/2 166/7/2
f 162/4/2 163/4/2 166/4/2
f 163/7/2 141/7/2 167/7/2
f 166/4/2 163/4/2 167/4/2
f 142/7/2 164/7/2 168/7/2
f 164/4/2 165/4/2 168/4/2
f 165/7/2 143/7/2 169/7/2
f 168/4/2 165/4/2 169/4/2
f 140/7/2 166/7/2 170/7/2
f 166/3/2 167/3/2 170/3/2
f 167/7/2 141/7/2 171/7/2
f 170/3/2 167/3/2 171/3/2
f 142/7/2 168/7/2 172/7/2
f 168/3/2 169/3/2 172/3/2
f 169/7/2 143/7/2 173/7/2
f 172/3/2 169/3/2 173/3/2
f 140/7/2 170/7/2 174/7/2
f 170/4/2 171/4/2 174/4/2
f 171/7/2 141/7/2 175/7/2
f 174/4/2 171/4/2 175/4/2
f 142/7/2 172/7/2 176/7/2
f 172/4/2 173/4/2 176/4/2
f 173/7/2 143/7/2 177/7/2
f 176/4/2 173/4/2 177/4/2
f 125/8/2 156/8/2 178/8/2
f 156/5/2 157/5/2 178/5/2
f 157/8/2 140/8/2 179/8/2
f 178/5/2 157/5/2 179/5/2
f 140/7/2 174/7/2 180/7/2
f 174/3/2 175/3/2 180/3/2
f 175/7/2 141/7/2 181/7/2
f 180/3/2 175/3/2 181/3/2
f 142/7/2 176/7/2 182/7/2
f 176/3/2 177/3/2 182/3/2
f 177/7/2 143/7/2 183/7/2
f 182/3/2 177/3/2 183/3/2
f 140/7/2 180/7/2 184/7/2
f 179/8/2 140/8/2 184/8/2
f 178/8/2 179/8/2 184/8/2
f 180/7/2 181/7/2 184/7/2
f 141/8/2 142/8/2 185/8/2
f 184/7/2 181/7/2 185/7/2
f 181/7/2 141/7/2 185/7/2
f 182/7/2 183/7/2 186/7/2
f 185/8/2 142/8/2 186/8/2
f 142/7/2 182/7/2 186/7/2
f 143/8/2 134/8/2 187/8/2
f 186/7/2 183/7/2 187/7/2
f 183/7/2 143/7/2 187/7/2
f 178/8/2 184/8/2 188/8/2
f 185/8/2 186/8/2 188/8/2
f 186/8/2 187/8/2 188/8/2
f 184/8/2 185/8/2 188/8/2
f 125/8/2 178/8/2 188/8/2
f 188/8/2 187/8/2 189/8/2
f 187/8/2 134/8/2 190/8/2
f 189/8/2 187/8/2 190/8/2
f 189/7/2 190/7/2 191/7/2
f 191/7/2 190/7/2 192/7/2
f 196/8/3 195/8/3 194/8/3
f 197/8/3 195/8/3 196/8/3
f 198/8/3 195/8/3 197/8/3
f 199/8/3 195/8/3 198/8/3
f 200/8/3 196/8/3 194/8/3
f 200/2/3 197/2/3 196/2/3
f 201/8/3 198/8/3 197/8/3
f 201/2/3 197/2/3 200/2/3
f 202/9/3 194/9/3 193/9/3
f 203/8/3 200/8/3 194/8/3
f 203/9/3 194/9/3 202/9/3
f 203/8/3 201/8/3 200/8/3
f 204/9/3 202/9/3 193/9/3
f 204/7/3 203/7/3 202/7/3
f 205/8/3 201/8/3 203/8/3
f 205/7/3 203/7/3 204/7/3
f 206/8/3 201/8/3 205/8/3
f 207/8/3 198/8/3 201/8/3
f 207/8/3 201/8/3 206/8/3
f 208/8/3 206/8/3 205/8/3
f 208/2/3 207/2/3 206/2/3
f 209/8/3 198/8/3 207/8/3
f 209/2/3 207/2/3 208/2/3
f 210/5/3 199/5/3 198/5/3
f 210/8/3 198/8/3 209/8/3
f 211/8/3 195/8/3 199/8/3
f 211/5/3 199/5/3 210/5/3
f 212/9/3 204/9/3 193/9/3
f 212/9/3 205/9/3 204/9/3
f 213/8/3 208/8/3 205/8/3
f 213/9/3 205/9/3 212/9/3
f 213/8/3 210/8/3 209/8/3
f 213/8/3 211/8/3 210/8/3
f 213/8/3 209/8/3 208/8/3
f 214/8/3 195/8/3 211/8/3
f 214/8/3 211/8/3 213/8/3
f 217/6/3 216/6/3 215/6/3
f 218/6/3 216/6/3 217/6/3
f 222/7/3 220/7/3 219/7/3
f 222/2/3 221/2/3 220/2/3
f 223/2/3 221/2/3 222/2/3
f 224/7/3 222/7/3 219/7/3
f 224/7/3 223/7/3 222/7/3
f 225/7/3 223/7/3 224/7/3
f 226/7/3 224/7/3 219/7/3
f 227/1/3 225/1/3 224/1/3
f 227/7/3 224/7/3 226/7/3
f 228/1/3 225/1/3 227/1/3
f 231/6/3 230/6/3 229/6/3
f 232/6/3 230/6/3 231/6/3
f 235/7/3 234/7/3 233/7/3
f 236/7/3 234/7/3 235/7/3
f 239/6/3 238/6/3 237/6/3
f 240/6/3 238/6/3 239/6/3
f 243/6/3 242/6/3 241/6/3
f 244/6/3 242/6/3 243/6/3
f 245/7/4 246/7/4 248/7/4
f 246/2/4 247/2/4 248/2/4
f 248/2/4 247/2/4 249/2/4
f 245/7/4 248/7/4 250/7/4
f 248/7/4 249/7/4 250/7/4
f 250/7/4 249/7/4 251/7/4
f 245/7/4 250/7/4 252/7/4
f 250/1/4 251/1/4 253/1/4
f 252/7/4 250/7/4 253/7/4
f 253/1/4 251/1/4 254/1/4
f 255/6/4 256/6/4 257/6/4
f 257/6/4 256/6/4 258/6/4
f 259/6/4 260/6/4 261/6/4
f 261/6/4 260/6/4 262/6/4
f 263/6/4 264/6/4 265/6/4
f 265/6/4 264/6/4 266/6/4
f 267/6/4 268/6/4 269/6/4
f 269/6/4 268/6/4 270/6/4
f 271/8/4 272/8/4 274/8/4
f 274/8/4 272/8/4 275/8/4
f 275/8/4 272/8/4 276/8/4
f 276/8/4 272/8/4 277/8/4
f 277/8/4 272/8/4 278/8/4
f 278/8/4 272/8/4 279/8/4
f 279/8/4 272/8/4 280/8/4
f 280/8/4 272/8/4 281/8/4
f 281/8/4 272/8/4 282/8/4
f 282/8/4 272/8/4 283/8/4
f 283/8/4 272/8/4 284/8/4
f 271/8/4 274/8/4 285/8/4
f 285/8/4 274/8/4 286/8/4
f 274/4/4 275/4/4 287/4/4
f 286/8/4 274/8/4 287/8/4
f 275/3/4 276/3/4 288/3/4
f 287/4/4 275/4/4 288/4/4
f 276/4/4 277/4/4 289/4/4
f 288/3/4 276/3/4 289/3/4
f 277/3/4 278/3/4 290/3/4
f 289/4/4 277/4/4 290/4/4
f 278/4/4 279/4/4 291/4/4
f 290/3/4 278/3/4 291/3/4
f 279/3/4 280/3/4 292/3/4
f 291/4/4 279/4/4 292/4/4
f 280/4/4 281/4/4 293/4/4
f 292/3/4 280/3/4 293/3/4
f 281/3/4 282/3/4 294/3/4
f 293/4/4 281/4/4 294/4/4
f 282/4/4 283/4/4 295/4/4
f 294/3/4 282/3/4 295/3/4
f 283/3/4 284/3/4 296/3/4
f 295/4/4 283/4/4 296/4/4
f 284/8/4 272/8/4 297/8/4
f 296/3/4 284/3/4 297/3/4
f 295/8/4 296/8/4 298/8/4
f 286/8/4 287/8/4 298/8/4
f 296/8/4 297/8/4 298/8/4
f 287/8/4 288/8/4 298/8/4
f 294/8/4 295/8/4 298/8/4
f 293/8/4 294/8/4 298/8/4
f 292/8/4 293/8/4 298/8/4
f 291/8/4 292/8/4 298/8/4
f 290/8/4 291/8/4 298/8/4
f 289/8/4 290/8/4 298/8/4
f 288/8/4 289/8/4 298/8/4
f 272/7/4 273/7/4 299/7/4
f 298/8/4 297/8/4 299/8/4
f 297/8/4 272/8/4 299/8/4
f 299/7/4 273/7/4 300/7/4
f 301/9/4 302/9/4 303/9/4
f 303/9/4 302/9/4 304/9/4
f 301/9/4 303/9/4 305/9/4
f 303/3/4 304/3/4 305/3/4
f 305/3/4 304/3/4 306/3/4
f 301/9/4 305/9/4 307/9/4
f 305/9/4 306/9/4 307/9/4
f 307/9/4 306/9/4 308/9/4
f 313/6/5 310/6/5 309/6/5
f 314/6/5 310/6/5 313/6/5
f 315/6/5 312/6/5 311/6/5
f 316/6/5 312/6/5 315/6/5
f 321/6/5 318/6/5 317/6/5
f 322/6/5 318/6/5 321/6/5
f 323/6/5 320/6/5 319/6/5
f 324/6/5 320/6/5 323/6/5
f 327/9/5 326/9/5 325/9/5
f 328/9/5 326/9/5 327/9/5
f 329/9/5 326/9/5 328/9/5
f 330/9/5 326/9/5 329/9/5
f 332/9/5 329/9/5 328/9/5
f 333/9/5 329/9/5 332/9/5
f 333/9/5 332/9/5 331/9/5
f 335/9/5 333/9/5 331/9/5
f 335/9/5 334/9/5 333/9/5
f 336/9/5 334/9/5 335/9/5
f 337/9/5 334/9/5 336/9/5
f 338/9/5 334/9/5 337/9/5
f 340/9/5 337/9/5 336/9/5
f 341/9/5 337/9/5 340/9/5
f 343/9/5 340/9/5 339/9/5
f 343/9/5 342/9/5 341/9/5
f 343/9/5 341/9/5 340/9/5
f 344/9/5 342/9/5 343/9/5
f 345/9/6 346/9/6 349/9/6
f 346/3/6 347/3/6 350/3/6
f 349/9/6 346/9/6 350/9/6
f 347/9/6 348/9/6 351/9/6
f 350/3/6 347/3/6 351/3/6
f 351/9/6 348/9/6 352/9/6
f 353/8/6 354/8/6 355/8/6
f 355/8/6 354/8/6 356/8/6
f 353/8/6 355/8/6 357/8/6
f 356/8/6 354/8/6 358/8/6
f 353/8/6 357/8/6 359/8/6
f 357/8/6 358/8/6 359/8/6
f 358/8/6 354/8/6 360/8/6
f 359/8/6 358/8/6 360/8/6
f 361/2/6 362/2/6 365/2/6
f 362/7/6 363/7/6 366/7/6
f 365/2/6 362/2/6 366/2/6
f 363/1/6 364/1/6 367/1/6
f 366/7/6 363/7/6 367/7/6
f 367/1/6 364/1/6 368/1/6
f 369/7/6 370/7/6 371/7/6
f 371/7/6 370/7/6 372/7/6
