# MagicaVoxel @ Ephtracy

# group
o 

# material
mtllib head.mtl
usemtl palette

# normals
vn -1 0 0
vn 1 0 0
vn 0 0 1
vn 0 0 -1
vn 0 -1 0
vn 0 1 0

# texcoords
vt 0.876953 0.5
vt 0.880859 0.5
vt 0.884766 0.5
vt 0.888672 0.5
vt 0.919922 0.5
vt 0.970703 0.5
vt 0.974609 0.5

# verts
v -0.4 0.2 0.1
v -0.4 0.2 0
v -0.4 0.4 0.1
v -0.4 0.4 0
v -0.3 0 0.3
v -0.3 0 -0.2
v -0.3 0 -0.3
v -0.3 0.2 0.1
v -0.3 0.2 0
v -0.3 0.2 -0.2
v -0.3 0.4 0.1
v -0.3 0.4 0
v -0.3 0.5 0.2
v -0.3 0.5 0.1
v -0.3 0.6 0.3
v -0.3 0.6 0.2
v -0.3 0.8 0.3
v -0.3 0.8 -0.3
v 0.3 0 0.3
v 0.3 0 -0.2
v 0.3 0 -0.3
v 0.3 0.2 0.1
v 0.3 0.2 0
v 0.3 0.2 -0.2
v 0.3 0.4 0.1
v 0.3 0.4 0
v 0.3 0.5 0.2
v 0.3 0.5 0.1
v 0.3 0.6 0.3
v 0.3 0.6 0.2
v 0.3 0.8 0.3
v 0.3 0.8 -0.3
v 0.4 0.2 0.1
v 0.4 0.2 0
v 0.4 0.4 0.1
v 0.4 0.4 0
v -0.3 0 0.3
v -0.3 0.6 0.3
v -0.3 0.8 0.3
v -0.2 0.3 0.3
v -0.2 0.5 0.3
v -0.1 0.1 0.3
v -0.1 0.2 0.3
v -0.1 0.3 0.3
v -0.1 0.5 0.3
v 0.1 0.1 0.3
v 0.1 0.2 0.3
v 0.1 0.3 0.3
v 0.1 0.5 0.3
v 0.2 0.3 0.3
v 0.2 0.5 0.3
v 0.3 0 0.3
v 0.3 0.6 0.3
v 0.3 0.8 0.3
v -0.4 0.2 0.1
v -0.4 0.4 0.1
v -0.3 0.2 0.1
v -0.3 0.4 0.1
v 0.3 0.2 0.1
v 0.3 0.4 0.1
v 0.4 0.2 0.1
v 0.4 0.4 0.1
v -0.4 0.2 0
v -0.4 0.4 0
v -0.3 0.2 0
v -0.3 0.4 0
v 0.3 0.2 0
v 0.3 0.4 0
v 0.4 0.2 0
v 0.4 0.4 0
v -0.3 0 -0.3
v -0.3 0.8 -0.3
v 0.3 0 -0.3
v 0.3 0.8 -0.3
v -0.3 0 0.3
v 0.3 0 0.3
v -0.2 0 0.2
v 0.2 0 0.2
v -0.3 0 -0.2
v -0.2 0 -0.2
v 0.2 0 -0.2
v 0.3 0 -0.2
v -0.3 0 -0.3
v 0.3 0 -0.3
v -0.4 0.2 0.1
v -0.3 0.2 0.1
v 0.3 0.2 0.1
v 0.4 0.2 0.1
v -0.4 0.2 0
v -0.3 0.2 0
v 0.3 0.2 0
v 0.4 0.2 0
v -0.4 0.4 0.1
v -0.3 0.4 0.1
v 0.3 0.4 0.1
v 0.4 0.4 0.1
v -0.4 0.4 0
v -0.3 0.4 0
v 0.3 0.4 0
v 0.4 0.4 0
v -0.3 0.8 0.3
v 0.3 0.8 0.3
v -0.3 0.8 -0.3
v 0.3 0.8 -0.3

# faces
f 3/1/1 2/1/1 1/1/1
f 4/1/1 2/1/1 3/1/1
f 8/7/1 6/7/1 5/7/1
f 9/7/1 6/7/1 8/7/1
f 10/4/1 7/4/1 6/4/1
f 10/7/1 6/7/1 9/7/1
f 11/7/1 8/7/1 5/7/1
f 12/4/1 10/4/1 9/4/1
f 13/7/1 11/7/1 5/7/1
f 14/4/1 12/4/1 11/4/1
f 14/7/1 11/7/1 13/7/1
f 15/7/1 13/7/1 5/7/1
f 16/4/1 14/4/1 13/4/1
f 16/7/1 13/7/1 15/7/1
f 17/4/1 16/4/1 15/4/1
f 18/4/1 7/4/1 10/4/1
f 18/4/1 16/4/1 17/4/1
f 18/4/1 12/4/1 14/4/1
f 18/4/1 14/4/1 16/4/1
f 18/4/1 10/4/1 12/4/1
f 19/7/2 20/7/2 22/7/2
f 22/7/2 20/7/2 23/7/2
f 20/4/2 21/4/2 24/4/2
f 23/7/2 20/7/2 24/7/2
f 19/7/2 22/7/2 25/7/2
f 23/4/2 24/4/2 26/4/2
f 19/7/2 25/7/2 27/7/2
f 25/4/2 26/4/2 28/4/2
f 27/7/2 25/7/2 28/7/2
f 19/7/2 27/7/2 29/7/2
f 27/4/2 28/4/2 30/4/2
f 29/7/2 27/7/2 30/7/2
f 29/4/2 30/4/2 31/4/2
f 24/4/2 21/4/2 32/4/2
f 31/4/2 30/4/2 32/4/2
f 28/4/2 26/4/2 32/4/2
f 30/4/2 28/4/2 32/4/2
f 26/4/2 24/4/2 32/4/2
f 33/1/2 34/1/2 35/1/2
f 35/1/2 34/1/2 36/1/2
f 40/7/3 38/7/3 37/7/3
f 41/7/3 38/7/3 40/7/3
f 42/7/3 40/7/3 37/7/3
f 43/7/3 40/7/3 42/7/3
f 44/3/3 41/3/3 40/3/3
f 44/7/3 40/7/3 43/7/3
f 45/7/3 38/7/3 41/7/3
f 45/3/3 41/3/3 44/3/3
f 46/2/3 43/2/3 42/2/3
f 46/7/3 42/7/3 37/7/3
f 47/1/3 44/1/3 43/1/3
f 47/2/3 43/2/3 46/2/3
f 48/7/3 45/7/3 44/7/3
f 48/1/3 44/1/3 47/1/3
f 49/7/3 38/7/3 45/7/3
f 49/7/3 45/7/3 48/7/3
f 50/7/3 48/7/3 47/7/3
f 50/7/3 47/7/3 46/7/3
f 50/3/3 49/3/3 48/3/3
f 51/7/3 38/7/3 49/7/3
f 51/3/3 49/3/3 50/3/3
f 52/7/3 46/7/3 37/7/3
f 52/7/3 50/7/3 46/7/3
f 52/7/3 51/7/3 50/7/3
f 53/4/3 39/4/3 38/4/3
f 53/7/3 51/7/3 52/7/3
f 53/7/3 38/7/3 51/7/3
f 54/4/3 39/4/3 53/4/3
f 57/1/3 56/1/3 55/1/3
f 58/1/3 56/1/3 57/1/3
f 61/1/3 60/1/3 59/1/3
f 62/1/3 60/1/3 61/1/3
f 63/1/4 64/1/4 65/1/4
f 65/1/4 64/1/4 66/1/4
f 67/1/4 68/1/4 69/1/4
f 69/1/4 68/1/4 70/1/4
f 71/4/4 72/4/4 73/4/4
f 73/4/4 72/4/4 74/4/4
f 77/7/5 76/7/5 75/7/5
f 78/7/5 76/7/5 77/7/5
f 79/7/5 77/7/5 75/7/5
f 80/6/5 78/6/5 77/6/5
f 80/7/5 77/7/5 79/7/5
f 81/7/5 76/7/5 78/7/5
f 81/6/5 78/6/5 80/6/5
f 82/7/5 76/7/5 81/7/5
f 83/4/5 80/4/5 79/4/5
f 83/4/5 81/4/5 80/4/5
f 83/4/5 82/4/5 81/4/5
f 84/4/5 82/4/5 83/4/5
f 89/1/5 86/1/5 85/1/5
f 90/1/5 86/1/5 89/1/5
f 91/1/5 88/1/5 87/1/5
f 92/1/5 88/1/5 91/1/5
f 93/1/6 94/1/6 97/1/6
f 97/1/6 94/1/6 98/1/6
f 95/1/6 96/1/6 99/1/6
f 99/1/6 96/1/6 100/1/6
f 101/4/6 102/4/6 103/4/6
f 103/4/6 102/4/6 104/4/6
