# MagicaVoxel @ Ephtracy

# group
o 

# material
mtllib torso.mtl
usemtl palette

# normals
vn -1 0 0
vn 1 0 0
vn 0 0 1
vn 0 0 -1
vn 0 -1 0
vn 0 1 0

# texcoords
vt 0.751953 0.5
vt 0.755859 0.5
vt 0.759766 0.5
vt 0.763672 0.5

# verts
v -0.3 0 0
v -0.3 0 -0.2
v -0.3 0.1 0.2
v -0.3 0.1 0
v -0.3 0.1 -0.2
v -0.3 1 0.2
v -0.3 1 -0.2
v -0.3 1.1 0.2
v -0.3 1.1 -0.2
v 0.3 0 0
v 0.3 0 -0.2
v 0.3 0.1 0.2
v 0.3 0.1 0
v 0.3 0.1 -0.2
v 0.3 1 0.2
v 0.3 1 -0.2
v 0.3 1.1 0.2
v 0.3 1.1 -0.2
v -0.3 0.1 0.2
v -0.3 1 0.2
v -0.3 1.1 0.2
v -0.2 0.2 0.2
v -0.2 0.3 0.2
v -0.2 0.4 0.2
v -0.2 0.5 0.2
v -0.2 0.6 0.2
v -0.2 0.7 0.2
v -0.2 0.8 0.2
v -0.2 0.9 0.2
v -0.1 0.2 0.2
v -0.1 0.3 0.2
v -0.1 0.4 0.2
v -0.1 0.5 0.2
v -0.1 0.6 0.2
v -0.1 0.7 0.2
v -0.1 0.8 0.2
v -0.1 0.9 0.2
v 0.1 0.2 0.2
v 0.1 0.3 0.2
v 0.1 0.4 0.2
v 0.1 0.5 0.2
v 0.1 0.6 0.2
v 0.1 0.7 0.2
v 0.1 0.8 0.2
v 0.1 0.9 0.2
v 0.2 0.2 0.2
v 0.2 0.3 0.2
v 0.2 0.4 0.2
v 0.2 0.5 0.2
v 0.2 0.6 0.2
v 0.2 0.7 0.2
v 0.2 0.8 0.2
v 0.2 0.9 0.2
v 0.3 0.1 0.2
v 0.3 1 0.2
v 0.3 1.1 0.2
v -0.3 0 0
v -0.3 0.1 0
v 0.3 0 0
v 0.3 0.1 0
v -0.3 0 -0.2
v -0.3 0.1 -0.2
v -0.3 1 -0.2
v -0.3 1.1 -0.2
v 0.3 0 -0.2
v 0.3 0.1 -0.2
v 0.3 1 -0.2
v 0.3 1.1 -0.2
v -0.3 0 0
v 0.3 0 0
v -0.3 0 -0.2
v 0.3 0 -0.2
v -0.3 0.1 0.2
v 0.3 0.1 0.2
v -0.3 0.1 0
v 0.3 0.1 0
v -0.3 1.1 0.2
v 0.3 1.1 0.2
v -0.2 1.1 0.1
v 0.2 1.1 0.1
v -0.2 1.1 -0.1
v 0.2 1.1 -0.1
v -0.3 1.1 -0.2
v 0.3 1.1 -0.2

# faces
f 4/2/1 2/2/1 1/2/1
f 5/2/1 2/2/1 4/2/1
f 6/1/1 4/1/1 3/1/1
f 6/1/1 5/1/1 4/1/1
f 7/1/1 5/1/1 6/1/1
f 8/3/1 7/3/1 6/3/1
f 9/3/1 7/3/1 8/3/1
f 10/2/2 11/2/2 13/2/2
f 13/2/2 11/2/2 14/2/2
f 12/1/2 13/1/2 15/1/2
f 13/1/2 14/1/2 15/1/2
f 15/1/2 14/1/2 16/1/2
f 15/3/2 16/3/2 17/3/2
f 17/3/2 16/3/2 18/3/2
f 22/1/3 20/1/3 19/1/3
f 23/1/3 20/1/3 22/1/3
f 24/1/3 20/1/3 23/1/3
f 25/1/3 20/1/3 24/1/3
f 26/1/3 20/1/3 25/1/3
f 27/1/3 20/1/3 26/1/3
f 28/1/3 20/1/3 27/1/3
f 29/1/3 20/1/3 28/1/3
f 30/1/3 22/1/3 19/1/3
f 30/4/3 23/4/3 22/4/3
f 31/1/3 24/1/3 23/1/3
f 31/4/3 23/4/3 30/4/3
f 32/4/3 25/4/3 24/4/3
f 32/1/3 24/1/3 31/1/3
f 33/1/3 26/1/3 25/1/3
f 33/4/3 25/4/3 32/4/3
f 34/4/3 27/4/3 26/4/3
f 34/1/3 26/1/3 33/1/3
f 35/1/3 28/1/3 27/1/3
f 35/4/3 27/4/3 34/4/3
f 36/4/3 29/4/3 28/4/3
f 36/1/3 28/1/3 35/1/3
f 37/1/3 20/1/3 29/1/3
f 37/4/3 29/4/3 36/4/3
f 38/1/3 36/1/3 35/1/3
f 38/1/3 35/1/3 34/1/3
f 38/1/3 37/1/3 36/1/3
f 38/1/3 34/1/3 33/1/3
f 38/1/3 33/1/3 32/1/3
f 38/1/3 32/1/3 31/1/3
f 38/1/3 31/1/3 30/1/3
f 38/1/3 30/1/3 19/1/3
f 39/1/3 37/1/3 38/1/3
f 40/1/3 37/1/3 39/1/3
f 41/1/3 37/1/3 40/1/3
f 42/1/3 37/1/3 41/1/3
f 43/1/3 37/1/3 42/1/3
f 44/1/3 37/1/3 43/1/3
f 45/1/3 20/1/3 37/1/3
f 45/1/3 37/1/3 44/1/3
f 46/1/3 38/1/3 19/1/3
f 46/4/3 39/4/3 38/4/3
f 47/1/3 40/1/3 39/1/3
f 47/4/3 39/4/3 46/4/3
f 48/4/3 41/4/3 40/4/3
f 48/1/3 40/1/3 47/1/3
f 49/1/3 42/1/3 41/1/3
f 49/4/3 41/4/3 48/4/3
f 50/4/3 43/4/3 42/4/3
f 50/1/3 42/1/3 49/1/3
f 51/1/3 44/1/3 43/1/3
f 51/4/3 43/4/3 50/4/3
f 52/4/3 45/4/3 44/4/3
f 52/1/3 44/1/3 51/1/3
f 53/1/3 20/1/3 45/1/3
f 53/4/3 45/4/3 52/4/3
f 54/1/3 50/1/3 49/1/3
f 54/1/3 52/1/3 51/1/3
f 54/1/3 53/1/3 52/1/3
f 54/1/3 49/1/3 48/1/3
f 54/1/3 48/1/3 47/1/3
f 54/1/3 47/1/3 46/1/3
f 54/1/3 46/1/3 19/1/3
f 54/1/3 51/1/3 50/1/3
f 55/3/3 21/3/3 20/3/3
f 55/1/3 53/1/3 54/1/3
f 55/1/3 20/1/3 53/1/3
f 56/3/3 21/3/3 55/3/3
f 59/2/3 58/2/3 57/2/3
f 60/2/3 58/2/3 59/2/3
f 61/2/4 62/2/4 65/2/4
f 62/1/4 63/1/4 66/1/4
f 65/2/4 62/2/4 66/2/4
f 63/3/4 64/3/4 67/3/4
f 66/1/4 63/1/4 67/1/4
f 67/3/4 64/3/4 68/3/4
f 71/2/5 70/2/5 69/2/5
f 72/2/5 70/2/5 71/2/5
f 75/1/5 74/1/5 73/1/5
f 76/1/5 74/1/5 75/1/5
f 77/3/6 78/3/6 79/3/6
f 79/3/6 78/3/6 80/3/6
f 77/3/6 79/3/6 81/3/6
f 79/1/6 80/1/6 81/1/6
f 80/3/6 78/3/6 82/3/6
f 81/1/6 80/1/6 82/1/6
f 77/3/6 81/3/6 83/3/6
f 81/3/6 82/3/6 83/3/6
f 82/3/6 78/3/6 84/3/6
f 83/3/6 82/3/6 84/3/6
