# MagicaVoxel @ Ephtracy

# group
o 

# material
mtllib woodbefore.mtl
usemtl palette

# normals
vn -1 0 0
vn 1 0 0
vn 0 0 1
vn 0 0 -1
vn 0 -1 0
vn 0 1 0

# texcoords
vt 0.970703 0.5
vt 0.974609 0.5

# verts
v -0.7 0 0.7
v -0.7 0 0.5
v -0.7 0 0.4
v -0.7 0 0.2
v -0.7 0 0.1
v -0.7 0 -0.1
v -0.7 0 -0.2
v -0.7 0 -0.4
v -0.7 0 -0.5
v -0.7 0 -0.7
v -0.7 0.2 0.7
v -0.7 0.2 0.5
v -0.7 0.2 0.4
v -0.7 0.2 0.2
v -0.7 0.2 0.1
v -0.7 0.2 -0.1
v -0.7 0.2 -0.2
v -0.7 0.2 -0.4
v -0.7 0.2 -0.5
v -0.7 0.2 -0.7
v -0.5 0.2 0.6
v -0.5 0.2 0.5
v -0.5 0.2 0.4
v -0.5 0.2 0.2
v -0.5 0.2 0.1
v -0.5 0.2 -0.1
v -0.5 0.2 -0.2
v -0.5 0.2 -0.4
v -0.5 0.2 -0.5
v -0.5 0.2 -0.6
v -0.5 0.4 0.6
v -0.5 0.4 0.5
v -0.5 0.4 0.3
v -0.5 0.4 0.1
v -0.5 0.4 -0.1
v -0.5 0.4 -0.3
v -0.5 0.4 -0.5
v -0.5 0.4 -0.6
v -0.5 0.6 0.3
v -0.5 0.6 0.1
v -0.5 0.6 -0.1
v -0.5 0.6 -0.3
v -0.1 0.2 0.6
v -0.1 0.2 0.5
v -0.1 0.2 0.4
v -0.1 0.2 0.2
v -0.1 0.2 0.1
v -0.1 0.2 -0.1
v -0.1 0.2 -0.2
v -0.1 0.2 -0.4
v -0.1 0.2 -0.5
v -0.1 0.2 -0.6
v -0.1 0.4 0.6
v -0.1 0.4 0.5
v -0.1 0.4 0.3
v -0.1 0.4 0.1
v -0.1 0.4 -0.1
v -0.1 0.4 -0.3
v -0.1 0.4 -0.5
v -0.1 0.4 -0.6
v 0.3 0.2 0.6
v 0.3 0.2 0.5
v 0.3 0.2 0.4
v 0.3 0.2 0.2
v 0.3 0.2 0.1
v 0.3 0.2 -0.1
v 0.3 0.2 -0.2
v 0.3 0.2 -0.4
v 0.3 0.2 -0.5
v 0.3 0.2 -0.6
v 0.3 0.4 0.6
v 0.3 0.4 0.5
v 0.3 0.4 0.3
v 0.3 0.4 0.1
v 0.3 0.4 -0.1
v 0.3 0.4 -0.3
v 0.3 0.4 -0.5
v 0.3 0.4 -0.6
v -0.3 0.2 0.6
v -0.3 0.2 0.5
v -0.3 0.2 0.4
v -0.3 0.2 0.2
v -0.3 0.2 0.1
v -0.3 0.2 -0.1
v -0.3 0.2 -0.2
v -0.3 0.2 -0.4
v -0.3 0.2 -0.5
v -0.3 0.2 -0.6
v -0.3 0.4 0.6
v -0.3 0.4 0.5
v -0.3 0.4 0.3
v -0.3 0.4 0.1
v -0.3 0.4 -0.1
v -0.3 0.4 -0.3
v -0.3 0.4 -0.5
v -0.3 0.4 -0.6
v 0.1 0.2 0.6
v 0.1 0.2 0.5
v 0.1 0.2 0.4
v 0.1 0.2 0.2
v 0.1 0.2 0.1
v 0.1 0.2 -0.1
v 0.1 0.2 -0.2
v 0.1 0.2 -0.4
v 0.1 0.2 -0.5
v 0.1 0.2 -0.6
v 0.1 0.4 0.6
v 0.1 0.4 0.5
v 0.1 0.4 0.3
v 0.1 0.4 0.1
v 0.1 0.4 -0.1
v 0.1 0.4 -0.3
v 0.1 0.4 -0.5
v 0.1 0.4 -0.6
v 0.5 0.2 0.6
v 0.5 0.2 0.5
v 0.5 0.2 0.4
v 0.5 0.2 0.2
v 0.5 0.2 0.1
v 0.5 0.2 -0.1
v 0.5 0.2 -0.2
v 0.5 0.2 -0.4
v 0.5 0.2 -0.5
v 0.5 0.2 -0.6
v 0.5 0.4 0.6
v 0.5 0.4 0.5
v 0.5 0.4 0.3
v 0.5 0.4 0.1
v 0.5 0.4 -0.1
v 0.5 0.4 -0.3
v 0.5 0.4 -0.5
v 0.5 0.4 -0.6
v 0.5 0.6 0.3
v 0.5 0.6 0.1
v 0.5 0.6 -0.1
v 0.5 0.6 -0.3
v 0.7 0 0.7
v 0.7 0 0.5
v 0.7 0 0.4
v 0.7 0 0.2
v 0.7 0 0.1
v 0.7 0 -0.1
v 0.7 0 -0.2
v 0.7 0 -0.4
v 0.7 0 -0.5
v 0.7 0 -0.7
v 0.7 0.2 0.7
v 0.7 0.2 0.5
v 0.7 0.2 0.4
v 0.7 0.2 0.2
v 0.7 0.2 0.1
v 0.7 0.2 -0.1
v 0.7 0.2 -0.2
v 0.7 0.2 -0.4
v 0.7 0.2 -0.5
v 0.7 0.2 -0.7
v -0.7 0 0.7
v -0.7 0.2 0.7
v -0.6 0 0.7
v -0.6 0.2 0.7
v 0.6 0 0.7
v 0.6 0.2 0.7
v 0.7 0 0.7
v 0.7 0.2 0.7
v -0.5 0.2 0.6
v -0.5 0.4 0.6
v -0.3 0.2 0.6
v -0.3 0.4 0.6
v -0.1 0.2 0.6
v -0.1 0.4 0.6
v 0.1 0.2 0.6
v 0.1 0.4 0.6
v 0.3 0.2 0.6
v 0.3 0.4 0.6
v 0.5 0.2 0.6
v 0.5 0.4 0.6
v -0.7 0 0.4
v -0.7 0.2 0.4
v -0.6 0 0.4
v -0.6 0.2 0.4
v -0.5 0.2 0.4
v -0.3 0.2 0.4
v -0.1 0.2 0.4
v 0.1 0.2 0.4
v 0.3 0.2 0.4
v 0.5 0.2 0.4
v 0.6 0 0.4
v 0.6 0.2 0.4
v 0.7 0 0.4
v 0.7 0.2 0.4
v -0.5 0.4 0.3
v -0.5 0.6 0.3
v -0.4 0.4 0.3
v -0.4 0.6 0.3
v -0.3 0.4 0.3
v -0.1 0.4 0.3
v 0.1 0.4 0.3
v 0.3 0.4 0.3
v 0.4 0.4 0.3
v 0.4 0.6 0.3
v 0.5 0.4 0.3
v 0.5 0.6 0.3
v -0.7 0 0.1
v -0.7 0.2 0.1
v -0.6 0 0.1
v -0.6 0.2 0.1
v -0.5 0.2 0.1
v -0.3 0.2 0.1
v -0.1 0.2 0.1
v 0.1 0.2 0.1
v 0.3 0.2 0.1
v 0.5 0.2 0.1
v 0.6 0 0.1
v 0.6 0.2 0.1
v 0.7 0 0.1
v 0.7 0.2 0.1
v -0.5 0.4 -0.1
v -0.5 0.6 -0.1
v -0.4 0.4 -0.1
v -0.4 0.6 -0.1
v -0.3 0.4 -0.1
v -0.1 0.4 -0.1
v 0.1 0.4 -0.1
v 0.3 0.4 -0.1
v 0.4 0.4 -0.1
v 0.4 0.6 -0.1
v 0.5 0.4 -0.1
v 0.5 0.6 -0.1
v -0.7 0 -0.2
v -0.7 0.2 -0.2
v -0.6 0 -0.2
v -0.6 0.2 -0.2
v -0.5 0.2 -0.2
v -0.3 0.2 -0.2
v -0.1 0.2 -0.2
v 0.1 0.2 -0.2
v 0.3 0.2 -0.2
v 0.5 0.2 -0.2
v 0.6 0 -0.2
v 0.6 0.2 -0.2
v 0.7 0 -0.2
v 0.7 0.2 -0.2
v -0.7 0 -0.5
v -0.7 0.2 -0.5
v -0.6 0 -0.5
v -0.6 0.2 -0.5
v -0.5 0.2 -0.5
v -0.3 0.2 -0.5
v -0.1 0.2 -0.5
v 0.1 0.2 -0.5
v 0.3 0.2 -0.5
v 0.5 0.2 -0.5
v 0.6 0 -0.5
v 0.6 0.2 -0.5
v 0.7 0 -0.5
v 0.7 0.2 -0.5
v -0.7 0 0.5
v -0.7 0.2 0.5
v -0.6 0 0.5
v -0.6 0.2 0.5
v -0.5 0.2 0.5
v -0.3 0.2 0.5
v -0.1 0.2 0.5
v 0.1 0.2 0.5
v 0.3 0.2 0.5
v 0.5 0.2 0.5
v 0.6 0 0.5
v 0.6 0.2 0.5
v 0.7 0 0.5
v 0.7 0.2 0.5
v -0.7 0 0.2
v -0.7 0.2 0.2
v -0.6 0 0.2
v -0.6 0.2 0.2
v -0.5 0.2 0.2
v -0.3 0.2 0.2
v -0.1 0.2 0.2
v 0.1 0.2 0.2
v 0.3 0.2 0.2
v 0.5 0.2 0.2
v 0.6 0 0.2
v 0.6 0.2 0.2
v 0.7 0 0.2
v 0.7 0.2 0.2
v -0.5 0.4 0.1
v -0.5 0.6 0.1
v -0.4 0.4 0.1
v -0.4 0.6 0.1
v -0.3 0.4 0.1
v -0.1 0.4 0.1
v 0.1 0.4 0.1
v 0.3 0.4 0.1
v 0.4 0.4 0.1
v 0.4 0.6 0.1
v 0.5 0.4 0.1
v 0.5 0.6 0.1
v -0.7 0 -0.1
v -0.7 0.2 -0.1
v -0.6 0 -0.1
v -0.6 0.2 -0.1
v -0.5 0.2 -0.1
v -0.3 0.2 -0.1
v -0.1 0.2 -0.1
v 0.1 0.2 -0.1
v 0.3 0.2 -0.1
v 0.5 0.2 -0.1
v 0.6 0 -0.1
v 0.6 0.2 -0.1
v 0.7 0 -0.1
v 0.7 0.2 -0.1
v -0.5 0.4 -0.3
v -0.5 0.6 -0.3
v -0.4 0.4 -0.3
v -0.4 0.6 -0.3
v -0.3 0.4 -0.3
v -0.1 0.4 -0.3
v 0.1 0.4 -0.3
v 0.3 0.4 -0.3
v 0.4 0.4 -0.3
v 0.4 0.6 -0.3
v 0.5 0.4 -0.3
v 0.5 0.6 -0.3
v -0.7 0 -0.4
v -0.7 0.2 -0.4
v -0.6 0 -0.4
v -0.6 0.2 -0.4
v -0.5 0.2 -0.4
v -0.3 0.2 -0.4
v -0.1 0.2 -0.4
v 0.1 0.2 -0.4
v 0.3 0.2 -0.4
v 0.5 0.2 -0.4
v 0.6 0 -0.4
v 0.6 0.2 -0.4
v 0.7 0 -0.4
v 0.7 0.2 -0.4
v -0.5 0.2 -0.6
v -0.5 0.4 -0.6
v -0.3 0.2 -0.6
v -0.3 0.4 -0.6
v -0.1 0.2 -0.6
v -0.1 0.4 -0.6
v 0.1 0.2 -0.6
v 0.1 0.4 -0.6
v 0.3 0.2 -0.6
v 0.3 0.4 -0.6
v 0.5 0.2 -0.6
v 0.5 0.4 -0.6
v -0.7 0 -0.7
v -0.7 0.2 -0.7
v -0.6 0 -0.7
v -0.6 0.2 -0.7
v 0.6 0 -0.7
v 0.6 0.2 -0.7
v 0.7 0 -0.7
v 0.7 0.2 -0.7
v -0.7 0 0.7
v -0.6 0 0.7
v 0.6 0 0.7
v 0.7 0 0.7
v -0.7 0 0.5
v -0.6 0 0.5
v 0.6 0 0.5
v 0.7 0 0.5
v -0.7 0 0.4
v -0.6 0 0.4
v 0.6 0 0.4
v 0.7 0 0.4
v -0.7 0 0.2
v -0.6 0 0.2
v 0.6 0 0.2
v 0.7 0 0.2
v -0.7 0 0.1
v -0.6 0 0.1
v 0.6 0 0.1
v 0.7 0 0.1
v -0.7 0 -0.1
v -0.6 0 -0.1
v 0.6 0 -0.1
v 0.7 0 -0.1
v -0.7 0 -0.2
v -0.6 0 -0.2
v 0.6 0 -0.2
v 0.7 0 -0.2
v -0.7 0 -0.4
v -0.6 0 -0.4
v 0.6 0 -0.4
v 0.7 0 -0.4
v -0.7 0 -0.5
v -0.6 0 -0.5
v 0.6 0 -0.5
v 0.7 0 -0.5
v -0.7 0 -0.7
v -0.6 0 -0.7
v 0.6 0 -0.7
v 0.7 0 -0.7
v -0.5 0.2 0.5
v -0.3 0.2 0.5
v -0.1 0.2 0.5
v 0.1 0.2 0.5
v 0.3 0.2 0.5
v 0.5 0.2 0.5
v -0.5 0.2 0.4
v -0.3 0.2 0.4
v -0.1 0.2 0.4
v 0.1 0.2 0.4
v 0.3 0.2 0.4
v 0.5 0.2 0.4
v -0.5 0.2 0.2
v -0.3 0.2 0.2
v -0.1 0.2 0.2
v 0.1 0.2 0.2
v 0.3 0.2 0.2
v 0.5 0.2 0.2
v -0.5 0.2 0.1
v -0.3 0.2 0.1
v -0.1 0.2 0.1
v 0.1 0.2 0.1
v 0.3 0.2 0.1
v 0.5 0.2 0.1
v -0.5 0.2 -0.1
v -0.3 0.2 -0.1
v -0.1 0.2 -0.1
v 0.1 0.2 -0.1
v 0.3 0.2 -0.1
v 0.5 0.2 -0.1
v -0.5 0.2 -0.2
v -0.3 0.2 -0.2
v -0.1 0.2 -0.2
v 0.1 0.2 -0.2
v 0.3 0.2 -0.2
v 0.5 0.2 -0.2
v -0.5 0.2 -0.4
v -0.3 0.2 -0.4
v -0.1 0.2 -0.4
v 0.1 0.2 -0.4
v 0.3 0.2 -0.4
v 0.5 0.2 -0.4
v -0.5 0.2 -0.5
v -0.3 0.2 -0.5
v -0.1 0.2 -0.5
v 0.1 0.2 -0.5
v 0.3 0.2 -0.5
v 0.5 0.2 -0.5
v -0.3 0.4 0.3
v -0.1 0.4 0.3
v 0.1 0.4 0.3
v 0.3 0.4 0.3
v -0.3 0.4 0.1
v -0.1 0.4 0.1
v 0.1 0.4 0.1
v 0.3 0.4 0.1
v -0.3 0.4 -0.1
v -0.1 0.4 -0.1
v 0.1 0.4 -0.1
v 0.3 0.4 -0.1
v -0.3 0.4 -0.3
v -0.1 0.4 -0.3
v 0.1 0.4 -0.3
v 0.3 0.4 -0.3
v -0.7 0.2 0.7
v -0.6 0.2 0.7
v 0.6 0.2 0.7
v 0.7 0.2 0.7
v -0.5 0.2 0.6
v -0.3 0.2 0.6
v -0.1 0.2 0.6
v 0.1 0.2 0.6
v 0.3 0.2 0.6
v 0.5 0.2 0.6
v -0.7 0.2 0.5
v -0.6 0.2 0.5
v -0.5 0.2 0.5
v -0.3 0.2 0.5
v -0.1 0.2 0.5
v 0.1 0.2 0.5
v 0.3 0.2 0.5
v 0.5 0.2 0.5
v 0.6 0.2 0.5
v 0.7 0.2 0.5
v -0.7 0.2 0.4
v -0.6 0.2 0.4
v -0.5 0.2 0.4
v -0.3 0.2 0.4
v -0.1 0.2 0.4
v 0.1 0.2 0.4
v 0.3 0.2 0.4
v 0.5 0.2 0.4
v 0.6 0.2 0.4
v 0.7 0.2 0.4
v -0.7 0.2 0.2
v -0.6 0.2 0.2
v -0.5 0.2 0.2
v -0.3 0.2 0.2
v -0.1 0.2 0.2
v 0.1 0.2 0.2
v 0.3 0.2 0.2
v 0.5 0.2 0.2
v 0.6 0.2 0.2
v 0.7 0.2 0.2
v -0.7 0.2 0.1
v -0.6 0.2 0.1
v -0.5 0.2 0.1
v -0.3 0.2 0.1
v -0.1 0.2 0.1
v 0.1 0.2 0.1
v 0.3 0.2 0.1
v 0.5 0.2 0.1
v 0.6 0.2 0.1
v 0.7 0.2 0.1
v -0.7 0.2 -0.1
v -0.6 0.2 -0.1
v -0.5 0.2 -0.1
v -0.3 0.2 -0.1
v -0.1 0.2 -0.1
v 0.1 0.2 -0.1
v 0.3 0.2 -0.1
v 0.5 0.2 -0.1
v 0.6 0.2 -0.1
v 0.7 0.2 -0.1
v -0.7 0.2 -0.2
v -0.6 0.2 -0.2
v -0.5 0.2 -0.2
v -0.3 0.2 -0.2
v -0.1 0.2 -0.2
v 0.1 0.2 -0.2
v 0.3 0.2 -0.2
v 0.5 0.2 -0.2
v 0.6 0.2 -0.2
v 0.7 0.2 -0.2
v -0.7 0.2 -0.4
v -0.6 0.2 -0.4
v -0.5 0.2 -0.4
v -0.3 0.2 -0.4
v -0.1 0.2 -0.4
v 0.1 0.2 -0.4
v 0.3 0.2 -0.4
v 0.5 0.2 -0.4
v 0.6 0.2 -0.4
v 0.7 0.2 -0.4
v -0.7 0.2 -0.5
v -0.6 0.2 -0.5
v -0.5 0.2 -0.5
v -0.3 0.2 -0.5
v -0.1 0.2 -0.5
v 0.1 0.2 -0.5
v 0.3 0.2 -0.5
v 0.5 0.2 -0.5
v 0.6 0.2 -0.5
v 0.7 0.2 -0.5
v -0.5 0.2 -0.6
v -0.3 0.2 -0.6
v -0.1 0.2 -0.6
v 0.1 0.2 -0.6
v 0.3 0.2 -0.6
v 0.5 0.2 -0.6
v -0.7 0.2 -0.7
v -0.6 0.2 -0.7
v 0.6 0.2 -0.7
v 0.7 0.2 -0.7
v -0.5 0.4 0.6
v -0.3 0.4 0.6
v -0.1 0.4 0.6
v 0.1 0.4 0.6
v 0.3 0.4 0.6
v 0.5 0.4 0.6
v -0.5 0.4 0.5
v -0.3 0.4 0.5
v -0.1 0.4 0.5
v 0.1 0.4 0.5
v 0.3 0.4 0.5
v 0.5 0.4 0.5
v -0.5 0.4 0.3
v -0.4 0.4 0.3
v -0.3 0.4 0.3
v -0.1 0.4 0.3
v 0.1 0.4 0.3
v 0.3 0.4 0.3
v 0.4 0.4 0.3
v 0.5 0.4 0.3
v -0.5 0.4 0.1
v -0.4 0.4 0.1
v -0.3 0.4 0.1
v -0.1 0.4 0.1
v 0.1 0.4 0.1
v 0.3 0.4 0.1
v 0.4 0.4 0.1
v 0.5 0.4 0.1
v -0.5 0.4 -0.1
v -0.4 0.4 -0.1
v -0.3 0.4 -0.1
v -0.1 0.4 -0.1
v 0.1 0.4 -0.1
v 0.3 0.4 -0.1
v 0.4 0.4 -0.1
v 0.5 0.4 -0.1
v -0.5 0.4 -0.3
v -0.4 0.4 -0.3
v -0.3 0.4 -0.3
v -0.1 0.4 -0.3
v 0.1 0.4 -0.3
v 0.3 0.4 -0.3
v 0.4 0.4 -0.3
v 0.5 0.4 -0.3
v -0.5 0.4 -0.5
v -0.3 0.4 -0.5
v -0.1 0.4 -0.5
v 0.1 0.4 -0.5
v 0.3 0.4 -0.5
v 0.5 0.4 -0.5
v -0.5 0.4 -0.6
v -0.3 0.4 -0.6
v -0.1 0.4 -0.6
v 0.1 0.4 -0.6
v 0.3 0.4 -0.6
v 0.5 0.4 -0.6
v -0.5 0.6 0.3
v -0.4 0.6 0.3
v 0.4 0.6 0.3
v 0.5 0.6 0.3
v -0.5 0.6 0.1
v -0.4 0.6 0.1
v 0.4 0.6 0.1
v 0.5 0.6 0.1
v -0.5 0.6 -0.1
v -0.4 0.6 -0.1
v 0.4 0.6 -0.1
v 0.5 0.6 -0.1
v -0.5 0.6 -0.3
v -0.4 0.6 -0.3
v 0.4 0.6 -0.3
v 0.5 0.6 -0.3

# faces
f 11/2/1 2/2/1 1/2/1
f 12/2/1 2/2/1 11/2/1
f 13/2/1 4/2/1 3/2/1
f 14/2/1 4/2/1 13/2/1
f 15/2/1 6/2/1 5/2/1
f 16/2/1 6/2/1 15/2/1
f 17/2/1 8/2/1 7/2/1
f 18/2/1 8/2/1 17/2/1
f 19/2/1 10/2/1 9/2/1
f 20/2/1 10/2/1 19/2/1
f 31/2/1 22/2/1 21/2/1
f 32/1/1 23/1/1 22/1/1
f 32/2/1 22/2/1 31/2/1
f 32/1/1 24/1/1 23/1/1
f 32/1/1 29/1/1 28/1/1
f 32/1/1 28/1/1 27/1/1
f 32/1/1 27/1/1 26/1/1
f 32/1/1 26/1/1 25/1/1
f 32/1/1 25/1/1 24/1/1
f 33/1/1 29/1/1 32/1/1
f 34/1/1 29/1/1 33/1/1
f 35/1/1 29/1/1 34/1/1
f 36/1/1 29/1/1 35/1/1
f 37/2/1 30/2/1 29/2/1
f 37/1/1 29/1/1 36/1/1
f 38/2/1 30/2/1 37/2/1
f 39/2/1 34/2/1 33/2/1
f 40/2/1 34/2/1 39/2/1
f 41/2/1 36/2/1 35/2/1
f 42/2/1 36/2/1 41/2/1
f 53/2/1 44/2/1 43/2/1
f 54/1/1 45/1/1 44/1/1
f 54/2/1 44/2/1 53/2/1
f 54/1/1 46/1/1 45/1/1
f 54/1/1 51/1/1 50/1/1
f 54/1/1 50/1/1 49/1/1
f 54/1/1 49/1/1 48/1/1
f 54/1/1 48/1/1 47/1/1
f 54/1/1 47/1/1 46/1/1
f 55/1/1 51/1/1 54/1/1
f 56/1/1 51/1/1 55/1/1
f 57/1/1 51/1/1 56/1/1
f 58/1/1 51/1/1 57/1/1
f 59/2/1 52/2/1 51/2/1
f 59/1/1 51/1/1 58/1/1
f 60/2/1 52/2/1 59/2/1
f 71/2/1 62/2/1 61/2/1
f 72/1/1 63/1/1 62/1/1
f 72/2/1 62/2/1 71/2/1
f 72/1/1 64/1/1 63/1/1
f 72/1/1 69/1/1 68/1/1
f 72/1/1 68/1/1 67/1/1
f 72/1/1 67/1/1 66/1/1
f 72/1/1 66/1/1 65/1/1
f 72/1/1 65/1/1 64/1/1
f 73/1/1 69/1/1 72/1/1
f 74/1/1 69/1/1 73/1/1
f 75/1/1 69/1/1 74/1/1
f 76/1/1 69/1/1 75/1/1
f 77/2/1 70/2/1 69/2/1
f 77/1/1 69/1/1 76/1/1
f 78/2/1 70/2/1 77/2/1
f 79/2/2 80/2/2 89/2/2
f 80/1/2 81/1/2 90/1/2
f 89/2/2 80/2/2 90/2/2
f 81/1/2 82/1/2 90/1/2
f 86/1/2 87/1/2 90/1/2
f 85/1/2 86/1/2 90/1/2
f 84/1/2 85/1/2 90/1/2
f 83/1/2 84/1/2 90/1/2
f 82/1/2 83/1/2 90/1/2
f 90/1/2 87/1/2 91/1/2
f 91/1/2 87/1/2 92/1/2
f 92/1/2 87/1/2 93/1/2
f 93/1/2 87/1/2 94/1/2
f 87/2/2 88/2/2 95/2/2
f 94/1/2 87/1/2 95/1/2
f 95/2/2 88/2/2 96/2/2
f 97/2/2 98/2/2 107/2/2
f 98/1/2 99/1/2 108/1/2
f 107/2/2 98/2/2 108/2/2
f 99/1/2 100/1/2 108/1/2
f 104/1/2 105/1/2 108/1/2
f 103/1/2 104/1/2 108/1/2
f 102/1/2 103/1/2 108/1/2
f 101/1/2 102/1/2 108/1/2
f 100/1/2 101/1/2 108/1/2
f 108/1/2 105/1/2 109/1/2
f 109/1/2 105/1/2 110/1/2
f 110/1/2 105/1/2 111/1/2
f 111/1/2 105/1/2 112/1/2
f 105/2/2 106/2/2 113/2/2
f 112/1/2 105/1/2 113/1/2
f 113/2/2 106/2/2 114/2/2
f 115/2/2 116/2/2 125/2/2
f 116/1/2 117/1/2 126/1/2
f 125/2/2 116/2/2 126/2/2
f 117/1/2 118/1/2 126/1/2
f 122/1/2 123/1/2 126/1/2
f 121/1/2 122/1/2 126/1/2
f 120/1/2 121/1/2 126/1/2
f 119/1/2 120/1/2 126/1/2
f 118/1/2 119/1/2 126/1/2
f 126/1/2 123/1/2 127/1/2
f 127/1/2 123/1/2 128/1/2
f 128/1/2 123/1/2 129/1/2
f 129/1/2 123/1/2 130/1/2
f 123/2/2 124/2/2 131/2/2
f 130/1/2 123/1/2 131/1/2
f 131/2/2 124/2/2 132/2/2
f 127/2/2 128/2/2 133/2/2
f 133/2/2 128/2/2 134/2/2
f 129/2/2 130/2/2 135/2/2
f 135/2/2 130/2/2 136/2/2
f 137/2/2 138/2/2 147/2/2
f 147/2/2 138/2/2 148/2/2
f 139/2/2 140/2/2 149/2/2
f 149/2/2 140/2/2 150/2/2
f 141/2/2 142/2/2 151/2/2
f 151/2/2 142/2/2 152/2/2
f 143/2/2 144/2/2 153/2/2
f 153/2/2 144/2/2 154/2/2
f 145/2/2 146/2/2 155/2/2
f 155/2/2 146/2/2 156/2/2
f 159/2/3 158/2/3 157/2/3
f 160/2/3 158/2/3 159/2/3
f 161/1/3 160/1/3 159/1/3
f 162/1/3 160/1/3 161/1/3
f 163/2/3 162/2/3 161/2/3
f 164/2/3 162/2/3 163/2/3
f 167/2/3 166/2/3 165/2/3
f 168/2/3 166/2/3 167/2/3
f 171/2/3 170/2/3 169/2/3
f 172/2/3 170/2/3 171/2/3
f 175/2/3 174/2/3 173/2/3
f 176/2/3 174/2/3 175/2/3
f 179/2/3 178/2/3 177/2/3
f 180/2/3 178/2/3 179/2/3
f 181/1/3 180/1/3 179/1/3
f 182/1/3 181/1/3 179/1/3
f 183/1/3 182/1/3 179/1/3
f 184/1/3 183/1/3 179/1/3
f 185/1/3 184/1/3 179/1/3
f 186/1/3 185/1/3 179/1/3
f 187/1/3 186/1/3 179/1/3
f 188/1/3 186/1/3 187/1/3
f 189/2/3 188/2/3 187/2/3
f 190/2/3 188/2/3 189/2/3
f 193/2/3 192/2/3 191/2/3
f 194/2/3 192/2/3 193/2/3
f 195/1/3 194/1/3 193/1/3
f 196/1/3 194/1/3 195/1/3
f 197/1/3 194/1/3 196/1/3
f 198/1/3 194/1/3 197/1/3
f 199/1/3 194/1/3 198/1/3
f 200/1/3 194/1/3 199/1/3
f 201/2/3 200/2/3 199/2/3
f 202/2/3 200/2/3 201/2/3
f 205/2/3 204/2/3 203/2/3
f 206/2/3 204/2/3 205/2/3
f 207/1/3 206/1/3 205/1/3
f 208/1/3 207/1/3 205/1/3
f 209/1/3 208/1/3 205/1/3
f 210/1/3 209/1/3 205/1/3
f 211/1/3 210/1/3 205/1/3
f 212/1/3 211/1/3 205/1/3
f 213/1/3 212/1/3 205/1/3
f 214/1/3 212/1/3 213/1/3
f 215/2/3 214/2/3 213/2/3
f 216/2/3 214/2/3 215/2/3
f 219/2/3 218/2/3 217/2/3
f 220/2/3 218/2/3 219/2/3
f 221/1/3 220/1/3 219/1/3
f 222/1/3 220/1/3 221/1/3
f 223/1/3 220/1/3 222/1/3
f 224/1/3 220/1/3 223/1/3
f 225/1/3 220/1/3 224/1/3
f 226/1/3 220/1/3 225/1/3
f 227/2/3 226/2/3 225/2/3
f 228/2/3 226/2/3 227/2/3
f 231/2/3 230/2/3 229/2/3
f 232/2/3 230/2/3 231/2/3
f 233/1/3 232/1/3 231/1/3
f 234/1/3 233/1/3 231/1/3
f 235/1/3 234/1/3 231/1/3
f 236/1/3 235/1/3 231/1/3
f 237/1/3 236/1/3 231/1/3
f 238/1/3 237/1/3 231/1/3
f 239/1/3 238/1/3 231/1/3
f 240/1/3 238/1/3 239/1/3
f 241/2/3 240/2/3 239/2/3
f 242/2/3 240/2/3 241/2/3
f 245/2/3 244/2/3 243/2/3
f 246/2/3 244/2/3 245/2/3
f 247/1/3 246/1/3 245/1/3
f 248/1/3 247/1/3 245/1/3
f 249/1/3 248/1/3 245/1/3
f 250/1/3 249/1/3 245/1/3
f 251/1/3 250/1/3 245/1/3
f 252/1/3 251/1/3 245/1/3
f 253/1/3 252/1/3 245/1/3
f 254/1/3 252/1/3 253/1/3
f 255/2/3 254/2/3 253/2/3
f 256/2/3 254/2/3 255/2/3
f 257/2/4 258/2/4 259/2/4
f 259/2/4 258/2/4 260/2/4
f 259/1/4 260/1/4 261/1/4
f 259/1/4 261/1/4 262/1/4
f 259/1/4 262/1/4 263/1/4
f 259/1/4 263/1/4 264/1/4
f 259/1/4 264/1/4 265/1/4
f 259/1/4 265/1/4 266/1/4
f 259/1/4 266/1/4 267/1/4
f 267/1/4 266/1/4 268/1/4
f 267/2/4 268/2/4 269/2/4
f 269/2/4 268/2/4 270/2/4
f 271/2/4 272/2/4 273/2/4
f 273/2/4 272/2/4 274/2/4
f 273/1/4 274/1/4 275/1/4
f 273/1/4 275/1/4 276/1/4
f 273/1/4 276/1/4 277/1/4
f 273/1/4 277/1/4 278/1/4
f 273/1/4 278/1/4 279/1/4
f 273/1/4 279/1/4 280/1/4
f 273/1/4 280/1/4 281/1/4
f 281/1/4 280/1/4 282/1/4
f 281/2/4 282/2/4 283/2/4
f 283/2/4 282/2/4 284/2/4
f 285/2/4 286/2/4 287/2/4
f 287/2/4 286/2/4 288/2/4
f 287/1/4 288/1/4 289/1/4
f 289/1/4 288/1/4 290/1/4
f 290/1/4 288/1/4 291/1/4
f 291/1/4 288/1/4 292/1/4
f 292/1/4 288/1/4 293/1/4
f 293/1/4 288/1/4 294/1/4
f 293/2/4 294/2/4 295/2/4
f 295/2/4 294/2/4 296/2/4
f 297/2/4 298/2/4 299/2/4
f 299/2/4 298/2/4 300/2/4
f 299/1/4 300/1/4 301/1/4
f 299/1/4 301/1/4 302/1/4
f 299/1/4 302/1/4 303/1/4
f 299/1/4 303/1/4 304/1/4
f 299/1/4 304/1/4 305/1/4
f 299/1/4 305/1/4 306/1/4
f 299/1/4 306/1/4 307/1/4
f 307/1/4 306/1/4 308/1/4
f 307/2/4 308/2/4 309/2/4
f 309/2/4 308/2/4 310/2/4
f 311/2/4 312/2/4 313/2/4
f 313/2/4 312/2/4 314/2/4
f 313/1/4 314/1/4 315/1/4
f 315/1/4 314/1/4 316/1/4
f 316/1/4 314/1/4 317/1/4
f 317/1/4 314/1/4 318/1/4
f 318/1/4 314/1/4 319/1/4
f 319/1/4 314/1/4 320/1/4
f 319/2/4 320/2/4 321/2/4
f 321/2/4 320/2/4 322/2/4
f 323/2/4 324/2/4 325/2/4
f 325/2/4 324/2/4 326/2/4
f 325/1/4 326/1/4 327/1/4
f 325/1/4 327/1/4 328/1/4
f 325/1/4 328/1/4 329/1/4
f 325/1/4 329/1/4 330/1/4
f 325/1/4 330/1/4 331/1/4
f 325/1/4 331/1/4 332/1/4
f 325/1/4 332/1/4 333/1/4
f 333/1/4 332/1/4 334/1/4
f 333/2/4 334/2/4 335/2/4
f 335/2/4 334/2/4 336/2/4
f 337/2/4 338/2/4 339/2/4
f 339/2/4 338/2/4 340/2/4
f 341/2/4 342/2/4 343/2/4
f 343/2/4 342/2/4 344/2/4
f 345/2/4 346/2/4 347/2/4
f 347/2/4 346/2/4 348/2/4
f 349/2/4 350/2/4 351/2/4
f 351/2/4 350/2/4 352/2/4
f 351/1/4 352/1/4 353/1/4
f 353/1/4 352/1/4 354/1/4
f 353/2/4 354/2/4 355/2/4
f 355/2/4 354/2/4 356/2/4
f 361/2/5 358/2/5 357/2/5
f 362/1/5 359/1/5 358/1/5
f 362/2/5 358/2/5 361/2/5
f 363/2/5 360/2/5 359/2/5
f 363/1/5 359/1/5 362/1/5
f 364/2/5 360/2/5 363/2/5
f 369/2/5 366/2/5 365/2/5
f 370/1/5 367/1/5 366/1/5
f 370/2/5 366/2/5 369/2/5
f 371/2/5 368/2/5 367/2/5
f 371/1/5 367/1/5 370/1/5
f 372/2/5 368/2/5 371/2/5
f 377/2/5 374/2/5 373/2/5
f 378/1/5 375/1/5 374/1/5
f 378/2/5 374/2/5 377/2/5
f 379/2/5 376/2/5 375/2/5
f 379/1/5 375/1/5 378/1/5
f 380/2/5 376/2/5 379/2/5
f 385/2/5 382/2/5 381/2/5
f 386/1/5 383/1/5 382/1/5
f 386/2/5 382/2/5 385/2/5
f 387/2/5 384/2/5 383/2/5
f 387/1/5 383/1/5 386/1/5
f 388/2/5 384/2/5 387/2/5
f 393/2/5 390/2/5 389/2/5
f 394/1/5 391/1/5 390/1/5
f 394/2/5 390/2/5 393/2/5
f 395/2/5 392/2/5 391/2/5
f 395/1/5 391/1/5 394/1/5
f 396/2/5 392/2/5 395/2/5
f 403/1/5 398/1/5 397/1/5
f 404/1/5 398/1/5 403/1/5
f 405/1/5 400/1/5 399/1/5
f 406/1/5 400/1/5 405/1/5
f 407/1/5 402/1/5 401/1/5
f 408/1/5 402/1/5 407/1/5
f 415/1/5 410/1/5 409/1/5
f 416/1/5 410/1/5 415/1/5
f 417/1/5 412/1/5 411/1/5
f 418/1/5 412/1/5 417/1/5
f 419/1/5 414/1/5 413/1/5
f 420/1/5 414/1/5 419/1/5
f 427/1/5 422/1/5 421/1/5
f 428/1/5 422/1/5 427/1/5
f 429/1/5 424/1/5 423/1/5
f 430/1/5 424/1/5 429/1/5
f 431/1/5 426/1/5 425/1/5
f 432/1/5 426/1/5 431/1/5
f 439/1/5 434/1/5 433/1/5
f 440/1/5 434/1/5 439/1/5
f 441/1/5 436/1/5 435/1/5
f 442/1/5 436/1/5 441/1/5
f 443/1/5 438/1/5 437/1/5
f 444/1/5 438/1/5 443/1/5
f 449/1/5 446/1/5 445/1/5
f 450/1/5 446/1/5 449/1/5
f 451/1/5 448/1/5 447/1/5
f 452/1/5 448/1/5 451/1/5
f 457/1/5 454/1/5 453/1/5
f 458/1/5 454/1/5 457/1/5
f 459/1/5 456/1/5 455/1/5
f 460/1/5 456/1/5 459/1/5
f 462/1/6 463/1/6 465/1/6
f 465/1/6 463/1/6 466/1/6
f 466/1/6 463/1/6 467/1/6
f 467/1/6 463/1/6 468/1/6
f 468/1/6 463/1/6 469/1/6
f 469/1/6 463/1/6 470/1/6
f 461/2/6 462/2/6 471/2/6
f 462/1/6 465/1/6 472/1/6
f 471/2/6 462/2/6 472/2/6
f 472/1/6 465/1/6 473/1/6
f 466/1/6 467/1/6 474/1/6
f 474/1/6 467/1/6 475/1/6
f 468/1/6 469/1/6 476/1/6
f 476/1/6 469/1/6 477/1/6
f 470/1/6 463/1/6 478/1/6
f 463/2/6 464/2/6 479/2/6
f 478/1/6 463/1/6 479/1/6
f 479/2/6 464/2/6 480/2/6
f 481/2/6 482/2/6 491/2/6
f 482/1/6 483/1/6 492/1/6
f 491/2/6 482/2/6 492/2/6
f 492/1/6 483/1/6 493/1/6
f 484/1/6 485/1/6 494/1/6
f 494/1/6 485/1/6 495/1/6
f 486/1/6 487/1/6 496/1/6
f 496/1/6 487/1/6 497/1/6
f 488/1/6 489/1/6 498/1/6
f 489/2/6 490/2/6 499/2/6
f 498/1/6 489/1/6 499/1/6
f 499/2/6 490/2/6 500/2/6
f 501/2/6 502/2/6 511/2/6
f 502/1/6 503/1/6 512/1/6
f 511/2/6 502/2/6 512/2/6
f 512/1/6 503/1/6 513/1/6
f 504/1/6 505/1/6 514/1/6
f 514/1/6 505/1/6 515/1/6
f 506/1/6 507/1/6 516/1/6
f 516/1/6 507/1/6 517/1/6
f 508/1/6 509/1/6 518/1/6
f 509/2/6 510/2/6 519/2/6
f 518/1/6 509/1/6 519/1/6
f 519/2/6 510/2/6 520/2/6
f 521/2/6 522/2/6 531/2/6
f 522/1/6 523/1/6 532/1/6
f 531/2/6 522/2/6 532/2/6
f 532/1/6 523/1/6 533/1/6
f 524/1/6 525/1/6 534/1/6
f 534/1/6 525/1/6 535/1/6
f 526/1/6 527/1/6 536/1/6
f 536/1/6 527/1/6 537/1/6
f 528/1/6 529/1/6 538/1/6
f 529/2/6 530/2/6 539/2/6
f 538/1/6 529/1/6 539/1/6
f 539/2/6 530/2/6 540/2/6
f 542/1/6 543/1/6 551/1/6
f 544/1/6 545/1/6 552/1/6
f 552/1/6 545/1/6 553/1/6
f 546/1/6 547/1/6 554/1/6
f 554/1/6 547/1/6 555/1/6
f 548/1/6 549/1/6 556/1/6
f 541/2/6 542/2/6 557/2/6
f 555/1/6 556/1/6 558/1/6
f 557/2/6 542/2/6 558/2/6
f 542/1/6 551/1/6 558/1/6
f 552/1/6 553/1/6 558/1/6
f 554/1/6 555/1/6 558/1/6
f 553/1/6 554/1/6 558/1/6
f 551/1/6 552/1/6 558/1/6
f 549/2/6 550/2/6 559/2/6
f 558/1/6 556/1/6 559/1/6
f 556/1/6 549/1/6 559/1/6
f 559/2/6 550/2/6 560/2/6
f 561/2/6 562/2/6 567/2/6
f 567/2/6 562/2/6 568/2/6
f 563/2/6 564/2/6 569/2/6
f 569/2/6 564/2/6 570/2/6
f 565/2/6 566/2/6 571/2/6
f 571/2/6 566/2/6 572/2/6
f 567/1/6 568/1/6 573/1/6
f 573/1/6 568/1/6 574/1/6
f 574/1/6 568/1/6 575/1/6
f 569/1/6 570/1/6 576/1/6
f 576/1/6 570/1/6 577/1/6
f 571/1/6 572/1/6 578/1/6
f 578/1/6 572/1/6 579/1/6
f 579/1/6 572/1/6 580/1/6
f 581/1/6 582/1/6 589/1/6
f 582/1/6 583/1/6 589/1/6
f 589/1/6 583/1/6 590/1/6
f 590/1/6 583/1/6 591/1/6
f 584/1/6 585/1/6 592/1/6
f 592/1/6 585/1/6 593/1/6
f 587/1/6 588/1/6 594/1/6
f 586/1/6 587/1/6 594/1/6
f 594/1/6 588/1/6 595/1/6
f 595/1/6 588/1/6 596/1/6
f 597/1/6 598/1/6 605/1/6
f 598/1/6 599/1/6 605/1/6
f 605/1/6 599/1/6 606/1/6
f 600/1/6 601/1/6 607/1/6
f 607/1/6 601/1/6 608/1/6
f 603/1/6 604/1/6 609/1/6
f 602/1/6 603/1/6 609/1/6
f 609/1/6 604/1/6 610/1/6
f 605/2/6 606/2/6 611/2/6
f 611/2/6 606/2/6 612/2/6
f 607/2/6 608/2/6 613/2/6
f 613/2/6 608/2/6 614/2/6
f 609/2/6 610/2/6 615/2/6
f 615/2/6 610/2/6 616/2/6
f 617/2/6 618/2/6 621/2/6
f 618/1/6 619/1/6 622/1/6
f 621/2/6 618/2/6 622/2/6
f 619/2/6 620/2/6 623/2/6
f 622/1/6 619/1/6 623/1/6
f 623/2/6 620/2/6 624/2/6
f 625/2/6 626/2/6 629/2/6
f 626/1/6 627/1/6 630/1/6
f 629/2/6 626/2/6 630/2/6
f 627/2/6 628/2/6 631/2/6
f 630/1/6 627/1/6 631/1/6
f 631/2/6 628/2/6 632/2/6
