# MagicaVoxel @ Ephtracy

# group
o 

# material
mtllib head.mtl
usemtl palette

# normals
vn -1 0 0
vn 1 0 0
vn 0 0 1
vn 0 0 -1
vn 0 -1 0
vn 0 1 0

# texcoords
vt 0.751953 0.5
vt 0.908203 0.5
vt 0.912109 0.5
vt 0.916016 0.5
vt 0.919922 0.5
vt 0.970703 0.5

# verts
v -0.4 0.2 0.1
v -0.4 0.2 0
v -0.4 0.4 0.1
v -0.4 0.4 0
v -0.4 0.8 0.4
v -0.4 0.8 -0.4
v -0.4 1 0.4
v -0.4 1 -0.4
v -0.3 0 0.3
v -0.3 0 -0.2
v -0.3 0 -0.3
v -0.3 0.2 0.1
v -0.3 0.2 0
v -0.3 0.2 -0.2
v -0.3 0.4 0.1
v -0.3 0.4 0
v -0.3 0.5 0.2
v -0.3 0.5 0.1
v -0.3 0.6 0.3
v -0.3 0.6 0.2
v -0.3 0.6 -0.3
v -0.3 0.8 0.3
v -0.3 0.8 -0.3
v 0.2 0.6 0.2
v 0.2 0.6 -0.2
v 0.2 0.8 0.2
v 0.2 0.8 -0.2
v 0.3 0.8 0.3
v 0.3 0.8 -0.3
v 0.3 0.9 0.3
v 0.3 0.9 -0.3
v -0.3 0.8 0.3
v -0.3 0.8 -0.3
v -0.3 0.9 0.3
v -0.3 0.9 -0.3
v -0.2 0.6 0.2
v -0.2 0.6 -0.2
v -0.2 0.8 0.2
v -0.2 0.8 -0.2
v 0.3 0 0.3
v 0.3 0 -0.2
v 0.3 0 -0.3
v 0.3 0.2 0.1
v 0.3 0.2 0
v 0.3 0.2 -0.2
v 0.3 0.4 0.1
v 0.3 0.4 0
v 0.3 0.5 0.2
v 0.3 0.5 0.1
v 0.3 0.6 0.3
v 0.3 0.6 0.2
v 0.3 0.6 -0.3
v 0.3 0.8 0.3
v 0.3 0.8 -0.3
v 0.4 0.2 0.1
v 0.4 0.2 0
v 0.4 0.4 0.1
v 0.4 0.4 0
v 0.4 0.8 0.4
v 0.4 0.8 -0.4
v 0.4 1 0.4
v 0.4 1 -0.4
v -0.4 0.8 0.4
v -0.4 1 0.4
v 0.4 0.8 0.4
v 0.4 1 0.4
v -0.3 0 0.3
v -0.3 0.6 0.3
v -0.3 0.8 0.3
v -0.2 0.3 0.3
v -0.2 0.5 0.3
v -0.1 0.1 0.3
v -0.1 0.2 0.3
v -0.1 0.3 0.3
v -0.1 0.5 0.3
v 0.1 0.1 0.3
v 0.1 0.2 0.3
v 0.1 0.3 0.3
v 0.1 0.5 0.3
v 0.2 0.3 0.3
v 0.2 0.5 0.3
v 0.3 0 0.3
v 0.3 0.6 0.3
v 0.3 0.8 0.3
v -0.4 0.2 0.1
v -0.4 0.4 0.1
v -0.3 0.2 0.1
v -0.3 0.4 0.1
v 0.3 0.2 0.1
v 0.3 0.4 0.1
v 0.4 0.2 0.1
v 0.4 0.4 0.1
v -0.2 0.6 -0.2
v -0.2 0.8 -0.2
v 0.2 0.6 -0.2
v 0.2 0.8 -0.2
v -0.3 0.8 -0.3
v -0.3 0.9 -0.3
v 0.3 0.8 -0.3
v 0.3 0.9 -0.3
v -0.3 0.8 0.3
v -0.3 0.9 0.3
v 0.3 0.8 0.3
v 0.3 0.9 0.3
v -0.2 0.6 0.2
v -0.2 0.8 0.2
v 0.2 0.6 0.2
v 0.2 0.8 0.2
v -0.4 0.2 0
v -0.4 0.4 0
v -0.3 0.2 0
v -0.3 0.4 0
v 0.3 0.2 0
v 0.3 0.4 0
v 0.4 0.2 0
v 0.4 0.4 0
v -0.3 0 -0.3
v -0.3 0.6 -0.3
v -0.3 0.8 -0.3
v 0.3 0 -0.3
v 0.3 0.6 -0.3
v 0.3 0.8 -0.3
v -0.4 0.8 -0.4
v -0.4 1 -0.4
v 0.4 0.8 -0.4
v 0.4 1 -0.4
v -0.3 0 0.3
v 0.3 0 0.3
v -0.3 0 -0.2
v 0.3 0 -0.2
v -0.3 0 -0.3
v 0.3 0 -0.3
v -0.4 0.2 0.1
v -0.3 0.2 0.1
v 0.3 0.2 0.1
v 0.4 0.2 0.1
v -0.4 0.2 0
v -0.3 0.2 0
v 0.3 0.2 0
v 0.4 0.2 0
v -0.4 0.8 0.4
v 0.4 0.8 0.4
v -0.3 0.8 0.3
v 0.3 0.8 0.3
v -0.3 0.8 -0.3
v 0.3 0.8 -0.3
v -0.4 0.8 -0.4
v 0.4 0.8 -0.4
v -0.3 0.9 0.3
v 0.3 0.9 0.3
v -0.3 0.9 -0.3
v 0.3 0.9 -0.3
v -0.4 0.4 0.1
v -0.3 0.4 0.1
v 0.3 0.4 0.1
v 0.4 0.4 0.1
v -0.4 0.4 0
v -0.3 0.4 0
v 0.3 0.4 0
v 0.4 0.4 0
v -0.2 0.6 0.2
v 0.2 0.6 0.2
v -0.2 0.6 -0.2
v 0.2 0.6 -0.2
v -0.3 0.8 0.3
v 0.3 0.8 0.3
v -0.2 0.8 0.2
v 0.2 0.8 0.2
v -0.2 0.8 -0.2
v 0.2 0.8 -0.2
v -0.3 0.8 -0.3
v 0.3 0.8 -0.3
v -0.4 1 0.4
v 0.4 1 0.4
v -0.4 1 -0.4
v 0.4 1 -0.4

# faces
f 3/2/1 2/2/1 1/2/1
f 4/2/1 2/2/1 3/2/1
f 7/1/1 6/1/1 5/1/1
f 8/1/1 6/1/1 7/1/1
f 12/6/1 10/6/1 9/6/1
f 13/6/1 10/6/1 12/6/1
f 14/5/1 11/5/1 10/5/1
f 14/6/1 10/6/1 13/6/1
f 15/6/1 12/6/1 9/6/1
f 16/5/1 14/5/1 13/5/1
f 17/6/1 15/6/1 9/6/1
f 18/5/1 16/5/1 15/5/1
f 18/6/1 15/6/1 17/6/1
f 19/6/1 17/6/1 9/6/1
f 20/5/1 18/5/1 17/5/1
f 20/6/1 17/6/1 19/6/1
f 21/5/1 11/5/1 14/5/1
f 21/5/1 18/5/1 20/5/1
f 21/5/1 16/5/1 18/5/1
f 21/5/1 14/5/1 16/5/1
f 22/1/1 20/1/1 19/1/1
f 22/1/1 21/1/1 20/1/1
f 23/1/1 21/1/1 22/1/1
f 26/1/1 25/1/1 24/1/1
f 27/1/1 25/1/1 26/1/1
f 30/1/1 29/1/1 28/1/1
f 31/1/1 29/1/1 30/1/1
f 32/1/2 33/1/2 34/1/2
f 34/1/2 33/1/2 35/1/2
f 36/1/2 37/1/2 38/1/2
f 38/1/2 37/1/2 39/1/2
f 40/6/2 41/6/2 43/6/2
f 43/6/2 41/6/2 44/6/2
f 41/5/2 42/5/2 45/5/2
f 44/6/2 41/6/2 45/6/2
f 40/6/2 43/6/2 46/6/2
f 44/5/2 45/5/2 47/5/2
f 40/6/2 46/6/2 48/6/2
f 46/5/2 47/5/2 49/5/2
f 48/6/2 46/6/2 49/6/2
f 40/6/2 48/6/2 50/6/2
f 48/5/2 49/5/2 51/5/2
f 50/6/2 48/6/2 51/6/2
f 45/5/2 42/5/2 52/5/2
f 51/5/2 49/5/2 52/5/2
f 49/5/2 47/5/2 52/5/2
f 47/5/2 45/5/2 52/5/2
f 50/1/2 51/1/2 53/1/2
f 51/1/2 52/1/2 53/1/2
f 53/1/2 52/1/2 54/1/2
f 55/2/2 56/2/2 57/2/2
f 57/2/2 56/2/2 58/2/2
f 59/1/2 60/1/2 61/1/2
f 61/1/2 60/1/2 62/1/2
f 65/1/3 64/1/3 63/1/3
f 66/1/3 64/1/3 65/1/3
f 70/6/3 68/6/3 67/6/3
f 71/6/3 68/6/3 70/6/3
f 72/6/3 70/6/3 67/6/3
f 73/6/3 70/6/3 72/6/3
f 74/4/3 71/4/3 70/4/3
f 74/6/3 70/6/3 73/6/3
f 75/6/3 68/6/3 71/6/3
f 75/4/3 71/4/3 74/4/3
f 76/3/3 73/3/3 72/3/3
f 76/6/3 72/6/3 67/6/3
f 77/2/3 74/2/3 73/2/3
f 77/3/3 73/3/3 76/3/3
f 78/6/3 75/6/3 74/6/3
f 78/2/3 74/2/3 77/2/3
f 79/6/3 68/6/3 75/6/3
f 79/6/3 75/6/3 78/6/3
f 80/6/3 78/6/3 77/6/3
f 80/6/3 77/6/3 76/6/3
f 80/4/3 79/4/3 78/4/3
f 81/6/3 68/6/3 79/6/3
f 81/4/3 79/4/3 80/4/3
f 82/6/3 76/6/3 67/6/3
f 82/6/3 80/6/3 76/6/3
f 82/6/3 81/6/3 80/6/3
f 83/1/3 69/1/3 68/1/3
f 83/6/3 81/6/3 82/6/3
f 83/6/3 68/6/3 81/6/3
f 84/1/3 69/1/3 83/1/3
f 87/2/3 86/2/3 85/2/3
f 88/2/3 86/2/3 87/2/3
f 91/2/3 90/2/3 89/2/3
f 92/2/3 90/2/3 91/2/3
f 95/1/3 94/1/3 93/1/3
f 96/1/3 94/1/3 95/1/3
f 99/1/3 98/1/3 97/1/3
f 100/1/3 98/1/3 99/1/3
f 101/1/4 102/1/4 103/1/4
f 103/1/4 102/1/4 104/1/4
f 105/1/4 106/1/4 107/1/4
f 107/1/4 106/1/4 108/1/4
f 109/2/4 110/2/4 111/2/4
f 111/2/4 110/2/4 112/2/4
f 113/2/4 114/2/4 115/2/4
f 115/2/4 114/2/4 116/2/4
f 117/5/4 118/5/4 120/5/4
f 118/1/4 119/1/4 121/1/4
f 120/5/4 118/5/4 121/5/4
f 121/1/4 119/1/4 122/1/4
f 123/1/4 124/1/4 125/1/4
f 125/1/4 124/1/4 126/1/4
f 129/6/5 128/6/5 127/6/5
f 130/6/5 128/6/5 129/6/5
f 131/5/5 130/5/5 129/5/5
f 132/5/5 130/5/5 131/5/5
f 137/2/5 134/2/5 133/2/5
f 138/2/5 134/2/5 137/2/5
f 139/2/5 136/2/5 135/2/5
f 140/2/5 136/2/5 139/2/5
f 143/1/5 142/1/5 141/1/5
f 144/1/5 142/1/5 143/1/5
f 145/1/5 143/1/5 141/1/5
f 146/1/5 142/1/5 144/1/5
f 147/1/5 145/1/5 141/1/5
f 147/1/5 146/1/5 145/1/5
f 148/1/5 142/1/5 146/1/5
f 148/1/5 146/1/5 147/1/5
f 151/1/5 150/1/5 149/1/5
f 152/1/5 150/1/5 151/1/5
f 153/2/6 154/2/6 157/2/6
f 157/2/6 154/2/6 158/2/6
f 155/2/6 156/2/6 159/2/6
f 159/2/6 156/2/6 160/2/6
f 161/6/6 162/6/6 163/6/6
f 163/6/6 162/6/6 164/6/6
f 165/1/6 166/1/6 167/1/6
f 167/1/6 166/1/6 168/1/6
f 165/1/6 167/1/6 169/1/6
f 168/1/6 166/1/6 170/1/6
f 165/1/6 169/1/6 171/1/6
f 169/1/6 170/1/6 171/1/6
f 170/1/6 166/1/6 172/1/6
f 171/1/6 170/1/6 172/1/6
f 173/1/6 174/1/6 175/1/6
f 175/1/6 174/1/6 176/1/6
