# MagicaVoxel @ Ephtracy

# group
o 

# material
mtllib torso.mtl
usemtl palette

# normals
vn -1 0 0
vn 1 0 0
vn 0 0 1
vn 0 0 -1
vn 0 -1 0
vn 0 1 0

# texcoords
vt 0.666016 0.5
vt 0.673828 0.5
vt 0.978516 0.5

# verts
v -0.3 0 0
v -0.3 0 -0.2
v -0.3 0.1 0.2
v -0.3 0.1 0
v -0.3 1.1 0.2
v -0.3 1.1 -0.2
v 0.3 0 0
v 0.3 0 -0.2
v 0.3 0.1 0.2
v 0.3 0.1 0
v 0.3 1.1 0.2
v 0.3 1.1 -0.2
v -0.3 0.1 0.2
v -0.3 1.1 0.2
v -0.2 1 0.2
v -0.2 1.1 0.2
v -0.1 0.9 0.2
v -0.1 1 0.2
v 0.1 0.9 0.2
v 0.1 1 0.2
v 0.2 1 0.2
v 0.2 1.1 0.2
v 0.3 0.1 0.2
v 0.3 1.1 0.2
v -0.3 0 0
v -0.3 0.1 0
v 0.3 0 0
v 0.3 0.1 0
v -0.3 0 -0.2
v -0.3 1.1 -0.2
v 0.3 0 -0.2
v 0.3 1.1 -0.2
v -0.3 0 0
v 0.3 0 0
v -0.3 0 -0.2
v 0.3 0 -0.2
v -0.3 0.1 0.2
v 0.3 0.1 0.2
v -0.3 0.1 0
v 0.3 0.1 0
v -0.3 1.1 0.2
v -0.2 1.1 0.2
v 0.2 1.1 0.2
v 0.3 1.1 0.2
v -0.2 1.1 0.1
v 0.2 1.1 0.1
v -0.3 1.1 -0.2
v 0.3 1.1 -0.2

# faces
f 4/2/1 2/2/1 1/2/1
f 5/2/1 4/2/1 3/2/1
f 6/2/1 2/2/1 4/2/1
f 6/2/1 4/2/1 5/2/1
f 7/2/2 8/2/2 10/2/2
f 9/2/2 10/2/2 11/2/2
f 10/2/2 8/2/2 12/2/2
f 11/2/2 10/2/2 12/2/2
f 15/2/3 14/2/3 13/2/3
f 16/2/3 14/2/3 15/2/3
f 17/2/3 15/2/3 13/2/3
f 18/3/3 16/3/3 15/3/3
f 18/2/3 15/2/3 17/2/3
f 19/2/3 17/2/3 13/2/3
f 19/3/3 18/3/3 17/3/3
f 20/3/3 16/3/3 18/3/3
f 20/3/3 18/3/3 19/3/3
f 21/2/3 20/2/3 19/2/3
f 21/3/3 16/3/3 20/3/3
f 22/3/3 16/3/3 21/3/3
f 23/2/3 19/2/3 13/2/3
f 23/2/3 21/2/3 19/2/3
f 23/2/3 22/2/3 21/2/3
f 24/2/3 22/2/3 23/2/3
f 27/2/3 26/2/3 25/2/3
f 28/2/3 26/2/3 27/2/3
f 29/2/4 30/2/4 31/2/4
f 31/2/4 30/2/4 32/2/4
f 35/2/5 34/2/5 33/2/5
f 36/2/5 34/2/5 35/2/5
f 39/2/5 38/2/5 37/2/5
f 40/2/5 38/2/5 39/2/5
f 41/2/6 42/2/6 45/2/6
f 42/3/6 43/3/6 45/3/6
f 43/2/6 44/2/6 46/2/6
f 45/3/6 43/3/6 46/3/6
f 41/2/6 45/2/6 47/2/6
f 45/2/6 46/2/6 47/2/6
f 46/2/6 44/2/6 48/2/6
f 47/2/6 46/2/6 48/2/6
