# MagicaVoxel @ Ephtracy

# group
o 

# material
mtllib torso.mtl
usemtl palette

# normals
vn -1 0 0
vn 1 0 0
vn 0 0 1
vn 0 0 -1
vn 0 -1 0
vn 0 1 0

# texcoords
vt 0.689453 0.5
vt 0.697266 0.5
vt 0.705078 0.5
vt 0.708984 0.5
vt 0.978516 0.5

# verts
v -0.3 0 0
v -0.3 0 -0.2
v -0.3 0.1 0.2
v -0.3 0.1 0
v -0.3 0.1 -0.2
v -0.3 1 0.2
v -0.3 1 -0.2
v -0.3 1.1 0.2
v -0.3 1.1 -0.2
v 0.3 0 0
v 0.3 0 -0.2
v 0.3 0.1 0.2
v 0.3 0.1 0
v 0.3 0.1 -0.2
v 0.3 1 0.2
v 0.3 1 -0.2
v 0.3 1.1 0.2
v 0.3 1.1 -0.2
v -0.3 0.1 0.2
v -0.3 1 0.2
v -0.3 1.1 0.2
v -0.2 0.9 0.2
v -0.2 1 0.2
v -0.2 1.1 0.2
v -0.1 0.8 0.2
v -0.1 0.9 0.2
v -0.1 1 0.2
v 0.1 0.8 0.2
v 0.1 0.9 0.2
v 0.1 1 0.2
v 0.2 0.9 0.2
v 0.2 1 0.2
v 0.2 1.1 0.2
v 0.3 0.1 0.2
v 0.3 1 0.2
v 0.3 1.1 0.2
v -0.3 0 0
v -0.3 0.1 0
v -0.2 0.1 0
v 0.2 0.1 0
v 0.3 0 0
v 0.3 0.1 0
v -0.3 0 -0.2
v -0.3 0.1 -0.2
v -0.3 1 -0.2
v -0.3 1.1 -0.2
v 0.3 0 -0.2
v 0.3 0.1 -0.2
v 0.3 1 -0.2
v 0.3 1.1 -0.2
v -0.3 0 0
v 0.3 0 0
v -0.3 0 -0.2
v 0.3 0 -0.2
v -0.3 0.1 0.2
v 0.3 0.1 0.2
v -0.2 0.1 0.1
v 0.2 0.1 0.1
v -0.3 0.1 0
v -0.2 0.1 0
v 0.2 0.1 0
v 0.3 0.1 0
v -0.3 1.1 0.2
v -0.2 1.1 0.2
v 0.2 1.1 0.2
v 0.3 1.1 0.2
v -0.2 1.1 0.1
v 0.2 1.1 0.1
v -0.2 1.1 -0.1
v 0.2 1.1 -0.1
v -0.3 1.1 -0.2
v 0.3 1.1 -0.2

# faces
f 4/1/1 2/1/1 1/1/1
f 5/1/1 2/1/1 4/1/1
f 6/3/1 4/3/1 3/3/1
f 6/3/1 5/3/1 4/3/1
f 7/3/1 5/3/1 6/3/1
f 8/4/1 7/4/1 6/4/1
f 9/4/1 7/4/1 8/4/1
f 10/1/2 11/1/2 13/1/2
f 13/1/2 11/1/2 14/1/2
f 12/3/2 13/3/2 15/3/2
f 13/3/2 14/3/2 15/3/2
f 15/3/2 14/3/2 16/3/2
f 15/4/2 16/4/2 17/4/2
f 17/4/2 16/4/2 18/4/2
f 22/3/3 20/3/3 19/3/3
f 23/4/3 21/4/3 20/4/3
f 23/3/3 20/3/3 22/3/3
f 24/4/3 21/4/3 23/4/3
f 25/3/3 22/3/3 19/3/3
f 26/4/3 23/4/3 22/4/3
f 26/3/3 22/3/3 25/3/3
f 27/5/3 24/5/3 23/5/3
f 27/4/3 23/4/3 26/4/3
f 28/3/3 25/3/3 19/3/3
f 28/4/3 26/4/3 25/4/3
f 29/5/3 27/5/3 26/5/3
f 29/4/3 26/4/3 28/4/3
f 30/5/3 24/5/3 27/5/3
f 30/5/3 27/5/3 29/5/3
f 31/3/3 29/3/3 28/3/3
f 31/4/3 30/4/3 29/4/3
f 32/5/3 24/5/3 30/5/3
f 32/4/3 30/4/3 31/4/3
f 33/5/3 24/5/3 32/5/3
f 34/3/3 31/3/3 28/3/3
f 34/3/3 28/3/3 19/3/3
f 34/3/3 32/3/3 31/3/3
f 35/4/3 33/4/3 32/4/3
f 35/3/3 32/3/3 34/3/3
f 36/4/3 33/4/3 35/4/3
f 39/1/3 38/1/3 37/1/3
f 40/1/3 39/1/3 37/1/3
f 41/1/3 40/1/3 37/1/3
f 42/1/3 40/1/3 41/1/3
f 43/1/4 44/1/4 47/1/4
f 44/3/4 45/3/4 48/3/4
f 47/1/4 44/1/4 48/1/4
f 45/4/4 46/4/4 49/4/4
f 48/3/4 45/3/4 49/3/4
f 49/4/4 46/4/4 50/4/4
f 53/1/5 52/1/5 51/1/5
f 54/1/5 52/1/5 53/1/5
f 57/3/5 56/3/5 55/3/5
f 58/3/5 56/3/5 57/3/5
f 59/3/5 57/3/5 55/3/5
f 60/2/5 58/2/5 57/2/5
f 60/3/5 57/3/5 59/3/5
f 61/3/5 56/3/5 58/3/5
f 61/2/5 58/2/5 60/2/5
f 62/3/5 56/3/5 61/3/5
f 63/4/6 64/4/6 67/4/6
f 64/5/6 65/5/6 67/5/6
f 65/4/6 66/4/6 68/4/6
f 67/5/6 65/5/6 68/5/6
f 63/4/6 67/4/6 69/4/6
f 67/2/6 68/2/6 69/2/6
f 68/4/6 66/4/6 70/4/6
f 69/2/6 68/2/6 70/2/6
f 63/4/6 69/4/6 71/4/6
f 69/4/6 70/4/6 71/4/6
f 70/4/6 66/4/6 72/4/6
f 71/4/6 70/4/6 72/4/6
