# MagicaVoxel @ Ephtracy

# group
o 

# material
mtllib bariyer.mtl
usemtl palette

# normals
vn -1 0 0
vn 1 0 0
vn 0 0 1
vn 0 0 -1
vn 0 -1 0
vn 0 1 0

# texcoords
vt 0.970703 0.5
vt 0.974609 0.5
vt 0.978516 0.5

# verts
v -0.7 0 0.3
v -0.7 0 -0.2
v -0.7 0.1 0.3
v -0.7 0.1 0.1
v -0.7 0.1 0
v -0.7 0.1 -0.2
v -0.7 0.2 0.2
v -0.7 0.2 0.1
v -0.7 0.2 0
v -0.7 0.2 -0.1
v -0.7 0.5 0.2
v -0.7 0.5 0.1
v -0.7 0.5 0
v -0.7 0.5 -0.1
v 0.6 0 0.3
v 0.6 0 -0.2
v 0.6 0.1 0.3
v 0.6 0.1 0.1
v 0.6 0.1 0
v 0.6 0.1 -0.2
v 0.6 0.2 0.1
v 0.6 0.2 0
v 0.6 0.3 0.1
v 0.6 0.3 0
v 0.6 0.4 0.1
v 0.6 0.4 0
v -0.6 0 0.3
v -0.6 0 -0.2
v -0.6 0.1 0.3
v -0.6 0.1 0.1
v -0.6 0.1 0
v -0.6 0.1 -0.2
v -0.6 0.2 0.1
v -0.6 0.2 0
v -0.6 0.3 0.1
v -0.6 0.3 0
v -0.6 0.4 0.1
v -0.6 0.4 0
v 0.7 0 0.3
v 0.7 0 -0.2
v 0.7 0.1 0.3
v 0.7 0.1 0.1
v 0.7 0.1 0
v 0.7 0.1 -0.2
v 0.7 0.2 0.2
v 0.7 0.2 0.1
v 0.7 0.2 0
v 0.7 0.2 -0.1
v 0.7 0.5 0.2
v 0.7 0.5 0.1
v 0.7 0.5 0
v 0.7 0.5 -0.1
v -0.7 0 0.3
v -0.7 0.1 0.3
v -0.6 0 0.3
v -0.6 0.1 0.3
v 0.6 0 0.3
v 0.6 0.1 0.3
v 0.7 0 0.3
v 0.7 0.1 0.3
v -0.7 0.2 0.2
v -0.7 0.5 0.2
v -0.6 0.3 0.2
v -0.6 0.4 0.2
v 0.6 0.3 0.2
v 0.6 0.4 0.2
v 0.7 0.2 0.2
v 0.7 0.5 0.2
v -0.7 0.1 0.1
v -0.7 0.2 0.1
v -0.6 0.1 0.1
v -0.6 0.2 0.1
v 0.6 0.1 0.1
v 0.6 0.2 0.1
v 0.7 0.1 0.1
v 0.7 0.2 0.1
v -0.6 0.3 0
v -0.6 0.4 0
v 0.6 0.3 0
v 0.6 0.4 0
v -0.6 0.3 0.1
v -0.6 0.4 0.1
v 0.6 0.3 0.1
v 0.6 0.4 0.1
v -0.7 0.1 0
v -0.7 0.2 0
v -0.6 0.1 0
v -0.6 0.2 0
v 0.6 0.1 0
v 0.6 0.2 0
v 0.7 0.1 0
v 0.7 0.2 0
v -0.7 0.2 -0.1
v -0.7 0.5 -0.1
v -0.6 0.3 -0.1
v -0.6 0.4 -0.1
v 0.6 0.3 -0.1
v 0.6 0.4 -0.1
v 0.7 0.2 -0.1
v 0.7 0.5 -0.1
v -0.7 0 -0.2
v -0.7 0.1 -0.2
v -0.6 0 -0.2
v -0.6 0.1 -0.2
v 0.6 0 -0.2
v 0.6 0.1 -0.2
v 0.7 0 -0.2
v 0.7 0.1 -0.2
v -0.7 0 0.3
v -0.6 0 0.3
v 0.6 0 0.3
v 0.7 0 0.3
v -0.7 0 -0.2
v -0.6 0 -0.2
v 0.6 0 -0.2
v 0.7 0 -0.2
v -0.7 0.2 0.2
v 0.7 0.2 0.2
v -0.7 0.2 0.1
v -0.6 0.2 0.1
v 0.6 0.2 0.1
v 0.7 0.2 0.1
v -0.7 0.2 0
v -0.6 0.2 0
v 0.6 0.2 0
v 0.7 0.2 0
v -0.7 0.2 -0.1
v 0.7 0.2 -0.1
v -0.6 0.4 0.1
v 0.6 0.4 0.1
v -0.6 0.4 0
v 0.6 0.4 0
v -0.7 0.1 0.3
v -0.6 0.1 0.3
v 0.6 0.1 0.3
v 0.7 0.1 0.3
v -0.7 0.1 0.1
v -0.6 0.1 0.1
v 0.6 0.1 0.1
v 0.7 0.1 0.1
v -0.7 0.1 0
v -0.6 0.1 0
v 0.6 0.1 0
v 0.7 0.1 0
v -0.7 0.1 -0.2
v -0.6 0.1 -0.2
v 0.6 0.1 -0.2
v 0.7 0.1 -0.2
v -0.6 0.3 0.1
v 0.6 0.3 0.1
v -0.6 0.3 0
v 0.6 0.3 0
v -0.7 0.5 0.2
v 0.7 0.5 0.2
v -0.7 0.5 0.1
v 0.7 0.5 0.1
v -0.7 0.5 0
v 0.7 0.5 0
v -0.7 0.5 -0.1
v 0.7 0.5 -0.1

# faces
f 3/3/1 2/3/1 1/3/1
f 4/3/1 2/3/1 3/3/1
f 5/3/1 2/3/1 4/3/1
f 6/3/1 2/3/1 5/3/1
f 8/3/1 5/3/1 4/3/1
f 9/3/1 5/3/1 8/3/1
f 11/1/1 8/1/1 7/1/1
f 12/3/1 9/3/1 8/3/1
f 12/1/1 8/1/1 11/1/1
f 13/1/1 10/1/1 9/1/1
f 13/3/1 9/3/1 12/3/1
f 14/1/1 10/1/1 13/1/1
f 17/3/1 16/3/1 15/3/1
f 18/3/1 16/3/1 17/3/1
f 19/3/1 16/3/1 18/3/1
f 20/3/1 16/3/1 19/3/1
f 21/3/1 19/3/1 18/3/1
f 22/3/1 19/3/1 21/3/1
f 25/3/1 24/3/1 23/3/1
f 26/3/1 24/3/1 25/3/1
f 27/3/2 28/3/2 29/3/2
f 29/3/2 28/3/2 30/3/2
f 30/3/2 28/3/2 31/3/2
f 31/3/2 28/3/2 32/3/2
f 30/3/2 31/3/2 33/3/2
f 33/3/2 31/3/2 34/3/2
f 35/3/2 36/3/2 37/3/2
f 37/3/2 36/3/2 38/3/2
f 39/3/2 40/3/2 41/3/2
f 41/3/2 40/3/2 42/3/2
f 42/3/2 40/3/2 43/3/2
f 43/3/2 40/3/2 44/3/2
f 42/3/2 43/3/2 46/3/2
f 46/3/2 43/3/2 47/3/2
f 45/1/2 46/1/2 49/1/2
f 46/3/2 47/3/2 50/3/2
f 49/1/2 46/1/2 50/1/2
f 47/1/2 48/1/2 51/1/2
f 50/3/2 47/3/2 51/3/2
f 51/1/2 48/1/2 52/1/2
f 55/3/3 54/3/3 53/3/3
f 56/3/3 54/3/3 55/3/3
f 59/3/3 58/3/3 57/3/3
f 60/3/3 58/3/3 59/3/3
f 63/1/3 62/1/3 61/1/3
f 64/1/3 62/1/3 63/1/3
f 65/1/3 63/1/3 61/1/3
f 65/2/3 64/2/3 63/2/3
f 66/1/3 62/1/3 64/1/3
f 66/2/3 64/2/3 65/2/3
f 67/1/3 65/1/3 61/1/3
f 67/1/3 66/1/3 65/1/3
f 68/1/3 62/1/3 66/1/3
f 68/1/3 66/1/3 67/1/3
f 71/3/3 70/3/3 69/3/3
f 72/3/3 70/3/3 71/3/3
f 75/3/3 74/3/3 73/3/3
f 76/3/3 74/3/3 75/3/3
f 79/2/3 78/2/3 77/2/3
f 80/2/3 78/2/3 79/2/3
f 81/2/4 82/2/4 83/2/4
f 83/2/4 82/2/4 84/2/4
f 85/3/4 86/3/4 87/3/4
f 87/3/4 86/3/4 88/3/4
f 89/3/4 90/3/4 91/3/4
f 91/3/4 90/3/4 92/3/4
f 93/1/4 94/1/4 95/1/4
f 95/1/4 94/1/4 96/1/4
f 93/1/4 95/1/4 97/1/4
f 95/2/4 96/2/4 97/2/4
f 96/1/4 94/1/4 98/1/4
f 97/2/4 96/2/4 98/2/4
f 93/1/4 97/1/4 99/1/4
f 97/1/4 98/1/4 99/1/4
f 98/1/4 94/1/4 100/1/4
f 99/1/4 98/1/4 100/1/4
f 101/3/4 102/3/4 103/3/4
f 103/3/4 102/3/4 104/3/4
f 105/3/4 106/3/4 107/3/4
f 107/3/4 106/3/4 108/3/4
f 113/3/5 110/3/5 109/3/5
f 114/3/5 110/3/5 113/3/5
f 115/3/5 112/3/5 111/3/5
f 116/3/5 112/3/5 115/3/5
f 119/1/5 118/1/5 117/1/5
f 120/1/5 118/1/5 119/1/5
f 121/1/5 118/1/5 120/1/5
f 122/1/5 118/1/5 121/1/5
f 124/1/5 121/1/5 120/1/5
f 125/1/5 121/1/5 124/1/5
f 127/1/5 124/1/5 123/1/5
f 127/1/5 126/1/5 125/1/5
f 127/1/5 125/1/5 124/1/5
f 128/1/5 126/1/5 127/1/5
f 131/3/5 130/3/5 129/3/5
f 132/3/5 130/3/5 131/3/5
f 133/3/6 134/3/6 137/3/6
f 137/3/6 134/3/6 138/3/6
f 135/3/6 136/3/6 139/3/6
f 139/3/6 136/3/6 140/3/6
f 141/3/6 142/3/6 145/3/6
f 145/3/6 142/3/6 146/3/6
f 143/3/6 144/3/6 147/3/6
f 147/3/6 144/3/6 148/3/6
f 149/1/6 150/1/6 151/1/6
f 151/1/6 150/1/6 152/1/6
f 153/1/6 154/1/6 155/1/6
f 155/1/6 154/1/6 156/1/6
f 155/3/6 156/3/6 157/3/6
f 157/3/6 156/3/6 158/3/6
f 157/1/6 158/1/6 159/1/6
f 159/1/6 158/1/6 160/1/6
