# MagicaVoxel @ Ephtracy

# group
o 

# material
mtllib torso.mtl
usemtl palette

# normals
vn -1 0 0
vn 1 0 0
vn 0 0 1
vn 0 0 -1
vn 0 -1 0
vn 0 1 0

# texcoords
vt 0.787109 0.5
vt 0.791016 0.5
vt 0.798828 0.5

# verts
v -0.3 0 0
v -0.3 0 -0.2
v -0.3 0.1 0.2
v -0.3 0.1 0
v -0.3 0.1 -0.2
v -0.3 0.5 0.2
v -0.3 0.5 -0.2
v -0.3 0.7 0.2
v -0.3 0.7 -0.2
v -0.3 1.1 0.2
v -0.3 1.1 -0.2
v 0.3 0 0
v 0.3 0 -0.2
v 0.3 0.1 0.2
v 0.3 0.1 0
v 0.3 0.1 -0.2
v 0.3 0.5 0.2
v 0.3 0.5 -0.2
v 0.3 0.7 0.2
v 0.3 0.7 -0.2
v 0.3 1.1 0.2
v 0.3 1.1 -0.2
v -0.3 0.1 0.2
v -0.3 0.5 0.2
v -0.3 0.7 0.2
v -0.3 1.1 0.2
v 0.3 0.1 0.2
v 0.3 0.5 0.2
v 0.3 0.7 0.2
v 0.3 1.1 0.2
v -0.3 0 0
v -0.3 0.1 0
v 0.3 0 0
v 0.3 0.1 0
v -0.3 0 -0.2
v -0.3 0.1 -0.2
v -0.3 0.5 -0.2
v -0.3 0.7 -0.2
v -0.3 1.1 -0.2
v 0.3 0 -0.2
v 0.3 0.1 -0.2
v 0.3 0.5 -0.2
v 0.3 0.7 -0.2
v 0.3 1.1 -0.2
v -0.3 0 0
v 0.3 0 0
v -0.3 0 -0.2
v 0.3 0 -0.2
v -0.3 0.1 0.2
v 0.3 0.1 0.2
v -0.3 0.1 0
v 0.3 0.1 0
v -0.3 1.1 0.2
v 0.3 1.1 0.2
v -0.3 1.1 -0.2
v 0.3 1.1 -0.2

# faces
f 4/2/1 2/2/1 1/2/1
f 5/2/1 2/2/1 4/2/1
f 6/1/1 4/1/1 3/1/1
f 6/1/1 5/1/1 4/1/1
f 7/1/1 5/1/1 6/1/1
f 8/3/1 7/3/1 6/3/1
f 9/3/1 7/3/1 8/3/1
f 10/1/1 9/1/1 8/1/1
f 11/1/1 9/1/1 10/1/1
f 12/2/2 13/2/2 15/2/2
f 15/2/2 13/2/2 16/2/2
f 14/1/2 15/1/2 17/1/2
f 15/1/2 16/1/2 17/1/2
f 17/1/2 16/1/2 18/1/2
f 17/3/2 18/3/2 19/3/2
f 19/3/2 18/3/2 20/3/2
f 19/1/2 20/1/2 21/1/2
f 21/1/2 20/1/2 22/1/2
f 27/1/3 24/1/3 23/1/3
f 28/3/3 25/3/3 24/3/3
f 28/1/3 24/1/3 27/1/3
f 29/1/3 26/1/3 25/1/3
f 29/3/3 25/3/3 28/3/3
f 30/1/3 26/1/3 29/1/3
f 33/2/3 32/2/3 31/2/3
f 34/2/3 32/2/3 33/2/3
f 35/2/4 36/2/4 40/2/4
f 36/1/4 37/1/4 41/1/4
f 40/2/4 36/2/4 41/2/4
f 37/3/4 38/3/4 42/3/4
f 41/1/4 37/1/4 42/1/4
f 38/1/4 39/1/4 43/1/4
f 42/3/4 38/3/4 43/3/4
f 43/1/4 39/1/4 44/1/4
f 47/2/5 46/2/5 45/2/5
f 48/2/5 46/2/5 47/2/5
f 51/1/5 50/1/5 49/1/5
f 52/1/5 50/1/5 51/1/5
f 53/1/6 54/1/6 55/1/6
f 55/1/6 54/1/6 56/1/6
