# MagicaVoxel @ Ephtracy

# group
o 

# material
mtllib intersection.mtl
usemtl palette

# normals
vn -1 0 0
vn 1 0 0
vn 0 0 1
vn 0 0 -1
vn 0 -1 0
vn 0 1 0

# texcoords
vt 0.970703 0.5
vt 0.974609 0.5
vt 0.978516 0.5
vt 0.982422 0.5

# verts
v -3.5 0 3.5
v -3.5 0 2.4
v -3.5 0 2.3
v -3.5 0 -2.3
v -3.5 0 -2.4
v -3.5 0 -3.5
v -3.5 0.1 3.5
v -3.5 0.1 2.5
v -3.5 0.1 2.4
v -3.5 0.1 2.3
v -3.5 0.1 -2.3
v -3.5 0.1 -2.4
v -3.5 0.1 -2.5
v -3.5 0.1 -3.5
v -3.5 0.2 3.5
v -3.5 0.2 2.5
v -3.5 0.2 -2.5
v -3.5 0.2 -3.5
v 2.5 0.1 3.5
v 2.5 0.1 2.8
v 2.5 0.1 2.5
v 2.5 0.1 -2.5
v 2.5 0.1 -2.8
v 2.5 0.1 -3.5
v 2.5 0.2 3.5
v 2.5 0.2 2.8
v 2.5 0.2 2.5
v 2.5 0.2 -2.5
v 2.5 0.2 -2.8
v 2.5 0.2 -3.5
v -2.5 0.1 3.5
v -2.5 0.1 2.8
v -2.5 0.1 2.5
v -2.5 0.1 -2.5
v -2.5 0.1 -2.8
v -2.5 0.1 -3.5
v -2.5 0.2 3.5
v -2.5 0.2 2.8
v -2.5 0.2 2.5
v -2.5 0.2 -2.5
v -2.5 0.2 -2.8
v -2.5 0.2 -3.5
v 3.5 0 3.5
v 3.5 0 2.4
v 3.5 0 2.3
v 3.5 0 -2.3
v 3.5 0 -2.4
v 3.5 0 -3.5
v 3.5 0.1 3.5
v 3.5 0.1 2.5
v 3.5 0.1 2.4
v 3.5 0.1 2.3
v 3.5 0.1 -2.3
v 3.5 0.1 -2.4
v 3.5 0.1 -2.5
v 3.5 0.1 -3.5
v 3.5 0.2 3.5
v 3.5 0.2 2.5
v 3.5 0.2 -2.5
v 3.5 0.2 -3.5
v -3.5 0 3.5
v -3.5 0.1 3.5
v -3.5 0.2 3.5
v -2.5 0.1 3.5
v -2.5 0.2 3.5
v -2.4 0 3.5
v -2.4 0.1 3.5
v -2.3 0 3.5
v -2.3 0.1 3.5
v 2.3 0 3.5
v 2.3 0.1 3.5
v 2.4 0 3.5
v 2.4 0.1 3.5
v 2.5 0.1 3.5
v 2.5 0.2 3.5
v 3.5 0 3.5
v 3.5 0.1 3.5
v 3.5 0.2 3.5
v -3.5 0.1 -2.5
v -3.5 0.2 -2.5
v -2.8 0.1 -2.5
v -2.8 0.2 -2.5
v -2.5 0.1 -2.5
v -2.5 0.2 -2.5
v 2.5 0.1 -2.5
v 2.5 0.2 -2.5
v 2.8 0.1 -2.5
v 2.8 0.2 -2.5
v 3.5 0.1 -2.5
v 3.5 0.2 -2.5
v -3.5 0.1 2.5
v -3.5 0.2 2.5
v -2.8 0.1 2.5
v -2.8 0.2 2.5
v -2.5 0.1 2.5
v -2.5 0.2 2.5
v 2.5 0.1 2.5
v 2.5 0.2 2.5
v 2.8 0.1 2.5
v 2.8 0.2 2.5
v 3.5 0.1 2.5
v 3.5 0.2 2.5
v -3.5 0 -3.5
v -3.5 0.1 -3.5
v -3.5 0.2 -3.5
v -2.5 0.1 -3.5
v -2.5 0.2 -3.5
v -2.4 0 -3.5
v -2.4 0.1 -3.5
v -2.3 0 -3.5
v -2.3 0.1 -3.5
v 2.3 0 -3.5
v 2.3 0.1 -3.5
v 2.4 0 -3.5
v 2.4 0.1 -3.5
v 2.5 0.1 -3.5
v 2.5 0.2 -3.5
v 3.5 0 -3.5
v 3.5 0.1 -3.5
v 3.5 0.2 -3.5
v -3.5 0 3.5
v -2.4 0 3.5
v -2.3 0 3.5
v 2.3 0 3.5
v 2.4 0 3.5
v 3.5 0 3.5
v -3.5 0 2.4
v -2.4 0 2.4
v 2.4 0 2.4
v 3.5 0 2.4
v -3.5 0 2.3
v -2.3 0 2.3
v 2.3 0 2.3
v 3.5 0 2.3
v -3.5 0 -2.3
v -2.3 0 -2.3
v 2.3 0 -2.3
v 3.5 0 -2.3
v -3.5 0 -2.4
v -2.4 0 -2.4
v 2.4 0 -2.4
v 3.5 0 -2.4
v -3.5 0 -3.5
v -2.4 0 -3.5
v -2.3 0 -3.5
v 2.3 0 -3.5
v 2.4 0 -3.5
v 3.5 0 -3.5
v -2.5 0.1 3.5
v -2.4 0.1 3.5
v -2.3 0.1 3.5
v 2.3 0.1 3.5
v 2.4 0.1 3.5
v 2.5 0.1 3.5
v -2.5 0.1 2.8
v 2.5 0.1 2.8
v -3.5 0.1 2.5
v -2.8 0.1 2.5
v -2.5 0.1 2.5
v 2.5 0.1 2.5
v 2.8 0.1 2.5
v 3.5 0.1 2.5
v -3.5 0.1 2.4
v -2.4 0.1 2.4
v 2.4 0.1 2.4
v 3.5 0.1 2.4
v -3.5 0.1 2.3
v -2.3 0.1 2.3
v 2.3 0.1 2.3
v 3.5 0.1 2.3
v -3.5 0.1 -2.3
v -2.3 0.1 -2.3
v 2.3 0.1 -2.3
v 3.5 0.1 -2.3
v -3.5 0.1 -2.4
v -2.4 0.1 -2.4
v 2.4 0.1 -2.4
v 3.5 0.1 -2.4
v -3.5 0.1 -2.5
v -2.8 0.1 -2.5
v -2.5 0.1 -2.5
v 2.5 0.1 -2.5
v 2.8 0.1 -2.5
v 3.5 0.1 -2.5
v -2.5 0.1 -2.8
v 2.5 0.1 -2.8
v -2.5 0.1 -3.5
v -2.4 0.1 -3.5
v -2.3 0.1 -3.5
v 2.3 0.1 -3.5
v 2.4 0.1 -3.5
v 2.5 0.1 -3.5
v -3.5 0.2 3.5
v -2.5 0.2 3.5
v 2.5 0.2 3.5
v 3.5 0.2 3.5
v -2.6 0.2 2.8
v -2.5 0.2 2.8
v 2.5 0.2 2.8
v 2.6 0.2 2.8
v -2.8 0.2 2.6
v -2.6 0.2 2.6
v 2.6 0.2 2.6
v 2.8 0.2 2.6
v -3.5 0.2 2.5
v -2.8 0.2 2.5
v -2.5 0.2 2.5
v 2.5 0.2 2.5
v 2.8 0.2 2.5
v 3.5 0.2 2.5
v -3.5 0.2 -2.5
v -2.8 0.2 -2.5
v -2.5 0.2 -2.5
v 2.5 0.2 -2.5
v 2.8 0.2 -2.5
v 3.5 0.2 -2.5
v -2.8 0.2 -2.6
v -2.6 0.2 -2.6
v 2.6 0.2 -2.6
v 2.8 0.2 -2.6
v -2.6 0.2 -2.8
v -2.5 0.2 -2.8
v 2.5 0.2 -2.8
v 2.6 0.2 -2.8
v -3.5 0.2 -3.5
v -2.5 0.2 -3.5
v 2.5 0.2 -3.5
v 3.5 0.2 -3.5

# faces
f 7/1/1 2/1/1 1/1/1
f 8/1/1 2/1/1 7/1/1
f 9/4/1 3/4/1 2/4/1
f 9/1/1 2/1/1 8/1/1
f 10/1/1 4/1/1 3/1/1
f 10/4/1 3/4/1 9/4/1
f 11/4/1 5/4/1 4/4/1
f 11/1/1 4/1/1 10/1/1
f 12/1/1 6/1/1 5/1/1
f 12/4/1 5/4/1 11/4/1
f 13/1/1 6/1/1 12/1/1
f 14/1/1 6/1/1 13/1/1
f 15/2/1 8/2/1 7/2/1
f 16/2/1 8/2/1 15/2/1
f 17/2/1 14/2/1 13/2/1
f 18/2/1 14/2/1 17/2/1
f 25/2/1 20/2/1 19/2/1
f 26/3/1 21/3/1 20/3/1
f 26/2/1 20/2/1 25/2/1
f 27/3/1 21/3/1 26/3/1
f 28/3/1 23/3/1 22/3/1
f 29/2/1 24/2/1 23/2/1
f 29/3/1 23/3/1 28/3/1
f 30/2/1 24/2/1 29/2/1
f 31/2/2 32/2/2 37/2/2
f 32/3/2 33/3/2 38/3/2
f 37/2/2 32/2/2 38/2/2
f 38/3/2 33/3/2 39/3/2
f 34/3/2 35/3/2 40/3/2
f 35/2/2 36/2/2 41/2/2
f 40/3/2 35/3/2 41/3/2
f 41/2/2 36/2/2 42/2/2
f 43/1/2 44/1/2 49/1/2
f 49/1/2 44/1/2 50/1/2
f 44/4/2 45/4/2 51/4/2
f 50/1/2 44/1/2 51/1/2
f 45/1/2 46/1/2 52/1/2
f 51/4/2 45/4/2 52/4/2
f 46/4/2 47/4/2 53/4/2
f 52/1/2 46/1/2 53/1/2
f 47/1/2 48/1/2 54/1/2
f 53/4/2 47/4/2 54/4/2
f 54/1/2 48/1/2 55/1/2
f 55/1/2 48/1/2 56/1/2
f 49/2/2 50/2/2 57/2/2
f 57/2/2 50/2/2 58/2/2
f 55/2/2 56/2/2 59/2/2
f 59/2/2 56/2/2 60/2/2
f 64/1/3 62/1/3 61/1/3
f 64/2/3 63/2/3 62/2/3
f 65/2/3 63/2/3 64/2/3
f 66/1/3 64/1/3 61/1/3
f 67/1/3 64/1/3 66/1/3
f 68/4/3 67/4/3 66/4/3
f 69/4/3 67/4/3 68/4/3
f 70/1/3 69/1/3 68/1/3
f 71/1/3 69/1/3 70/1/3
f 72/4/3 71/4/3 70/4/3
f 73/4/3 71/4/3 72/4/3
f 74/1/3 73/1/3 72/1/3
f 76/1/3 74/1/3 72/1/3
f 77/2/3 75/2/3 74/2/3
f 77/1/3 74/1/3 76/1/3
f 78/2/3 75/2/3 77/2/3
f 81/2/3 80/2/3 79/2/3
f 82/2/3 80/2/3 81/2/3
f 83/3/3 82/3/3 81/3/3
f 84/3/3 82/3/3 83/3/3
f 87/3/3 86/3/3 85/3/3
f 88/3/3 86/3/3 87/3/3
f 89/2/3 88/2/3 87/2/3
f 90/2/3 88/2/3 89/2/3
f 91/2/4 92/2/4 93/2/4
f 93/2/4 92/2/4 94/2/4
f 93/3/4 94/3/4 95/3/4
f 95/3/4 94/3/4 96/3/4
f 97/3/4 98/3/4 99/3/4
f 99/3/4 98/3/4 100/3/4
f 99/2/4 100/2/4 101/2/4
f 101/2/4 100/2/4 102/2/4
f 103/1/4 104/1/4 106/1/4
f 104/2/4 105/2/4 106/2/4
f 106/2/4 105/2/4 107/2/4
f 103/1/4 106/1/4 108/1/4
f 108/1/4 106/1/4 109/1/4
f 108/4/4 109/4/4 110/4/4
f 110/4/4 109/4/4 111/4/4
f 110/1/4 111/1/4 112/1/4
f 112/1/4 111/1/4 113/1/4
f 112/4/4 113/4/4 114/4/4
f 114/4/4 113/4/4 115/4/4
f 114/1/4 115/1/4 116/1/4
f 114/1/4 116/1/4 118/1/4
f 116/2/4 117/2/4 119/2/4
f 118/1/4 116/1/4 119/1/4
f 119/2/4 117/2/4 120/2/4
f 127/1/5 122/1/5 121/1/5
f 128/4/5 123/4/5 122/4/5
f 128/1/5 122/1/5 127/1/5
f 129/1/5 126/1/5 125/1/5
f 129/4/5 125/4/5 124/4/5
f 130/1/5 126/1/5 129/1/5
f 131/4/5 128/4/5 127/4/5
f 132/4/5 123/4/5 128/4/5
f 132/4/5 128/4/5 131/4/5
f 132/1/5 124/1/5 123/1/5
f 133/4/5 130/4/5 129/4/5
f 133/1/5 124/1/5 132/1/5
f 133/4/5 129/4/5 124/4/5
f 134/4/5 130/4/5 133/4/5
f 135/1/5 132/1/5 131/1/5
f 135/1/5 133/1/5 132/1/5
f 135/1/5 134/1/5 133/1/5
f 136/1/5 134/1/5 135/1/5
f 137/1/5 134/1/5 136/1/5
f 138/1/5 134/1/5 137/1/5
f 139/4/5 136/4/5 135/4/5
f 140/4/5 136/4/5 139/4/5
f 141/4/5 138/4/5 137/4/5
f 142/4/5 138/4/5 141/4/5
f 143/1/5 140/1/5 139/1/5
f 144/4/5 136/4/5 140/4/5
f 144/1/5 140/1/5 143/1/5
f 145/1/5 137/1/5 136/1/5
f 145/4/5 136/4/5 144/4/5
f 146/4/5 141/4/5 137/4/5
f 146/1/5 137/1/5 145/1/5
f 147/1/5 142/1/5 141/1/5
f 147/4/5 141/4/5 146/4/5
f 148/1/5 142/1/5 147/1/5
f 149/1/6 150/1/6 155/1/6
f 153/1/6 154/1/6 156/1/6
f 155/1/6 150/1/6 159/1/6
f 153/1/6 156/1/6 160/1/6
f 157/1/6 158/1/6 163/1/6
f 158/1/6 159/1/6 163/1/6
f 150/4/6 151/4/6 164/4/6
f 163/1/6 159/1/6 164/1/6
f 159/1/6 150/1/6 164/1/6
f 161/1/6 162/1/6 165/1/6
f 152/4/6 153/4/6 165/4/6
f 160/1/6 161/1/6 165/1/6
f 153/1/6 160/1/6 165/1/6
f 165/1/6 162/1/6 166/1/6
f 163/4/6 164/4/6 167/4/6
f 164/4/6 151/4/6 168/4/6
f 167/4/6 164/4/6 168/4/6
f 151/1/6 152/1/6 168/1/6
f 165/4/6 166/4/6 169/4/6
f 168/1/6 152/1/6 169/1/6
f 152/4/6 165/4/6 169/4/6
f 169/4/6 166/4/6 170/4/6
f 167/1/6 168/1/6 171/1/6
f 168/1/6 169/1/6 171/1/6
f 169/1/6 170/1/6 171/1/6
f 171/1/6 170/1/6 172/1/6
f 172/1/6 170/1/6 173/1/6
f 173/1/6 170/1/6 174/1/6
f 171/4/6 172/4/6 175/4/6
f 175/4/6 172/4/6 176/4/6
f 173/4/6 174/4/6 177/4/6
f 177/4/6 174/4/6 178/4/6
f 175/1/6 176/1/6 179/1/6
f 179/1/6 176/1/6 180/1/6
f 180/1/6 176/1/6 181/1/6
f 177/1/6 178/1/6 182/1/6
f 182/1/6 178/1/6 183/1/6
f 183/1/6 178/1/6 184/1/6
f 181/1/6 176/1/6 185/1/6
f 177/1/6 182/1/6 186/1/6
f 185/1/6 176/1/6 187/1/6
f 176/4/6 172/4/6 188/4/6
f 187/1/6 176/1/6 188/1/6
f 172/1/6 173/1/6 189/1/6
f 188/4/6 172/4/6 189/4/6
f 173/4/6 177/4/6 190/4/6
f 189/1/6 173/1/6 190/1/6
f 177/1/6 186/1/6 191/1/6
f 190/4/6 177/4/6 191/4/6
f 191/1/6 186/1/6 192/1/6
f 193/2/6 194/2/6 197/2/6
f 197/2/6 194/2/6 198/2/6
f 195/2/6 196/2/6 199/2/6
f 199/2/6 196/2/6 200/2/6
f 193/2/6 197/2/6 201/2/6
f 197/3/6 198/3/6 202/3/6
f 201/2/6 197/2/6 202/2/6
f 200/2/6 196/2/6 203/2/6
f 199/3/6 200/3/6 203/3/6
f 203/2/6 196/2/6 204/2/6
f 193/2/6 201/2/6 205/2/6
f 201/3/6 202/3/6 206/3/6
f 205/2/6 201/2/6 206/2/6
f 202/3/6 198/3/6 207/3/6
f 206/3/6 202/3/6 207/3/6
f 199/3/6 203/3/6 208/3/6
f 203/3/6 204/3/6 208/3/6
f 204/2/6 196/2/6 209/2/6
f 208/3/6 204/3/6 209/3/6
f 209/2/6 196/2/6 210/2/6
f 211/2/6 212/2/6 217/2/6
f 212/3/6 213/3/6 217/3/6
f 217/3/6 213/3/6 218/3/6
f 214/3/6 215/3/6 219/3/6
f 215/2/6 216/2/6 220/2/6
f 219/3/6 215/3/6 220/3/6
f 218/3/6 213/3/6 221/3/6
f 217/2/6 218/2/6 221/2/6
f 221/3/6 213/3/6 222/3/6
f 214/3/6 219/3/6 223/3/6
f 219/2/6 220/2/6 224/2/6
f 223/3/6 219/3/6 224/3/6
f 221/2/6 222/2/6 225/2/6
f 211/2/6 217/2/6 225/2/6
f 217/2/6 221/2/6 225/2/6
f 225/2/6 222/2/6 226/2/6
f 223/2/6 224/2/6 227/2/6
f 224/2/6 220/2/6 228/2/6
f 227/2/6 224/2/6 228/2/6
f 220/2/6 216/2/6 228/2/6
