# MagicaVoxel @ Ephtracy

# group
o 

# material
mtllib head.mtl
usemtl palette

# normals
vn -1 0 0
vn 1 0 0
vn 0 0 1
vn 0 0 -1
vn 0 -1 0
vn 0 1 0

# texcoords
vt 0.908203 0.5
vt 0.912109 0.5
vt 0.916016 0.5
vt 0.919922 0.5
vt 0.970703 0.5

# verts
v -0.4 0.2 0.1
v -0.4 0.2 0
v -0.4 0.4 0.1
v -0.4 0.4 0
v -0.3 0 0.3
v -0.3 0 -0.2
v -0.3 0 -0.3
v -0.3 0.2 0.1
v -0.3 0.2 0
v -0.3 0.2 -0.2
v -0.3 0.4 0.1
v -0.3 0.4 0
v -0.3 0.5 0.2
v -0.3 0.5 0.1
v -0.3 0.6 0.3
v -0.3 0.6 0.2
v -0.3 0.8 0.3
v -0.3 0.8 -0.3
v 0.3 0 0.3
v 0.3 0 -0.2
v 0.3 0 -0.3
v 0.3 0.2 0.1
v 0.3 0.2 0
v 0.3 0.2 -0.2
v 0.3 0.4 0.1
v 0.3 0.4 0
v 0.3 0.5 0.2
v 0.3 0.5 0.1
v 0.3 0.6 0.3
v 0.3 0.6 0.2
v 0.3 0.8 0.3
v 0.3 0.8 -0.3
v 0.4 0.2 0.1
v 0.4 0.2 0
v 0.4 0.4 0.1
v 0.4 0.4 0
v -0.3 0 0.3
v -0.3 0.6 0.3
v -0.3 0.8 0.3
v -0.2 0.3 0.3
v -0.2 0.5 0.3
v -0.1 0.1 0.3
v -0.1 0.2 0.3
v -0.1 0.3 0.3
v -0.1 0.5 0.3
v 0.1 0.1 0.3
v 0.1 0.2 0.3
v 0.1 0.3 0.3
v 0.1 0.5 0.3
v 0.2 0.3 0.3
v 0.2 0.5 0.3
v 0.3 0 0.3
v 0.3 0.6 0.3
v 0.3 0.8 0.3
v -0.4 0.2 0.1
v -0.4 0.4 0.1
v -0.3 0.2 0.1
v -0.3 0.4 0.1
v 0.3 0.2 0.1
v 0.3 0.4 0.1
v 0.4 0.2 0.1
v 0.4 0.4 0.1
v -0.4 0.2 0
v -0.4 0.4 0
v -0.3 0.2 0
v -0.3 0.4 0
v 0.3 0.2 0
v 0.3 0.4 0
v 0.4 0.2 0
v 0.4 0.4 0
v -0.3 0 -0.3
v -0.3 0.8 -0.3
v 0.3 0 -0.3
v 0.3 0.8 -0.3
v -0.3 0 0.3
v 0.3 0 0.3
v -0.3 0 -0.2
v 0.3 0 -0.2
v -0.3 0 -0.3
v 0.3 0 -0.3
v -0.4 0.2 0.1
v -0.3 0.2 0.1
v 0.3 0.2 0.1
v 0.4 0.2 0.1
v -0.4 0.2 0
v -0.3 0.2 0
v 0.3 0.2 0
v 0.4 0.2 0
v -0.4 0.4 0.1
v -0.3 0.4 0.1
v 0.3 0.4 0.1
v 0.4 0.4 0.1
v -0.4 0.4 0
v -0.3 0.4 0
v 0.3 0.4 0
v 0.4 0.4 0
v -0.3 0.8 0.3
v 0.3 0.8 0.3
v -0.3 0.8 -0.3
v 0.3 0.8 -0.3

# faces
f 3/1/1 2/1/1 1/1/1
f 4/1/1 2/1/1 3/1/1
f 8/5/1 6/5/1 5/5/1
f 9/5/1 6/5/1 8/5/1
f 10/4/1 7/4/1 6/4/1
f 10/5/1 6/5/1 9/5/1
f 11/5/1 8/5/1 5/5/1
f 12/4/1 10/4/1 9/4/1
f 13/5/1 11/5/1 5/5/1
f 14/4/1 12/4/1 11/4/1
f 14/5/1 11/5/1 13/5/1
f 15/5/1 13/5/1 5/5/1
f 16/4/1 14/4/1 13/4/1
f 16/5/1 13/5/1 15/5/1
f 17/4/1 16/4/1 15/4/1
f 18/4/1 7/4/1 10/4/1
f 18/4/1 16/4/1 17/4/1
f 18/4/1 12/4/1 14/4/1
f 18/4/1 14/4/1 16/4/1
f 18/4/1 10/4/1 12/4/1
f 19/5/2 20/5/2 22/5/2
f 22/5/2 20/5/2 23/5/2
f 20/4/2 21/4/2 24/4/2
f 23/5/2 20/5/2 24/5/2
f 19/5/2 22/5/2 25/5/2
f 23/4/2 24/4/2 26/4/2
f 19/5/2 25/5/2 27/5/2
f 25/4/2 26/4/2 28/4/2
f 27/5/2 25/5/2 28/5/2
f 19/5/2 27/5/2 29/5/2
f 27/4/2 28/4/2 30/4/2
f 29/5/2 27/5/2 30/5/2
f 29/4/2 30/4/2 31/4/2
f 24/4/2 21/4/2 32/4/2
f 31/4/2 30/4/2 32/4/2
f 28/4/2 26/4/2 32/4/2
f 30/4/2 28/4/2 32/4/2
f 26/4/2 24/4/2 32/4/2
f 33/1/2 34/1/2 35/1/2
f 35/1/2 34/1/2 36/1/2
f 40/5/3 38/5/3 37/5/3
f 41/5/3 38/5/3 40/5/3
f 42/5/3 40/5/3 37/5/3
f 43/5/3 40/5/3 42/5/3
f 44/3/3 41/3/3 40/3/3
f 44/5/3 40/5/3 43/5/3
f 45/5/3 38/5/3 41/5/3
f 45/3/3 41/3/3 44/3/3
f 46/2/3 43/2/3 42/2/3
f 46/5/3 42/5/3 37/5/3
f 47/1/3 44/1/3 43/1/3
f 47/2/3 43/2/3 46/2/3
f 48/5/3 45/5/3 44/5/3
f 48/1/3 44/1/3 47/1/3
f 49/5/3 38/5/3 45/5/3
f 49/5/3 45/5/3 48/5/3
f 50/5/3 48/5/3 47/5/3
f 50/5/3 47/5/3 46/5/3
f 50/3/3 49/3/3 48/3/3
f 51/5/3 38/5/3 49/5/3
f 51/3/3 49/3/3 50/3/3
f 52/5/3 46/5/3 37/5/3
f 52/5/3 50/5/3 46/5/3
f 52/5/3 51/5/3 50/5/3
f 53/4/3 39/4/3 38/4/3
f 53/5/3 51/5/3 52/5/3
f 53/5/3 38/5/3 51/5/3
f 54/4/3 39/4/3 53/4/3
f 57/1/3 56/1/3 55/1/3
f 58/1/3 56/1/3 57/1/3
f 61/1/3 60/1/3 59/1/3
f 62/1/3 60/1/3 61/1/3
f 63/1/4 64/1/4 65/1/4
f 65/1/4 64/1/4 66/1/4
f 67/1/4 68/1/4 69/1/4
f 69/1/4 68/1/4 70/1/4
f 71/4/4 72/4/4 73/4/4
f 73/4/4 72/4/4 74/4/4
f 77/5/5 76/5/5 75/5/5
f 78/5/5 76/5/5 77/5/5
f 79/4/5 78/4/5 77/4/5
f 80/4/5 78/4/5 79/4/5
f 85/1/5 82/1/5 81/1/5
f 86/1/5 82/1/5 85/1/5
f 87/1/5 84/1/5 83/1/5
f 88/1/5 84/1/5 87/1/5
f 89/1/6 90/1/6 93/1/6
f 93/1/6 90/1/6 94/1/6
f 91/1/6 92/1/6 95/1/6
f 95/1/6 92/1/6 96/1/6
f 97/4/6 98/4/6 99/4/6
f 99/4/6 98/4/6 100/4/6
