# MagicaVoxel @ Ephtracy

# group
o 

# material
mtllib batteryafter.mtl
usemtl palette

# normals
vn -1 0 0
vn 1 0 0
vn 0 0 1
vn 0 0 -1
vn 0 -1 0
vn 0 1 0

# texcoords
vt 0.814453 0.5
vt 0.818359 0.5
vt 0.822266 0.5
vt 0.826172 0.5
vt 0.849609 0.5

# verts
v -0.5 0 0.4
v -0.5 0 -0.4
v -0.5 0 -0.5
v -0.5 0 -0.6
v -0.5 0.1 0.4
v -0.5 0.1 0.3
v -0.5 0.1 0.1
v -0.5 0.1 0
v -0.5 0.1 -0.2
v -0.5 0.1 -0.3
v -0.5 0.1 -0.4
v -0.5 0.1 -0.5
v -0.5 0.2 0.3
v -0.5 0.2 0.1
v -0.5 0.2 0
v -0.5 0.2 -0.2
v -0.5 0.2 -0.3
v -0.5 0.2 -0.6
v -0.4 0 -0.4
v -0.4 0 -0.5
v -0.4 0.1 0.4
v -0.4 0.1 0.3
v -0.4 0.1 0.1
v -0.4 0.1 0
v -0.4 0.1 -0.2
v -0.4 0.1 -0.3
v -0.4 0.1 -0.4
v -0.4 0.1 -0.5
v -0.4 0.2 0.4
v -0.4 0.2 0.3
v -0.4 0.2 0.2
v -0.4 0.2 0.1
v -0.4 0.2 0
v -0.4 0.2 -0.2
v -0.4 0.2 -0.3
v -0.4 0.2 -0.4
v -0.4 0.3 0.3
v -0.4 0.3 0.2
v -0.4 0.3 0.1
v -0.4 0.3 0
v -0.4 0.3 -0.3
v -0.4 0.3 -0.4
v -0.3 0.1 -0.5
v -0.3 0.1 -0.6
v -0.3 0.2 -0.5
v -0.3 0.2 -0.6
v -0.2 0 0.7
v -0.2 0 0.6
v -0.2 0 0.4
v -0.2 0 0.3
v -0.2 0.1 0.7
v -0.2 0.1 0.6
v -0.2 0.1 0.4
v -0.2 0.1 0.3
v -0.1 0 0.6
v -0.1 0 0.5
v -0.1 0 0.4
v -0.1 0.1 0.6
v -0.1 0.1 0.5
v -0.1 0.2 0.5
v -0.1 0.2 0.4
v -0.1 0.2 -0.1
v -0.1 0.2 -0.2
v -0.1 0.2 -0.3
v -0.1 0.2 -0.4
v -0.1 0.3 -0.1
v -0.1 0.3 -0.2
v -0.1 0.3 -0.3
v -0.1 0.3 -0.4
v 5.96046e-08 0.1 0.6
v 5.96046e-08 0.1 0.5
v 5.96046e-08 0.1 -0.5
v 5.96046e-08 0.1 -0.6
v 5.96046e-08 0.2 0.6
v 5.96046e-08 0.2 0.5
v 5.96046e-08 0.2 0.3
v 5.96046e-08 0.2 0.2
v 5.96046e-08 0.2 -0.5
v 5.96046e-08 0.2 -0.6
v 5.96046e-08 0.3 0.3
v 5.96046e-08 0.3 0.2
v 0.1 0 -0.5
v 0.1 0 -0.6
v 0.1 0.1 -0.5
v 0.1 0.1 -0.6
v 0.2 0.2 0.1
v 0.2 0.2 0
v 0.2 0.2 -0.4
v 0.2 0.2 -0.6
v 0.2 0.3 0.1
v 0.2 0.3 0
v 0.2 0.3 -0.4
v 0.2 0.3 -0.6
v 0.3 0.2 -0.3
v 0.3 0.2 -0.4
v 0.3 0.3 -0.3
v 0.3 0.3 -0.4
v 0.4 0 -0.5
v 0.4 0 -0.6
v 0.4 0.1 -0.5
v 0.4 0.1 -0.6
v -0.4 0.1 -0.5
v -0.4 0.1 -0.6
v -0.4 0.2 -0.5
v -0.4 0.2 -0.6
v -0.3 0 0.4
v -0.3 0 0.3
v -0.3 0.1 0.4
v -0.3 0.1 0.3
v -0.2 0.2 0.3
v -0.2 0.2 0.2
v -0.2 0.2 -0.3
v -0.2 0.2 -0.4
v -0.2 0.3 0.3
v -0.2 0.3 0.2
v -0.2 0.3 -0.3
v -0.2 0.3 -0.4
v -0.1 0.1 -0.5
v -0.1 0.1 -0.6
v -0.1 0.2 -0.5
v -0.1 0.2 -0.6
v 5.96046e-08 0 -0.5
v 5.96046e-08 0 -0.6
v 5.96046e-08 0.1 -0.5
v 5.96046e-08 0.1 -0.6
v 0.1 0 0.6
v 0.1 0 0.5
v 0.1 0 0.4
v 0.1 0.1 0.6
v 0.1 0.2 0.6
v 0.1 0.2 0.5
v 0.1 0.2 0.4
v 0.1 0.2 0.1
v 0.1 0.2 0
v 0.1 0.3 0.1
v 0.1 0.3 0
v 0.2 0 0.7
v 0.2 0 0.6
v 0.2 0.1 0.7
v 0.2 0.1 0.6
v 0.2 0.2 -0.3
v 0.2 0.2 -0.4
v 0.2 0.3 -0.3
v 0.2 0.3 -0.4
v 0.3 0 -0.5
v 0.3 0 -0.6
v 0.3 0.1 0.4
v 0.3 0.1 0.3
v 0.3 0.1 -0.5
v 0.3 0.1 -0.6
v 0.3 0.2 0.4
v 0.3 0.2 0.3
v 0.3 0.2 -0.4
v 0.3 0.2 -0.5
v 0.3 0.3 -0.4
v 0.3 0.3 -0.5
v 0.4 0.1 0.3
v 0.4 0.1 0.2
v 0.4 0.1 -0.2
v 0.4 0.1 -0.3
v 0.4 0.2 0.3
v 0.4 0.2 0.2
v 0.4 0.2 0.1
v 0.4 0.2 0
v 0.4 0.2 -0.1
v 0.4 0.2 -0.2
v 0.4 0.2 -0.3
v 0.4 0.2 -0.4
v 0.4 0.2 -0.5
v 0.4 0.2 -0.6
v 0.4 0.3 0.3
v 0.4 0.3 0.2
v 0.4 0.3 0.1
v 0.4 0.3 0
v 0.4 0.3 -0.1
v 0.4 0.3 -0.2
v 0.4 0.3 -0.3
v 0.4 0.3 -0.4
v 0.4 0.3 -0.5
v 0.4 0.3 -0.6
v 0.5 0 0.4
v 0.5 0 -0.6
v 0.5 0.1 0.4
v 0.5 0.1 0.2
v 0.5 0.1 -0.2
v 0.5 0.1 -0.3
v 0.5 0.2 0.2
v 0.5 0.2 -0.2
v 0.5 0.2 -0.3
v 0.5 0.2 -0.6
v -0.2 0 0.7
v -0.2 0.1 0.7
v 0.2 0 0.7
v 0.2 0.1 0.7
v 5.96046e-08 0.1 0.6
v 5.96046e-08 0.2 0.6
v 0.1 0.1 0.6
v 0.1 0.2 0.6
v -0.1 0.1 0.5
v -0.1 0.2 0.5
v 5.96046e-08 0.1 0.5
v 5.96046e-08 0.2 0.5
v -0.5 0 0.4
v -0.5 0.1 0.4
v -0.4 0.1 0.4
v -0.4 0.2 0.4
v -0.3 0 0.4
v -0.3 0.1 0.4
v -0.2 0 0.4
v -0.2 0.1 0.4
v -0.1 0 0.4
v -0.1 0.2 0.4
v 0.1 0 0.4
v 0.1 0.2 0.4
v 0.3 0.1 0.4
v 0.3 0.2 0.4
v 0.5 0 0.4
v 0.5 0.1 0.4
v -0.5 0.1 0.3
v -0.5 0.2 0.3
v -0.4 0.1 0.3
v -0.4 0.2 0.3
v -0.4 0.3 0.3
v -0.3 0 0.3
v -0.3 0.1 0.3
v -0.2 0 0.3
v -0.2 0.1 0.3
v -0.2 0.2 0.3
v -0.2 0.3 0.3
v 5.96046e-08 0.2 0.3
v 5.96046e-08 0.3 0.3
v 0.3 0.1 0.3
v 0.3 0.2 0.3
v 0.4 0.1 0.3
v 0.4 0.2 0.3
v 0.4 0.3 0.3
v 0.4 0.1 0.2
v 0.4 0.2 0.2
v 0.5 0.1 0.2
v 0.5 0.2 0.2
v -0.4 0.2 0.1
v -0.4 0.3 0.1
v 0.1 0.2 0.1
v 0.1 0.3 0.1
v 0.2 0.2 0.1
v 0.2 0.3 0.1
v 0.4 0.2 0.1
v 0.4 0.3 0.1
v -0.5 0.1 0
v -0.5 0.2 0
v -0.4 0.1 0
v -0.4 0.2 0
v -0.1 0.2 -0.1
v -0.1 0.3 -0.1
v 0.4 0.2 -0.1
v 0.4 0.3 -0.1
v -0.5 0.1 -0.3
v -0.5 0.2 -0.3
v -0.4 0.1 -0.3
v -0.4 0.2 -0.3
v -0.4 0.3 -0.3
v -0.2 0.2 -0.3
v -0.2 0.3 -0.3
v -0.1 0.2 -0.3
v -0.1 0.3 -0.3
v 0.2 0.2 -0.3
v 0.2 0.3 -0.3
v 0.3 0.2 -0.3
v 0.3 0.3 -0.3
v 0.4 0.1 -0.3
v 0.4 0.2 -0.3
v 0.4 0.3 -0.3
v 0.5 0.1 -0.3
v 0.5 0.2 -0.3
v 0.2 0.2 -0.4
v 0.2 0.3 -0.4
v 0.3 0.2 -0.4
v 0.3 0.3 -0.4
v -0.5 0 -0.5
v -0.5 0.1 -0.5
v -0.4 0 -0.5
v -0.4 0.1 -0.5
v 0.3 0.2 -0.5
v 0.3 0.3 -0.5
v 0.4 0.2 -0.5
v 0.4 0.3 -0.5
v -0.2 0 0.6
v -0.2 0.1 0.6
v -0.1 0 0.6
v -0.1 0.1 0.6
v 0.1 0 0.6
v 0.1 0.1 0.6
v 0.2 0 0.6
v 0.2 0.1 0.6
v -0.4 0.2 0.2
v -0.4 0.3 0.2
v -0.2 0.2 0.2
v -0.2 0.3 0.2
v 5.96046e-08 0.2 0.2
v 5.96046e-08 0.3 0.2
v 0.4 0.2 0.2
v 0.4 0.3 0.2
v -0.5 0.1 0.1
v -0.5 0.2 0.1
v -0.4 0.1 0.1
v -0.4 0.2 0.1
v -0.4 0.2 0
v -0.4 0.3 0
v 0.1 0.2 0
v 0.1 0.3 0
v 0.2 0.2 0
v 0.2 0.3 0
v 0.4 0.2 0
v 0.4 0.3 0
v -0.5 0.1 -0.2
v -0.5 0.2 -0.2
v -0.4 0.1 -0.2
v -0.4 0.2 -0.2
v -0.1 0.2 -0.2
v -0.1 0.3 -0.2
v 0.4 0.1 -0.2
v 0.4 0.2 -0.2
v 0.4 0.3 -0.2
v 0.5 0.1 -0.2
v 0.5 0.2 -0.2
v -0.5 0 -0.4
v -0.5 0.1 -0.4
v -0.4 0 -0.4
v -0.4 0.1 -0.4
v -0.4 0.2 -0.4
v -0.4 0.3 -0.4
v -0.2 0.2 -0.4
v -0.2 0.3 -0.4
v -0.1 0.2 -0.4
v -0.1 0.3 -0.4
v 0.2 0.2 -0.4
v 0.2 0.3 -0.4
v 0.3 0.2 -0.4
v 0.3 0.3 -0.4
v 0.4 0.2 -0.4
v 0.4 0.3 -0.4
v -0.4 0.1 -0.5
v -0.4 0.2 -0.5
v -0.3 0.1 -0.5
v -0.3 0.2 -0.5
v -0.1 0.1 -0.5
v -0.1 0.2 -0.5
v 5.96046e-08 0 -0.5
v 5.96046e-08 0.1 -0.5
v 5.96046e-08 0.2 -0.5
v 0.1 0 -0.5
v 0.1 0.1 -0.5
v 0.3 0 -0.5
v 0.3 0.1 -0.5
v 0.4 0 -0.5
v 0.4 0.1 -0.5
v -0.5 0 -0.6
v -0.5 0.2 -0.6
v -0.4 0.1 -0.6
v -0.4 0.2 -0.6
v -0.3 0.1 -0.6
v -0.3 0.2 -0.6
v -0.1 0.1 -0.6
v -0.1 0.2 -0.6
v 5.96046e-08 0 -0.6
v 5.96046e-08 0.1 -0.6
v 5.96046e-08 0.2 -0.6
v 0.1 0 -0.6
v 0.1 0.1 -0.6
v 0.2 0.2 -0.6
v 0.2 0.3 -0.6
v 0.3 0 -0.6
v 0.3 0.1 -0.6
v 0.4 0 -0.6
v 0.4 0.1 -0.6
v 0.4 0.2 -0.6
v 0.4 0.3 -0.6
v 0.5 0 -0.6
v 0.5 0.2 -0.6
v -0.2 0 0.7
v 0.2 0 0.7
v -0.2 0 0.6
v -0.1 0 0.6
v 0.1 0 0.6
v 0.2 0 0.6
v -0.1 0 0.5
v 0.1 0 0.5
v -0.5 0 0.4
v -0.3 0 0.4
v -0.2 0 0.4
v -0.1 0 0.4
v 0.1 0 0.4
v 0.5 0 0.4
v -0.4 0 0.3
v -0.3 0 0.3
v -0.2 0 0.3
v -0.1 0 0.3
v 0.1 0 0.3
v 0.4 0 0.3
v -0.5 0 -0.4
v -0.4 0 -0.4
v -0.5 0 -0.5
v -0.4 0 -0.5
v 5.96046e-08 0 -0.5
v 0.1 0 -0.5
v 0.3 0 -0.5
v 0.4 0 -0.5
v -0.5 0 -0.6
v 5.96046e-08 0 -0.6
v 0.1 0 -0.6
v 0.3 0 -0.6
v 0.4 0 -0.6
v 0.5 0 -0.6
v -0.3 0.1 0.4
v -0.2 0.1 0.4
v -0.3 0.1 0.3
v -0.2 0.1 0.3
v -0.5 0.1 -0.4
v -0.4 0.1 -0.4
v -0.5 0.1 -0.5
v -0.4 0.1 -0.5
v 5.96046e-08 0.1 -0.5
v 0.1 0.1 -0.5
v 0.3 0.1 -0.5
v 0.4 0.1 -0.5
v 5.96046e-08 0.1 -0.6
v 0.1 0.1 -0.6
v 0.3 0.1 -0.6
v 0.4 0.1 -0.6
v -0.2 0.1 0.7
v 0.2 0.1 0.7
v -0.2 0.1 0.6
v -0.1 0.1 0.6
v 5.96046e-08 0.1 0.6
v 0.1 0.1 0.6
v 0.2 0.1 0.6
v -0.1 0.1 0.5
v 5.96046e-08 0.1 0.5
v -0.5 0.1 0.4
v -0.4 0.1 0.4
v 0.3 0.1 0.4
v 0.5 0.1 0.4
v -0.5 0.1 0.3
v -0.4 0.1 0.3
v 0.3 0.1 0.3
v 0.4 0.1 0.3
v 0.4 0.1 0.2
v 0.5 0.1 0.2
v -0.5 0.1 0.1
v -0.4 0.1 0.1
v -0.5 0.1 0
v -0.4 0.1 0
v -0.5 0.1 -0.2
v -0.4 0.1 -0.2
v 0.4 0.1 -0.2
v 0.5 0.1 -0.2
v -0.5 0.1 -0.3
v -0.4 0.1 -0.3
v 0.4 0.1 -0.3
v 0.5 0.1 -0.3
v -0.4 0.1 -0.5
v -0.3 0.1 -0.5
v -0.1 0.1 -0.5
v 5.96046e-08 0.1 -0.5
v -0.4 0.1 -0.6
v -0.3 0.1 -0.6
v -0.1 0.1 -0.6
v 5.96046e-08 0.1 -0.6
v 5.96046e-08 0.2 0.6
v 0.1 0.2 0.6
v -0.1 0.2 0.5
v 5.96046e-08 0.2 0.5
v 0.1 0.2 0.5
v -0.4 0.2 0.4
v -0.1 0.2 0.4
v 0.1 0.2 0.4
v 0.3 0.2 0.4
v -0.5 0.2 0.3
v -0.4 0.2 0.3
v -0.2 0.2 0.3
v 5.96046e-08 0.2 0.3
v 0.3 0.2 0.3
v -0.4 0.2 0.2
v -0.2 0.2 0.2
v 5.96046e-08 0.2 0.2
v 0.4 0.2 0.2
v 0.5 0.2 0.2
v -0.5 0.2 0.1
v -0.4 0.2 0.1
v 0.1 0.2 0.1
v 0.2 0.2 0.1
v 0.4 0.2 0.1
v -0.5 0.2 0
v -0.4 0.2 0
v 0.1 0.2 0
v 0.2 0.2 0
v 0.4 0.2 0
v -0.4 0.2 -0.1
v -0.1 0.2 -0.1
v 0.4 0.2 -0.1
v -0.5 0.2 -0.2
v -0.4 0.2 -0.2
v -0.1 0.2 -0.2
v 0.4 0.2 -0.2
v 0.5 0.2 -0.2
v -0.5 0.2 -0.3
v -0.4 0.2 -0.3
v -0.2 0.2 -0.3
v -0.1 0.2 -0.3
v 0.2 0.2 -0.3
v 0.3 0.2 -0.3
v 0.4 0.2 -0.3
v 0.5 0.2 -0.3
v -0.4 0.2 -0.4
v -0.2 0.2 -0.4
v -0.1 0.2 -0.4
v 0.2 0.2 -0.4
v 0.3 0.2 -0.4
v 0.4 0.2 -0.4
v -0.4 0.2 -0.5
v -0.3 0.2 -0.5
v -0.1 0.2 -0.5
v 5.96046e-08 0.2 -0.5
v 0.3 0.2 -0.5
v 0.4 0.2 -0.5
v -0.5 0.2 -0.6
v -0.4 0.2 -0.6
v -0.3 0.2 -0.6
v -0.1 0.2 -0.6
v 5.96046e-08 0.2 -0.6
v 0.2 0.2 -0.6
v 0.4 0.2 -0.6
v 0.5 0.2 -0.6
v -0.4 0.3 0.3
v -0.2 0.3 0.3
v 5.96046e-08 0.3 0.3
v 0.4 0.3 0.3
v -0.4 0.3 0.2
v -0.2 0.3 0.2
v 5.96046e-08 0.3 0.2
v 0.4 0.3 0.2
v -0.4 0.3 0.1
v 0.1 0.3 0.1
v 0.2 0.3 0.1
v 0.4 0.3 0.1
v -0.4 0.3 0
v 0.1 0.3 0
v 0.2 0.3 0
v 0.4 0.3 0
v -0.1 0.3 -0.1
v 0.4 0.3 -0.1
v -0.1 0.3 -0.2
v 0.4 0.3 -0.2
v -0.4 0.3 -0.3
v -0.2 0.3 -0.3
v -0.1 0.3 -0.3
v 0.2 0.3 -0.3
v 0.3 0.3 -0.3
v 0.4 0.3 -0.3
v -0.4 0.3 -0.4
v -0.2 0.3 -0.4
v -0.1 0.3 -0.4
v 0.2 0.3 -0.4
v 0.3 0.3 -0.4
v 0.4 0.3 -0.4
v 0.3 0.3 -0.5
v 0.4 0.3 -0.5
v 0.2 0.3 -0.6
v 0.4 0.3 -0.6

# faces
f 5/2/1 2/2/1 1/2/1
f 6/2/1 2/2/1 5/2/1
f 7/2/1 2/2/1 6/2/1
f 8/2/1 2/2/1 7/2/1
f 9/2/1 2/2/1 8/2/1
f 10/2/1 2/2/1 9/2/1
f 11/2/1 2/2/1 10/2/1
f 12/2/1 4/2/1 3/2/1
f 13/2/1 7/2/1 6/2/1
f 14/2/1 7/2/1 13/2/1
f 15/2/1 9/2/1 8/2/1
f 16/2/1 9/2/1 15/2/1
f 17/2/1 11/2/1 10/2/1
f 17/2/1 12/2/1 11/2/1
f 18/2/1 4/2/1 12/2/1
f 18/2/1 12/2/1 17/2/1
f 27/5/1 20/5/1 19/5/1
f 28/5/1 20/5/1 27/5/1
f 29/2/1 22/2/1 21/2/1
f 30/2/1 22/2/1 29/2/1
f 32/5/1 24/5/1 23/5/1
f 33/5/1 24/5/1 32/5/1
f 34/2/1 26/2/1 25/2/1
f 35/2/1 26/2/1 34/2/1
f 37/3/1 31/3/1 30/3/1
f 38/3/1 31/3/1 37/3/1
f 39/3/1 33/3/1 32/3/1
f 40/3/1 33/3/1 39/3/1
f 41/3/1 36/3/1 35/3/1
f 42/3/1 36/3/1 41/3/1
f 45/2/1 44/2/1 43/2/1
f 46/2/1 44/2/1 45/2/1
f 51/1/1 48/1/1 47/1/1
f 52/1/1 48/1/1 51/1/1
f 53/2/1 50/2/1 49/2/1
f 54/2/1 50/2/1 53/2/1
f 58/1/1 56/1/1 55/1/1
f 59/3/1 57/3/1 56/3/1
f 59/1/1 56/1/1 58/1/1
f 60/3/1 57/3/1 59/3/1
f 61/3/1 57/3/1 60/3/1
f 66/3/1 63/3/1 62/3/1
f 67/3/1 63/3/1 66/3/1
f 68/3/1 65/3/1 64/3/1
f 69/3/1 65/3/1 68/3/1
f 74/1/1 71/1/1 70/1/1
f 75/1/1 71/1/1 74/1/1
f 78/2/1 73/2/1 72/2/1
f 79/2/1 73/2/1 78/2/1
f 80/3/1 77/3/1 76/3/1
f 81/3/1 77/3/1 80/3/1
f 84/2/1 83/2/1 82/2/1
f 85/2/1 83/2/1 84/2/1
f 90/3/1 87/3/1 86/3/1
f 91/3/1 87/3/1 90/3/1
f 92/4/1 89/4/1 88/4/1
f 93/4/1 89/4/1 92/4/1
f 96/3/1 95/3/1 94/3/1
f 97/3/1 95/3/1 96/3/1
f 100/2/1 99/2/1 98/2/1
f 101/2/1 99/2/1 100/2/1
f 102/2/2 103/2/2 104/2/2
f 104/2/2 103/2/2 105/2/2
f 106/2/2 107/2/2 108/2/2
f 108/2/2 107/2/2 109/2/2
f 110/3/2 111/3/2 114/3/2
f 114/3/2 111/3/2 115/3/2
f 112/3/2 113/3/2 116/3/2
f 116/3/2 113/3/2 117/3/2
f 118/2/2 119/2/2 120/2/2
f 120/2/2 119/2/2 121/2/2
f 122/2/2 123/2/2 124/2/2
f 124/2/2 123/2/2 125/2/2
f 126/1/2 127/1/2 129/1/2
f 129/1/2 127/1/2 130/1/2
f 127/3/2 128/3/2 131/3/2
f 130/1/2 127/1/2 131/1/2
f 131/3/2 128/3/2 132/3/2
f 133/3/2 134/3/2 135/3/2
f 135/3/2 134/3/2 136/3/2
f 137/1/2 138/1/2 139/1/2
f 139/1/2 138/1/2 140/1/2
f 141/3/2 142/3/2 143/3/2
f 143/3/2 142/3/2 144/3/2
f 145/2/2 146/2/2 149/2/2
f 149/2/2 146/2/2 150/2/2
f 147/2/2 148/2/2 151/2/2
f 151/2/2 148/2/2 152/2/2
f 153/4/2 154/4/2 155/4/2
f 155/4/2 154/4/2 156/4/2
f 157/2/2 158/2/2 161/2/2
f 161/2/2 158/2/2 162/2/2
f 159/2/2 160/2/2 166/2/2
f 166/2/2 160/2/2 167/2/2
f 161/3/2 162/3/2 171/3/2
f 171/3/2 162/3/2 172/3/2
f 163/3/2 164/3/2 173/3/2
f 173/3/2 164/3/2 174/3/2
f 165/3/2 166/3/2 175/3/2
f 175/3/2 166/3/2 176/3/2
f 167/3/2 168/3/2 177/3/2
f 177/3/2 168/3/2 178/3/2
f 169/4/2 170/4/2 179/4/2
f 179/4/2 170/4/2 180/4/2
f 181/2/2 182/2/2 183/2/2
f 183/2/2 182/2/2 184/2/2
f 184/2/2 182/2/2 185/2/2
f 185/2/2 182/2/2 186/2/2
f 184/2/2 185/2/2 187/2/2
f 187/2/2 185/2/2 188/2/2
f 186/2/2 182/2/2 189/2/2
f 189/2/2 182/2/2 190/2/2
f 193/1/3 192/1/3 191/1/3
f 194/1/3 192/1/3 193/1/3
f 197/1/3 196/1/3 195/1/3
f 198/1/3 196/1/3 197/1/3
f 201/3/3 200/3/3 199/3/3
f 202/3/3 200/3/3 201/3/3
f 205/2/3 204/2/3 203/2/3
f 207/2/3 205/2/3 203/2/3
f 207/2/3 206/2/3 205/2/3
f 208/2/3 206/2/3 207/2/3
f 210/2/3 206/2/3 208/2/3
f 211/2/3 210/2/3 209/2/3
f 212/2/3 206/2/3 210/2/3
f 212/2/3 210/2/3 211/2/3
f 215/2/3 214/2/3 213/2/3
f 216/2/3 214/2/3 215/2/3
f 217/2/3 215/2/3 213/2/3
f 218/2/3 215/2/3 217/2/3
f 221/2/3 220/2/3 219/2/3
f 222/2/3 220/2/3 221/2/3
f 226/5/3 225/5/3 224/5/3
f 227/5/3 225/5/3 226/5/3
f 228/3/3 223/3/3 222/3/3
f 229/3/3 223/3/3 228/3/3
f 233/3/3 231/3/3 230/3/3
f 234/2/3 233/2/3 232/2/3
f 235/3/3 231/3/3 233/3/3
f 235/2/3 233/2/3 234/2/3
f 236/3/3 231/3/3 235/3/3
f 239/2/3 238/2/3 237/2/3
f 240/2/3 238/2/3 239/2/3
f 243/3/3 242/3/3 241/3/3
f 244/3/3 242/3/3 243/3/3
f 247/3/3 246/3/3 245/3/3
f 248/3/3 246/3/3 247/3/3
f 251/2/3 250/2/3 249/2/3
f 252/2/3 250/2/3 251/2/3
f 255/3/3 254/3/3 253/3/3
f 256/3/3 254/3/3 255/3/3
f 259/2/3 258/2/3 257/2/3
f 260/2/3 258/2/3 259/2/3
f 262/3/3 261/3/3 260/3/3
f 263/3/3 261/3/3 262/3/3
f 266/3/3 265/3/3 264/3/3
f 267/3/3 265/3/3 266/3/3
f 271/3/3 269/3/3 268/3/3
f 272/3/3 269/3/3 271/3/3
f 273/2/3 271/2/3 270/2/3
f 274/2/3 271/2/3 273/2/3
f 277/4/3 276/4/3 275/4/3
f 278/4/3 276/4/3 277/4/3
f 281/2/3 280/2/3 279/2/3
f 282/2/3 280/2/3 281/2/3
f 285/4/3 284/4/3 283/4/3
f 286/4/3 284/4/3 285/4/3
f 287/1/4 288/1/4 289/1/4
f 289/1/4 288/1/4 290/1/4
f 291/1/4 292/1/4 293/1/4
f 293/1/4 292/1/4 294/1/4
f 295/3/4 296/3/4 297/3/4
f 297/3/4 296/3/4 298/3/4
f 299/3/4 300/3/4 301/3/4
f 301/3/4 300/3/4 302/3/4
f 303/2/4 304/2/4 305/2/4
f 305/2/4 304/2/4 306/2/4
f 307/3/4 308/3/4 309/3/4
f 309/3/4 308/3/4 310/3/4
f 311/3/4 312/3/4 313/3/4
f 313/3/4 312/3/4 314/3/4
f 315/2/4 316/2/4 317/2/4
f 317/2/4 316/2/4 318/2/4
f 319/3/4 320/3/4 322/3/4
f 322/3/4 320/3/4 323/3/4
f 321/2/4 322/2/4 324/2/4
f 324/2/4 322/2/4 325/2/4
f 326/2/4 327/2/4 328/2/4
f 328/2/4 327/2/4 329/2/4
f 330/3/4 331/3/4 332/3/4
f 332/3/4 331/3/4 333/3/4
f 334/3/4 335/3/4 336/3/4
f 336/3/4 335/3/4 337/3/4
f 338/3/4 339/3/4 340/3/4
f 340/3/4 339/3/4 341/3/4
f 342/2/4 343/2/4 344/2/4
f 344/2/4 343/2/4 345/2/4
f 346/2/4 347/2/4 349/2/4
f 349/2/4 347/2/4 350/2/4
f 348/5/4 349/5/4 351/5/4
f 351/5/4 349/5/4 352/5/4
f 353/5/4 354/5/4 355/5/4
f 355/5/4 354/5/4 356/5/4
f 357/2/4 358/2/4 359/2/4
f 359/2/4 358/2/4 360/2/4
f 357/2/4 359/2/4 361/2/4
f 357/2/4 361/2/4 363/2/4
f 361/2/4 362/2/4 363/2/4
f 363/2/4 362/2/4 364/2/4
f 357/2/4 363/2/4 365/2/4
f 365/2/4 363/2/4 366/2/4
f 366/2/4 367/2/4 369/2/4
f 369/2/4 367/2/4 370/2/4
f 368/2/4 369/2/4 370/2/4
f 368/2/4 370/2/4 372/2/4
f 372/2/4 370/2/4 373/2/4
f 373/2/4 370/2/4 375/2/4
f 370/4/4 371/4/4 376/4/4
f 375/2/4 370/2/4 376/2/4
f 376/4/4 371/4/4 377/4/4
f 374/2/4 375/2/4 378/2/4
f 375/2/4 376/2/4 378/2/4
f 378/2/4 376/2/4 379/2/4
f 382/1/5 381/1/5 380/1/5
f 383/1/5 381/1/5 382/1/5
f 384/1/5 381/1/5 383/1/5
f 385/1/5 381/1/5 384/1/5
f 386/1/5 384/1/5 383/1/5
f 387/1/5 384/1/5 386/1/5
f 391/3/5 387/3/5 386/3/5
f 392/3/5 387/3/5 391/3/5
f 394/2/5 389/2/5 388/2/5
f 395/2/5 389/2/5 394/2/5
f 396/2/5 391/2/5 390/2/5
f 397/5/5 392/5/5 391/5/5
f 397/2/5 391/2/5 396/2/5
f 398/2/5 393/2/5 392/2/5
f 398/5/5 392/5/5 397/5/5
f 399/2/5 393/2/5 398/2/5
f 400/2/5 394/2/5 388/2/5
f 401/5/5 396/5/5 395/5/5
f 401/2/5 394/2/5 400/2/5
f 401/5/5 397/5/5 396/5/5
f 401/5/5 399/5/5 398/5/5
f 401/5/5 398/5/5 397/5/5
f 401/5/5 395/5/5 394/5/5
f 403/5/5 399/5/5 401/5/5
f 404/5/5 399/5/5 403/5/5
f 405/5/5 399/5/5 404/5/5
f 406/5/5 399/5/5 405/5/5
f 407/2/5 393/2/5 399/2/5
f 407/5/5 399/5/5 406/5/5
f 408/2/5 403/2/5 402/2/5
f 408/2/5 404/2/5 403/2/5
f 409/2/5 404/2/5 408/2/5
f 410/2/5 406/2/5 405/2/5
f 411/2/5 406/2/5 410/2/5
f 412/2/5 393/2/5 407/2/5
f 413/2/5 393/2/5 412/2/5
f 416/2/5 415/2/5 414/2/5
f 417/2/5 415/2/5 416/2/5
f 420/2/5 419/2/5 418/2/5
f 421/2/5 419/2/5 420/2/5
f 426/2/5 423/2/5 422/2/5
f 427/2/5 423/2/5 426/2/5
f 428/2/5 425/2/5 424/2/5
f 429/2/5 425/2/5 428/2/5
f 430/1/6 431/1/6 432/1/6
f 432/1/6 431/1/6 433/1/6
f 433/1/6 431/1/6 434/1/6
f 434/1/6 431/1/6 435/1/6
f 435/1/6 431/1/6 436/1/6
f 433/1/6 434/1/6 437/1/6
f 437/1/6 434/1/6 438/1/6
f 439/2/6 440/2/6 443/2/6
f 443/2/6 440/2/6 444/2/6
f 441/2/6 442/2/6 445/2/6
f 445/2/6 442/2/6 446/2/6
f 446/2/6 442/2/6 447/2/6
f 447/2/6 442/2/6 448/2/6
f 449/2/6 450/2/6 451/2/6
f 451/2/6 450/2/6 452/2/6
f 453/2/6 454/2/6 457/2/6
f 457/2/6 454/2/6 458/2/6
f 455/2/6 456/2/6 459/2/6
f 459/2/6 456/2/6 460/2/6
f 461/2/6 462/2/6 465/2/6
f 465/2/6 462/2/6 466/2/6
f 463/2/6 464/2/6 467/2/6
f 467/2/6 464/2/6 468/2/6
f 469/1/6 470/1/6 472/1/6
f 472/1/6 470/1/6 473/1/6
f 471/3/6 472/3/6 475/3/6
f 472/3/6 473/3/6 475/3/6
f 475/3/6 473/3/6 476/3/6
f 475/2/6 476/2/6 479/2/6
f 476/2/6 477/2/6 479/2/6
f 474/2/6 475/2/6 479/2/6
f 479/2/6 477/2/6 480/2/6
f 480/2/6 477/2/6 481/2/6
f 481/2/6 477/2/6 482/2/6
f 478/2/6 479/2/6 483/2/6
f 480/5/6 481/5/6 484/5/6
f 484/5/6 481/5/6 485/5/6
f 484/2/6 485/2/6 488/2/6
f 486/2/6 487/2/6 488/2/6
f 485/2/6 486/2/6 488/2/6
f 483/2/6 484/2/6 488/2/6
f 478/2/6 483/2/6 488/2/6
f 488/2/6 487/2/6 489/2/6
f 489/2/6 487/2/6 490/2/6
f 490/2/6 487/2/6 491/2/6
f 491/2/6 487/2/6 492/2/6
f 490/5/6 491/5/6 495/5/6
f 495/5/6 491/5/6 496/5/6
f 492/2/6 487/2/6 497/2/6
f 495/2/6 496/2/6 498/2/6
f 496/2/6 497/2/6 498/2/6
f 493/2/6 494/2/6 498/2/6
f 494/2/6 495/2/6 498/2/6
f 498/2/6 497/2/6 499/2/6
f 497/2/6 487/2/6 500/2/6
f 499/2/6 497/2/6 500/2/6
f 493/2/6 498/2/6 501/2/6
f 498/5/6 499/5/6 502/5/6
f 501/2/6 498/2/6 502/2/6
f 502/5/6 499/5/6 503/5/6
f 500/2/6 487/2/6 504/2/6
f 504/2/6 487/2/6 505/2/6
f 502/2/6 503/2/6 507/2/6
f 503/2/6 504/2/6 507/2/6
f 507/2/6 504/2/6 508/2/6
f 508/2/6 504/2/6 509/2/6
f 509/2/6 504/2/6 510/2/6
f 510/2/6 504/2/6 511/2/6
f 511/2/6 504/2/6 512/2/6
f 506/2/6 507/2/6 514/2/6
f 508/5/6 509/5/6 515/5/6
f 515/5/6 509/5/6 516/5/6
f 510/5/6 511/5/6 517/5/6
f 517/5/6 511/5/6 518/5/6
f 512/2/6 513/2/6 519/2/6
f 515/2/6 516/2/6 520/2/6
f 506/2/6 514/2/6 520/2/6
f 514/2/6 515/2/6 520/2/6
f 516/2/6 517/2/6 520/2/6
f 520/2/6 517/2/6 521/2/6
f 521/2/6 517/2/6 522/2/6
f 522/2/6 517/2/6 523/2/6
f 518/5/6 519/5/6 524/5/6
f 519/2/6 513/2/6 525/2/6
f 524/5/6 519/5/6 525/5/6
f 506/2/6 520/2/6 526/2/6
f 526/2/6 520/2/6 527/2/6
f 521/2/6 522/2/6 528/2/6
f 528/2/6 522/2/6 529/2/6
f 523/2/6 517/2/6 530/2/6
f 530/2/6 517/2/6 531/2/6
f 525/2/6 513/2/6 532/2/6
f 532/2/6 513/2/6 533/2/6
f 534/3/6 535/3/6 538/3/6
f 538/3/6 535/3/6 539/3/6
f 536/3/6 537/3/6 540/3/6
f 540/3/6 537/3/6 541/3/6
f 542/3/6 543/3/6 546/3/6
f 546/3/6 543/3/6 547/3/6
f 544/3/6 545/3/6 548/3/6
f 548/3/6 545/3/6 549/3/6
f 550/3/6 551/3/6 552/3/6
f 552/3/6 551/3/6 553/3/6
f 554/3/6 555/3/6 560/3/6
f 560/3/6 555/3/6 561/3/6
f 556/3/6 557/3/6 562/3/6
f 562/3/6 557/3/6 563/3/6
f 558/3/6 559/3/6 564/3/6
f 564/3/6 559/3/6 565/3/6
f 563/4/6 564/4/6 566/4/6
f 563/4/6 566/4/6 568/4/6
f 566/4/6 567/4/6 568/4/6
f 568/4/6 567/4/6 569/4/6
