# MagicaVoxel @ Ephtracy

# group
o 

# material
mtllib oilafter.mtl
usemtl palette

# normals
vn -1 0 0
vn 1 0 0
vn 0 0 1
vn 0 0 -1
vn 0 -1 0
vn 0 1 0

# texcoords
vt 0.876953 0.5
vt 0.880859 0.5
vt 0.884766 0.5
vt 0.888672 0.5
vt 0.916016 0.5

# verts
v -0.5 0 0.5
v -0.5 0 0.4
v -0.5 0.1 0.5
v -0.5 0.1 0.4
v -0.4 0 0.4
v -0.4 0 0.3
v -0.4 0.1 0.4
v -0.4 0.1 0.3
v -0.3 0 0.6
v -0.3 0 0.4
v -0.3 0 0.3
v -0.3 0 0.2
v -0.3 0.1 0.6
v -0.3 0.1 0.4
v -0.3 0.1 0.3
v -0.3 0.1 0.2
v -0.2 0 0.7
v -0.2 0 0.6
v -0.2 0 0.2
v -0.2 0 0.1
v -0.2 0.1 0.7
v -0.2 0.1 0.6
v -0.2 0.1 0.2
v -0.2 0.1 0.1
v -0.2 0.1 -0.1
v -0.2 0.1 -0.2
v -0.2 0.1 -0.3
v -0.2 0.1 -0.4
v -0.2 0.1 -0.6
v -0.2 0.1 -0.7
v -0.2 0.2 0.1
v -0.2 0.2 0
v -0.2 0.2 -0.1
v -0.2 0.2 -0.2
v -0.2 0.3 0.1
v -0.2 0.3 0
v -0.2 0.3 -0.1
v -0.2 0.3 -0.3
v -0.2 0.3 -0.4
v -0.2 0.3 -0.6
v -0.2 0.3 -0.7
v -0.1 0 0.1
v -0.1 0 -0.1
v -0.1 0 -0.3
v -0.1 0 -0.4
v -0.1 0 -0.6
v -0.1 0 -0.7
v -0.1 0.1 0.1
v -0.1 0.1 -0.1
v -0.1 0.1 -0.2
v -0.1 0.1 -0.3
v -0.1 0.1 -0.4
v -0.1 0.1 -0.6
v -0.1 0.1 -0.7
v -0.1 0.3 0.1
v -0.1 0.3 0
v -0.1 0.3 -0.1
v -0.1 0.3 -0.2
v -0.1 0.3 -0.3
v -0.1 0.3 -0.4
v -0.1 0.3 -0.6
v -0.1 0.3 -0.7
v -0.1 0.4 0.1
v -0.1 0.4 -0.1
v -0.1 0.4 -0.2
v -0.1 0.4 -0.3
v -0.1 0.4 -0.4
v -0.1 0.4 -0.6
v -0.1 0.4 -0.7
v 0.2 0 0.5
v 0.2 0 0.4
v 0.2 0.1 0.5
v 0.2 0.1 0.4
v -0.4 0 0.5
v -0.4 0 0.4
v -0.4 0.1 0.5
v -0.4 0.1 0.4
v 5.96046e-08 0 0.7
v 5.96046e-08 0 0.6
v 5.96046e-08 0.1 0.7
v 5.96046e-08 0.1 0.6
v 0.1 0 0.6
v 0.1 0 0.4
v 0.1 0 0.1
v 0.1 0 -0.1
v 0.1 0 -0.3
v 0.1 0 -0.4
v 0.1 0 -0.6
v 0.1 0 -0.7
v 0.1 0.1 0.6
v 0.1 0.1 0.4
v 0.1 0.1 0.1
v 0.1 0.1 -0.1
v 0.1 0.1 -0.3
v 0.1 0.1 -0.4
v 0.1 0.1 -0.6
v 0.1 0.1 -0.7
v 0.1 0.3 0.1
v 0.1 0.3 0
v 0.1 0.3 -0.1
v 0.1 0.3 -0.2
v 0.1 0.3 -0.3
v 0.1 0.3 -0.4
v 0.1 0.3 -0.6
v 0.1 0.3 -0.7
v 0.1 0.4 0.1
v 0.1 0.4 0
v 0.1 0.4 -0.1
v 0.1 0.4 -0.3
v 0.1 0.4 -0.4
v 0.1 0.4 -0.6
v 0.1 0.4 -0.7
v 0.2 0 0.2
v 0.2 0 0.1
v 0.2 0.1 0.2
v 0.2 0.1 0.1
v 0.2 0.1 -0.1
v 0.2 0.1 -0.3
v 0.2 0.1 -0.4
v 0.2 0.1 -0.6
v 0.2 0.1 -0.7
v 0.2 0.2 0.1
v 0.2 0.2 0
v 0.2 0.2 -0.2
v 0.2 0.2 -0.3
v 0.2 0.3 0.1
v 0.2 0.3 0
v 0.2 0.3 -0.1
v 0.2 0.3 -0.2
v 0.2 0.3 -0.3
v 0.2 0.3 -0.4
v 0.2 0.3 -0.6
v 0.2 0.3 -0.7
v 0.3 0 0.5
v 0.3 0 0.4
v 0.3 0 0.3
v 0.3 0 0.2
v 0.3 0.1 0.5
v 0.3 0.1 0.4
v 0.3 0.1 0.3
v 0.3 0.1 0.2
v 0.4 0 0.4
v 0.4 0 0.3
v 0.4 0.1 0.4
v 0.4 0.1 0.3
v -0.2 0 0.7
v -0.2 0.1 0.7
v 5.96046e-08 0 0.7
v 5.96046e-08 0.1 0.7
v -0.3 0 0.6
v -0.3 0.1 0.6
v -0.2 0 0.6
v -0.2 0.1 0.6
v 5.96046e-08 0 0.6
v 5.96046e-08 0.1 0.6
v 0.1 0 0.6
v 0.1 0.1 0.6
v -0.5 0 0.5
v -0.5 0.1 0.5
v -0.4 0 0.5
v -0.4 0.1 0.5
v 0.2 0 0.5
v 0.2 0.1 0.5
v 0.3 0 0.5
v 0.3 0.1 0.5
v -0.4 0 0.4
v -0.4 0.1 0.4
v -0.3 0 0.4
v -0.3 0.1 0.4
v 0.1 0 0.4
v 0.1 0.1 0.4
v 0.2 0 0.4
v 0.2 0.1 0.4
v 0.3 0 0.4
v 0.3 0.1 0.4
v 0.4 0 0.4
v 0.4 0.1 0.4
v -0.2 0.1 0.1
v -0.2 0.2 0.1
v -0.2 0.3 0.1
v -0.1 0.1 0.1
v -0.1 0.2 0.1
v -0.1 0.3 0.1
v -0.1 0.4 0.1
v 5.96046e-08 0.1 0.1
v 5.96046e-08 0.3 0.1
v 5.96046e-08 0.4 0.1
v 0.1 0.1 0.1
v 0.1 0.2 0.1
v 0.1 0.3 0.1
v 0.1 0.4 0.1
v 0.2 0.1 0.1
v 0.2 0.2 0.1
v 0.2 0.3 0.1
v -0.5 0 0.4
v -0.5 0.1 0.4
v -0.4 0 0.4
v -0.4 0.1 0.4
v -0.4 0 0.3
v -0.4 0.1 0.3
v -0.3 0 0.3
v -0.3 0.1 0.3
v 0.3 0 0.3
v 0.3 0.1 0.3
v 0.4 0 0.3
v 0.4 0.1 0.3
v -0.3 0 0.2
v -0.3 0.1 0.2
v -0.2 0 0.2
v -0.2 0.1 0.2
v 0.2 0 0.2
v 0.2 0.1 0.2
v 0.3 0 0.2
v 0.3 0.1 0.2
v -0.2 0 0.1
v -0.2 0.1 0.1
v -0.1 0 0.1
v -0.1 0.1 0.1
v 0.1 0 0.1
v 0.1 0.1 0.1
v 0.2 0 0.1
v 0.2 0.1 0.1
v -0.2 0.1 -0.7
v -0.2 0.3 -0.7
v -0.1 0 -0.7
v -0.1 0.1 -0.7
v -0.1 0.3 -0.7
v -0.1 0.4 -0.7
v 0.1 0 -0.7
v 0.1 0.1 -0.7
v 0.1 0.3 -0.7
v 0.1 0.4 -0.7
v 0.2 0.1 -0.7
v 0.2 0.3 -0.7
v -0.2 0 0.7
v 5.96046e-08 0 0.7
v -0.3 0 0.6
v -0.2 0 0.6
v -0.1 0 0.6
v 5.96046e-08 0 0.6
v 0.1 0 0.6
v -0.5 0 0.5
v -0.4 0 0.5
v -0.1 0 0.5
v 5.96046e-08 0 0.5
v 0.2 0 0.5
v 0.3 0 0.5
v -0.5 0 0.4
v -0.4 0 0.4
v -0.3 0 0.4
v -0.2 0 0.4
v -0.1 0 0.4
v 0.1 0 0.4
v 0.2 0 0.4
v 0.3 0 0.4
v 0.4 0 0.4
v -0.4 0 0.3
v -0.3 0 0.3
v -0.2 0 0.3
v -0.1 0 0.3
v 0.1 0 0.3
v 0.2 0 0.3
v 0.3 0 0.3
v 0.4 0 0.3
v -0.3 0 0.2
v -0.2 0 0.2
v -0.1 0 0.2
v 5.96046e-08 0 0.2
v 0.1 0 0.2
v 0.2 0 0.2
v 0.3 0 0.2
v -0.2 0 0.1
v -0.1 0 0.1
v 5.96046e-08 0 0.1
v 0.1 0 0.1
v 0.2 0 0.1
v -0.1 0 -0.1
v 0.1 0 -0.1
v -0.1 0 -0.3
v 0.1 0 -0.3
v -0.1 0 -0.4
v 0.1 0 -0.4
v -0.1 0 -0.6
v 0.1 0 -0.6
v -0.1 0 -0.7
v 0.1 0 -0.7
v -0.2 0.1 0.1
v -0.1 0.1 0.1
v 0.1 0.1 0.1
v 0.2 0.1 0.1
v -0.2 0.1 -0.1
v -0.1 0.1 -0.1
v 0.1 0.1 -0.1
v 0.2 0.1 -0.1
v -0.2 0.1 -0.2
v -0.1 0.1 -0.2
v -0.2 0.1 -0.3
v -0.1 0.1 -0.3
v 0.1 0.1 -0.3
v 0.2 0.1 -0.3
v -0.2 0.1 -0.4
v -0.1 0.1 -0.4
v 0.1 0.1 -0.4
v 0.2 0.1 -0.4
v -0.2 0.1 -0.6
v -0.1 0.1 -0.6
v 0.1 0.1 -0.6
v 0.2 0.1 -0.6
v -0.2 0.1 -0.7
v -0.1 0.1 -0.7
v 0.1 0.1 -0.7
v 0.2 0.1 -0.7
v -0.2 0.1 0.7
v 5.96046e-08 0.1 0.7
v -0.3 0.1 0.6
v -0.2 0.1 0.6
v -0.1 0.1 0.6
v 5.96046e-08 0.1 0.6
v 0.1 0.1 0.6
v -0.5 0.1 0.5
v -0.4 0.1 0.5
v -0.1 0.1 0.5
v 5.96046e-08 0.1 0.5
v 0.2 0.1 0.5
v 0.3 0.1 0.5
v -0.5 0.1 0.4
v -0.4 0.1 0.4
v -0.3 0.1 0.4
v -0.2 0.1 0.4
v -0.1 0.1 0.4
v 0.1 0.1 0.4
v 0.2 0.1 0.4
v 0.3 0.1 0.4
v 0.4 0.1 0.4
v -0.4 0.1 0.3
v -0.3 0.1 0.3
v -0.2 0.1 0.3
v -0.1 0.1 0.3
v 0.1 0.1 0.3
v 0.2 0.1 0.3
v 0.3 0.1 0.3
v 0.4 0.1 0.3
v -0.3 0.1 0.2
v -0.2 0.1 0.2
v -0.1 0.1 0.2
v 5.96046e-08 0.1 0.2
v 0.1 0.1 0.2
v 0.2 0.1 0.2
v 0.3 0.1 0.2
v -0.2 0.1 0.1
v -0.1 0.1 0.1
v 5.96046e-08 0.1 0.1
v 0.1 0.1 0.1
v 0.2 0.1 0.1
v -0.2 0.3 0.1
v -0.1 0.3 0.1
v 0.1 0.3 0.1
v 0.2 0.3 0.1
v -0.2 0.3 0
v -0.1 0.3 0
v 0.1 0.3 0
v 0.2 0.3 0
v -0.2 0.3 -0.1
v -0.1 0.3 -0.1
v 0.1 0.3 -0.1
v 0.2 0.3 -0.1
v -0.1 0.3 -0.2
v 0.1 0.3 -0.2
v 0.2 0.3 -0.2
v -0.2 0.3 -0.3
v -0.1 0.3 -0.3
v 0.1 0.3 -0.3
v 0.2 0.3 -0.3
v -0.2 0.3 -0.4
v -0.1 0.3 -0.4
v 0.1 0.3 -0.4
v 0.2 0.3 -0.4
v -0.2 0.3 -0.6
v -0.1 0.3 -0.6
v 0.1 0.3 -0.6
v 0.2 0.3 -0.6
v -0.2 0.3 -0.7
v -0.1 0.3 -0.7
v 0.1 0.3 -0.7
v 0.2 0.3 -0.7
v -0.1 0.4 0.1
v 5.96046e-08 0.4 0.1
v 0.1 0.4 0.1
v 5.96046e-08 0.4 0
v 0.1 0.4 0
v -0.1 0.4 -0.1
v 5.96046e-08 0.4 -0.1
v 0.1 0.4 -0.1
v -0.1 0.4 -0.2
v 5.96046e-08 0.4 -0.2
v -0.1 0.4 -0.3
v 0.1 0.4 -0.3
v -0.1 0.4 -0.4
v 0.1 0.4 -0.4
v -0.1 0.4 -0.6
v 0.1 0.4 -0.6
v -0.1 0.4 -0.7
v 0.1 0.4 -0.7

# faces
f 3/4/1 2/4/1 1/4/1
f 4/4/1 2/4/1 3/4/1
f 7/4/1 6/4/1 5/4/1
f 8/4/1 6/4/1 7/4/1
f 13/4/1 10/4/1 9/4/1
f 14/4/1 10/4/1 13/4/1
f 15/4/1 12/4/1 11/4/1
f 16/4/1 12/4/1 15/4/1
f 21/4/1 18/4/1 17/4/1
f 22/4/1 18/4/1 21/4/1
f 23/4/1 20/4/1 19/4/1
f 24/4/1 20/4/1 23/4/1
f 31/2/1 25/2/1 24/2/1
f 32/2/1 25/2/1 31/2/1
f 33/3/1 26/3/1 25/3/1
f 33/2/1 25/2/1 32/2/1
f 34/1/1 27/1/1 26/1/1
f 34/3/1 26/3/1 33/3/1
f 35/3/1 32/3/1 31/3/1
f 36/2/1 33/2/1 32/2/1
f 36/3/1 32/3/1 35/3/1
f 37/1/1 34/1/1 33/1/1
f 37/2/1 33/2/1 36/2/1
f 38/2/1 28/2/1 27/2/1
f 38/1/1 34/1/1 37/1/1
f 38/1/1 27/1/1 34/1/1
f 39/1/1 29/1/1 28/1/1
f 39/2/1 28/2/1 38/2/1
f 40/2/1 30/2/1 29/2/1
f 40/1/1 29/1/1 39/1/1
f 41/2/1 30/2/1 40/2/1
f 48/2/1 43/2/1 42/2/1
f 49/1/1 44/1/1 43/1/1
f 49/2/1 43/2/1 48/2/1
f 50/1/1 44/1/1 49/1/1
f 51/2/1 45/2/1 44/2/1
f 51/1/1 44/1/1 50/1/1
f 52/1/1 46/1/1 45/1/1
f 52/2/1 45/2/1 51/2/1
f 53/2/1 47/2/1 46/2/1
f 53/1/1 46/1/1 52/1/1
f 54/2/1 47/2/1 53/2/1
f 63/2/1 56/2/1 55/2/1
f 63/2/1 57/2/1 56/2/1
f 64/3/1 58/3/1 57/3/1
f 64/2/1 57/2/1 63/2/1
f 65/1/1 59/1/1 58/1/1
f 65/3/1 58/3/1 64/3/1
f 66/2/1 60/2/1 59/2/1
f 66/1/1 59/1/1 65/1/1
f 67/1/1 61/1/1 60/1/1
f 67/2/1 60/2/1 66/2/1
f 68/2/1 62/2/1 61/2/1
f 68/1/1 61/1/1 67/1/1
f 69/2/1 62/2/1 68/2/1
f 72/4/1 71/4/1 70/4/1
f 73/4/1 71/4/1 72/4/1
f 74/4/2 75/4/2 76/4/2
f 76/4/2 75/4/2 77/4/2
f 78/4/2 79/4/2 80/4/2
f 80/4/2 79/4/2 81/4/2
f 82/4/2 83/4/2 90/4/2
f 90/4/2 83/4/2 91/4/2
f 84/2/2 85/2/2 92/2/2
f 85/1/2 86/1/2 93/1/2
f 92/2/2 85/2/2 93/2/2
f 86/2/2 87/2/2 94/2/2
f 93/1/2 86/1/2 94/1/2
f 87/1/2 88/1/2 95/1/2
f 94/2/2 87/2/2 95/2/2
f 88/2/2 89/2/2 96/2/2
f 95/1/2 88/1/2 96/1/2
f 96/2/2 89/2/2 97/2/2
f 98/3/2 99/3/2 106/3/2
f 99/2/2 100/2/2 107/2/2
f 106/3/2 99/3/2 107/3/2
f 100/1/2 101/1/2 108/1/2
f 107/2/2 100/2/2 108/2/2
f 101/1/2 102/1/2 108/1/2
f 102/2/2 103/2/2 109/2/2
f 108/1/2 102/1/2 109/1/2
f 103/1/2 104/1/2 110/1/2
f 109/2/2 103/2/2 110/2/2
f 104/2/2 105/2/2 111/2/2
f 110/1/2 104/1/2 111/1/2
f 111/2/2 105/2/2 112/2/2
f 113/4/2 114/4/2 115/4/2
f 115/4/2 114/4/2 116/4/2
f 116/2/2 117/2/2 122/2/2
f 122/2/2 117/2/2 123/2/2
f 117/1/2 118/1/2 124/1/2
f 118/2/2 119/2/2 125/2/2
f 124/1/2 118/1/2 125/1/2
f 122/3/2 123/3/2 126/3/2
f 123/2/2 117/2/2 127/2/2
f 126/3/2 123/3/2 127/3/2
f 117/1/2 124/1/2 128/1/2
f 127/2/2 117/2/2 128/2/2
f 124/3/2 125/3/2 129/3/2
f 128/1/2 124/1/2 129/1/2
f 125/2/2 119/2/2 130/2/2
f 129/3/2 125/3/2 130/3/2
f 119/1/2 120/1/2 131/1/2
f 130/2/2 119/2/2 131/2/2
f 120/2/2 121/2/2 132/2/2
f 131/1/2 120/1/2 132/1/2
f 132/2/2 121/2/2 133/2/2
f 134/4/2 135/4/2 138/4/2
f 138/4/2 135/4/2 139/4/2
f 136/4/2 137/4/2 140/4/2
f 140/4/2 137/4/2 141/4/2
f 142/4/2 143/4/2 144/4/2
f 144/4/2 143/4/2 145/4/2
f 148/4/3 147/4/3 146/4/3
f 149/4/3 147/4/3 148/4/3
f 152/4/3 151/4/3 150/4/3
f 153/4/3 151/4/3 152/4/3
f 156/4/3 155/4/3 154/4/3
f 157/4/3 155/4/3 156/4/3
f 160/4/3 159/4/3 158/4/3
f 161/4/3 159/4/3 160/4/3
f 164/4/3 163/4/3 162/4/3
f 165/4/3 163/4/3 164/4/3
f 168/4/3 167/4/3 166/4/3
f 169/4/3 167/4/3 168/4/3
f 172/4/3 171/4/3 170/4/3
f 173/4/3 171/4/3 172/4/3
f 176/4/3 175/4/3 174/4/3
f 177/4/3 175/4/3 176/4/3
f 181/2/3 179/2/3 178/2/3
f 182/3/3 180/3/3 179/3/3
f 182/2/3 179/2/3 181/2/3
f 183/3/3 180/3/3 182/3/3
f 185/5/3 182/5/3 181/5/3
f 185/5/3 183/5/3 182/5/3
f 186/2/3 184/2/3 183/2/3
f 186/5/3 183/5/3 185/5/3
f 187/2/3 184/2/3 186/2/3
f 188/5/3 186/5/3 185/5/3
f 189/5/3 186/5/3 188/5/3
f 190/3/3 187/3/3 186/3/3
f 190/5/3 186/5/3 189/5/3
f 191/3/3 187/3/3 190/3/3
f 192/2/3 189/2/3 188/2/3
f 193/3/3 190/3/3 189/3/3
f 193/2/3 189/2/3 192/2/3
f 194/3/3 190/3/3 193/3/3
f 195/4/4 196/4/4 197/4/4
f 197/4/4 196/4/4 198/4/4
f 199/4/4 200/4/4 201/4/4
f 201/4/4 200/4/4 202/4/4
f 203/4/4 204/4/4 205/4/4
f 205/4/4 204/4/4 206/4/4
f 207/4/4 208/4/4 209/4/4
f 209/4/4 208/4/4 210/4/4
f 211/4/4 212/4/4 213/4/4
f 213/4/4 212/4/4 214/4/4
f 215/4/4 216/4/4 217/4/4
f 217/4/4 216/4/4 218/4/4
f 219/4/4 220/4/4 221/4/4
f 221/4/4 220/4/4 222/4/4
f 223/2/4 224/2/4 226/2/4
f 226/2/4 224/2/4 227/2/4
f 225/2/4 226/2/4 229/2/4
f 227/2/4 228/2/4 229/2/4
f 226/2/4 227/2/4 229/2/4
f 229/2/4 228/2/4 230/2/4
f 230/2/4 228/2/4 231/2/4
f 231/2/4 228/2/4 232/2/4
f 230/2/4 231/2/4 233/2/4
f 233/2/4 231/2/4 234/2/4
f 238/4/5 236/4/5 235/4/5
f 239/4/5 236/4/5 238/4/5
f 240/4/5 236/4/5 239/4/5
f 244/4/5 238/4/5 237/4/5
f 244/4/5 239/4/5 238/4/5
f 244/3/5 240/3/5 239/3/5
f 245/4/5 241/4/5 240/4/5
f 245/3/5 240/3/5 244/3/5
f 248/4/5 243/4/5 242/4/5
f 249/4/5 243/4/5 248/4/5
f 250/4/5 244/4/5 237/4/5
f 250/4/5 245/4/5 244/4/5
f 251/4/5 245/4/5 250/4/5
f 252/4/5 245/4/5 251/4/5
f 253/4/5 241/4/5 245/4/5
f 253/4/5 245/4/5 252/4/5
f 254/4/5 247/4/5 246/4/5
f 255/4/5 247/4/5 254/4/5
f 257/4/5 250/4/5 249/4/5
f 257/4/5 251/4/5 250/4/5
f 258/4/5 251/4/5 257/4/5
f 259/3/5 252/3/5 251/3/5
f 259/4/5 251/4/5 258/4/5
f 260/4/5 253/4/5 252/4/5
f 260/3/5 252/3/5 259/3/5
f 260/4/5 254/4/5 253/4/5
f 261/4/5 254/4/5 260/4/5
f 262/3/5 255/3/5 254/3/5
f 262/4/5 254/4/5 261/4/5
f 263/4/5 256/4/5 255/4/5
f 263/3/5 255/3/5 262/3/5
f 264/4/5 256/4/5 263/4/5
f 265/4/5 259/4/5 258/4/5
f 265/4/5 261/4/5 260/4/5
f 265/4/5 260/4/5 259/4/5
f 266/4/5 261/4/5 265/4/5
f 267/4/5 261/4/5 266/4/5
f 268/4/5 261/4/5 267/4/5
f 269/3/5 262/3/5 261/3/5
f 269/4/5 261/4/5 268/4/5
f 270/4/5 263/4/5 262/4/5
f 270/3/5 262/3/5 269/3/5
f 271/4/5 263/4/5 270/4/5
f 272/4/5 267/4/5 266/4/5
f 273/3/5 268/3/5 267/3/5
f 273/4/5 267/4/5 272/4/5
f 274/4/5 269/4/5 268/4/5
f 274/3/5 268/3/5 273/3/5
f 274/4/5 270/4/5 269/4/5
f 275/4/5 270/4/5 274/4/5
f 276/4/5 270/4/5 275/4/5
f 277/2/5 274/2/5 273/2/5
f 277/2/5 275/2/5 274/2/5
f 278/2/5 275/2/5 277/2/5
f 279/1/5 278/1/5 277/1/5
f 280/1/5 278/1/5 279/1/5
f 281/2/5 280/2/5 279/2/5
f 282/2/5 280/2/5 281/2/5
f 283/1/5 282/1/5 281/1/5
f 284/1/5 282/1/5 283/1/5
f 285/2/5 284/2/5 283/2/5
f 286/2/5 284/2/5 285/2/5
f 291/2/5 288/2/5 287/2/5
f 292/2/5 288/2/5 291/2/5
f 293/2/5 290/2/5 289/2/5
f 294/2/5 290/2/5 293/2/5
f 295/3/5 292/3/5 291/3/5
f 296/3/5 292/3/5 295/3/5
f 297/1/5 296/1/5 295/1/5
f 298/1/5 296/1/5 297/1/5
f 299/1/5 294/1/5 293/1/5
f 300/1/5 294/1/5 299/1/5
f 301/2/5 298/2/5 297/2/5
f 302/2/5 298/2/5 301/2/5
f 303/2/5 300/2/5 299/2/5
f 304/2/5 300/2/5 303/2/5
f 305/1/5 302/1/5 301/1/5
f 306/1/5 302/1/5 305/1/5
f 307/1/5 304/1/5 303/1/5
f 308/1/5 304/1/5 307/1/5
f 309/2/5 306/2/5 305/2/5
f 310/2/5 306/2/5 309/2/5
f 311/2/5 308/2/5 307/2/5
f 312/2/5 308/2/5 311/2/5
f 313/4/6 314/4/6 316/4/6
f 316/4/6 314/4/6 317/4/6
f 317/4/6 314/4/6 318/4/6
f 315/4/6 316/4/6 322/4/6
f 316/4/6 317/4/6 322/4/6
f 317/3/6 318/3/6 322/3/6
f 318/4/6 319/4/6 323/4/6
f 322/3/6 318/3/6 323/3/6
f 320/4/6 321/4/6 326/4/6
f 326/4/6 321/4/6 327/4/6
f 315/4/6 322/4/6 328/4/6
f 322/4/6 323/4/6 328/4/6
f 328/4/6 323/4/6 329/4/6
f 329/4/6 323/4/6 330/4/6
f 323/4/6 319/4/6 331/4/6
f 330/4/6 323/4/6 331/4/6
f 324/4/6 325/4/6 332/4/6
f 332/4/6 325/4/6 333/4/6
f 327/4/6 328/4/6 335/4/6
f 328/4/6 329/4/6 335/4/6
f 335/4/6 329/4/6 336/4/6
f 329/3/6 330/3/6 337/3/6
f 336/4/6 329/4/6 337/4/6
f 330/4/6 331/4/6 338/4/6
f 337/3/6 330/3/6 338/3/6
f 331/4/6 332/4/6 338/4/6
f 338/4/6 332/4/6 339/4/6
f 332/3/6 333/3/6 340/3/6
f 339/4/6 332/4/6 340/4/6
f 333/4/6 334/4/6 341/4/6
f 340/3/6 333/3/6 341/3/6
f 341/4/6 334/4/6 342/4/6
f 336/4/6 337/4/6 343/4/6
f 338/4/6 339/4/6 343/4/6
f 337/4/6 338/4/6 343/4/6
f 343/4/6 339/4/6 344/4/6
f 344/4/6 339/4/6 345/4/6
f 345/4/6 339/4/6 346/4/6
f 339/3/6 340/3/6 347/3/6
f 346/4/6 339/4/6 347/4/6
f 340/4/6 341/4/6 348/4/6
f 347/3/6 340/3/6 348/3/6
f 348/4/6 341/4/6 349/4/6
f 344/4/6 345/4/6 350/4/6
f 345/3/6 346/3/6 351/3/6
f 350/4/6 345/4/6 351/4/6
f 346/4/6 347/4/6 352/4/6
f 351/3/6 346/3/6 352/3/6
f 347/4/6 348/4/6 352/4/6
f 352/4/6 348/4/6 353/4/6
f 353/4/6 348/4/6 354/4/6
f 355/3/6 356/3/6 359/3/6
f 359/3/6 356/3/6 360/3/6
f 357/3/6 358/3/6 361/3/6
f 361/3/6 358/3/6 362/3/6
f 359/2/6 360/2/6 363/2/6
f 363/2/6 360/2/6 364/2/6
f 361/2/6 362/2/6 365/2/6
f 365/2/6 362/2/6 366/2/6
f 363/1/6 364/1/6 367/1/6
f 365/1/6 366/1/6 368/1/6
f 368/1/6 366/1/6 369/1/6
f 363/1/6 367/1/6 370/1/6
f 370/1/6 367/1/6 371/1/6
f 368/3/6 369/3/6 372/3/6
f 372/3/6 369/3/6 373/3/6
f 370/2/6 371/2/6 374/2/6
f 374/2/6 371/2/6 375/2/6
f 372/2/6 373/2/6 376/2/6
f 376/2/6 373/2/6 377/2/6
f 374/1/6 375/1/6 378/1/6
f 378/1/6 375/1/6 379/1/6
f 376/1/6 377/1/6 380/1/6
f 380/1/6 377/1/6 381/1/6
f 378/2/6 379/2/6 382/2/6
f 382/2/6 379/2/6 383/2/6
f 380/2/6 381/2/6 384/2/6
f 384/2/6 381/2/6 385/2/6
f 386/2/6 387/2/6 389/2/6
f 387/3/6 388/3/6 389/3/6
f 389/3/6 388/3/6 390/3/6
f 386/2/6 389/2/6 391/2/6
f 389/2/6 390/2/6 391/2/6
f 391/2/6 390/2/6 392/2/6
f 392/2/6 390/2/6 393/2/6
f 391/3/6 392/3/6 394/3/6
f 392/1/6 393/1/6 395/1/6
f 394/3/6 392/3/6 395/3/6
f 394/1/6 395/1/6 396/1/6
f 395/1/6 393/1/6 397/1/6
f 396/1/6 395/1/6 397/1/6
f 396/2/6 397/2/6 398/2/6
f 398/2/6 397/2/6 399/2/6
f 398/1/6 399/1/6 400/1/6
f 400/1/6 399/1/6 401/1/6
f 400/2/6 401/2/6 402/2/6
f 402/2/6 401/2/6 403/2/6
