# MagicaVoxel @ Ephtracy

# group
o 

# material
mtllib cornerv1.mtl
usemtl palette

# normals
vn -1 0 0
vn 1 0 0
vn 0 0 1
vn 0 0 -1
vn 0 -1 0
vn 0 1 0

# texcoords
vt 0.970703 0.5
vt 0.974609 0.5
vt 0.978516 0.5
vt 0.982422 0.5

# verts
v -3.5 0 3.5
v -3.5 0 2.4
v -3.5 0 2.3
v -3.5 0 -2.3
v -3.5 0 -2.4
v -3.5 0 -3.5
v -3.5 0.1 3.5
v -3.5 0.1 2.5
v -3.5 0.1 2.4
v -3.5 0.1 2.3
v -3.5 0.1 -2.3
v -3.5 0.1 -2.4
v -3.5 0.1 -2.5
v -3.5 0.1 -3.5
v -3.5 0.2 3.5
v -3.5 0.2 2.5
v -3.5 0.2 -2.5
v -3.5 0.2 -3.5
v 2.5 0.1 3.5
v 2.5 0.1 1.3
v 2.5 0.1 1.2
v 2.5 0.1 -1.2
v 2.5 0.1 -1.3
v 2.5 0.1 -3.5
v 2.5 0.2 3.5
v 2.5 0.2 1.3
v 2.5 0.2 1.2
v 2.5 0.2 -1.2
v 2.5 0.2 -1.3
v 2.5 0.2 -3.5
v -2.5 0.1 3.5
v -2.5 0.1 2.8
v -2.5 0.1 2.5
v -2.5 0.1 -2.5
v -2.5 0.1 -2.8
v -2.5 0.1 -3.5
v -2.5 0.2 3.5
v -2.5 0.2 2.8
v -2.5 0.2 2.5
v -2.5 0.2 -2.5
v -2.5 0.2 -2.8
v -2.5 0.2 -3.5
v 3.5 0 3.5
v 3.5 0 -3.5
v 3.5 0.1 3.5
v 3.5 0.1 1.3
v 3.5 0.1 1.2
v 3.5 0.1 -1.2
v 3.5 0.1 -1.3
v 3.5 0.1 -3.5
v 3.5 0.2 3.5
v 3.5 0.2 1.3
v 3.5 0.2 1.2
v 3.5 0.2 -1.2
v 3.5 0.2 -1.3
v 3.5 0.2 -3.5
v -3.5 0 3.5
v -3.5 0.1 3.5
v -3.5 0.2 3.5
v -2.5 0.1 3.5
v -2.5 0.2 3.5
v -2.4 0 3.5
v -2.4 0.1 3.5
v -2.3 0 3.5
v -2.3 0.1 3.5
v 2.3 0 3.5
v 2.3 0.1 3.5
v 2.4 0 3.5
v 2.4 0.1 3.5
v 2.5 0.1 3.5
v 2.5 0.2 3.5
v 3.5 0 3.5
v 3.5 0.1 3.5
v 3.5 0.2 3.5
v -3.5 0.1 -2.5
v -3.5 0.2 -2.5
v -2.8 0.1 -2.5
v -2.8 0.2 -2.5
v -2.5 0.1 -2.5
v -2.5 0.2 -2.5
v -3.5 0.1 2.5
v -3.5 0.2 2.5
v -2.8 0.1 2.5
v -2.8 0.2 2.5
v -2.5 0.1 2.5
v -2.5 0.2 2.5
v -3.5 0 -3.5
v -3.5 0.1 -3.5
v -3.5 0.2 -3.5
v -2.5 0.1 -3.5
v -2.5 0.2 -3.5
v -2.4 0 -3.5
v -2.4 0.1 -3.5
v -2.3 0 -3.5
v -2.3 0.1 -3.5
v 2.3 0 -3.5
v 2.3 0.1 -3.5
v 2.4 0 -3.5
v 2.4 0.1 -3.5
v 2.5 0.1 -3.5
v 2.5 0.2 -3.5
v 3.5 0 -3.5
v 3.5 0.1 -3.5
v 3.5 0.2 -3.5
v -3.5 0 3.5
v -2.4 0 3.5
v -2.3 0 3.5
v 2.3 0 3.5
v 2.4 0 3.5
v 3.5 0 3.5
v -3.5 0 2.4
v -2.4 0 2.4
v -3.5 0 2.3
v -2.3 0 2.3
v -3.5 0 -2.3
v -2.3 0 -2.3
v -3.5 0 -2.4
v -2.4 0 -2.4
v -3.5 0 -3.5
v -2.4 0 -3.5
v -2.3 0 -3.5
v 2.3 0 -3.5
v 2.4 0 -3.5
v 3.5 0 -3.5
v -2.5 0.1 3.5
v -2.4 0.1 3.5
v -2.3 0.1 3.5
v 2.3 0.1 3.5
v 2.4 0.1 3.5
v 2.5 0.1 3.5
v -2.5 0.1 2.8
v -3.5 0.1 2.5
v -2.8 0.1 2.5
v -2.5 0.1 2.5
v -3.5 0.1 2.4
v -2.4 0.1 2.4
v -3.5 0.1 2.3
v -2.3 0.1 2.3
v 2.5 0.1 1.3
v 2.5 0.1 1.2
v 2.5 0.1 -1.2
v 2.5 0.1 -1.3
v -3.5 0.1 -2.3
v -2.3 0.1 -2.3
v -3.5 0.1 -2.4
v -2.4 0.1 -2.4
v -3.5 0.1 -2.5
v -2.8 0.1 -2.5
v -2.5 0.1 -2.5
v -2.5 0.1 -2.8
v -2.5 0.1 -3.5
v -2.4 0.1 -3.5
v -2.3 0.1 -3.5
v 2.3 0.1 -3.5
v 2.4 0.1 -3.5
v 2.5 0.1 -3.5
v -3.5 0.2 3.5
v -2.5 0.2 3.5
v 2.5 0.2 3.5
v 3.5 0.2 3.5
v -2.6 0.2 2.8
v -2.5 0.2 2.8
v -2.8 0.2 2.6
v -2.6 0.2 2.6
v -3.5 0.2 2.5
v -2.8 0.2 2.5
v -2.5 0.2 2.5
v 2.5 0.2 1.3
v 3.5 0.2 1.3
v 2.5 0.2 1.2
v 3.5 0.2 1.2
v 2.5 0.2 -1.2
v 3.5 0.2 -1.2
v 2.5 0.2 -1.3
v 3.5 0.2 -1.3
v -3.5 0.2 -2.5
v -2.8 0.2 -2.5
v -2.5 0.2 -2.5
v -2.8 0.2 -2.6
v -2.6 0.2 -2.6
v -2.6 0.2 -2.8
v -2.5 0.2 -2.8
v -3.5 0.2 -3.5
v -2.5 0.2 -3.5
v 2.5 0.2 -3.5
v 3.5 0.2 -3.5

# faces
f 7/1/1 2/1/1 1/1/1
f 8/1/1 2/1/1 7/1/1
f 9/4/1 3/4/1 2/4/1
f 9/1/1 2/1/1 8/1/1
f 10/1/1 4/1/1 3/1/1
f 10/4/1 3/4/1 9/4/1
f 11/4/1 5/4/1 4/4/1
f 11/1/1 4/1/1 10/1/1
f 12/1/1 6/1/1 5/1/1
f 12/4/1 5/4/1 11/4/1
f 13/1/1 6/1/1 12/1/1
f 14/1/1 6/1/1 13/1/1
f 15/2/1 8/2/1 7/2/1
f 16/2/1 8/2/1 15/2/1
f 17/2/1 14/2/1 13/2/1
f 18/2/1 14/2/1 17/2/1
f 25/2/1 20/2/1 19/2/1
f 26/3/1 21/3/1 20/3/1
f 26/2/1 20/2/1 25/2/1
f 27/2/1 22/2/1 21/2/1
f 27/3/1 21/3/1 26/3/1
f 28/3/1 23/3/1 22/3/1
f 28/2/1 22/2/1 27/2/1
f 29/2/1 24/2/1 23/2/1
f 29/3/1 23/3/1 28/3/1
f 30/2/1 24/2/1 29/2/1
f 31/2/2 32/2/2 37/2/2
f 32/3/2 33/3/2 38/3/2
f 37/2/2 32/2/2 38/2/2
f 38/3/2 33/3/2 39/3/2
f 34/3/2 35/3/2 40/3/2
f 35/2/2 36/2/2 41/2/2
f 40/3/2 35/3/2 41/3/2
f 41/2/2 36/2/2 42/2/2
f 43/1/2 44/1/2 45/1/2
f 45/1/2 44/1/2 46/1/2
f 46/1/2 44/1/2 47/1/2
f 47/1/2 44/1/2 48/1/2
f 48/1/2 44/1/2 49/1/2
f 49/1/2 44/1/2 50/1/2
f 45/2/2 46/2/2 51/2/2
f 46/3/2 47/3/2 52/3/2
f 51/2/2 46/2/2 52/2/2
f 47/2/2 48/2/2 53/2/2
f 52/3/2 47/3/2 53/3/2
f 48/3/2 49/3/2 54/3/2
f 53/2/2 48/2/2 54/2/2
f 49/2/2 50/2/2 55/2/2
f 54/3/2 49/3/2 55/3/2
f 55/2/2 50/2/2 56/2/2
f 60/1/3 58/1/3 57/1/3
f 60/2/3 59/2/3 58/2/3
f 61/2/3 59/2/3 60/2/3
f 62/1/3 60/1/3 57/1/3
f 63/1/3 60/1/3 62/1/3
f 64/4/3 63/4/3 62/4/3
f 65/4/3 63/4/3 64/4/3
f 66/1/3 65/1/3 64/1/3
f 67/1/3 65/1/3 66/1/3
f 68/4/3 67/4/3 66/4/3
f 69/4/3 67/4/3 68/4/3
f 70/1/3 69/1/3 68/1/3
f 72/1/3 70/1/3 68/1/3
f 73/2/3 71/2/3 70/2/3
f 73/1/3 70/1/3 72/1/3
f 74/2/3 71/2/3 73/2/3
f 77/2/3 76/2/3 75/2/3
f 78/2/3 76/2/3 77/2/3
f 79/3/3 78/3/3 77/3/3
f 80/3/3 78/3/3 79/3/3
f 81/2/4 82/2/4 83/2/4
f 83/2/4 82/2/4 84/2/4
f 83/3/4 84/3/4 85/3/4
f 85/3/4 84/3/4 86/3/4
f 87/1/4 88/1/4 90/1/4
f 88/2/4 89/2/4 90/2/4
f 90/2/4 89/2/4 91/2/4
f 87/1/4 90/1/4 92/1/4
f 92/1/4 90/1/4 93/1/4
f 92/4/4 93/4/4 94/4/4
f 94/4/4 93/4/4 95/4/4
f 94/1/4 95/1/4 96/1/4
f 96/1/4 95/1/4 97/1/4
f 96/4/4 97/4/4 98/4/4
f 98/4/4 97/4/4 99/4/4
f 98/1/4 99/1/4 100/1/4
f 98/1/4 100/1/4 102/1/4
f 100/2/4 101/2/4 103/2/4
f 102/1/4 100/1/4 103/1/4
f 103/2/4 101/2/4 104/2/4
f 111/1/5 106/1/5 105/1/5
f 112/4/5 107/4/5 106/4/5
f 112/1/5 106/1/5 111/1/5
f 113/4/5 112/4/5 111/4/5
f 114/1/5 108/1/5 107/1/5
f 114/4/5 112/4/5 113/4/5
f 114/4/5 107/4/5 112/4/5
f 115/1/5 114/1/5 113/1/5
f 116/1/5 108/1/5 114/1/5
f 116/1/5 114/1/5 115/1/5
f 117/4/5 116/4/5 115/4/5
f 118/4/5 116/4/5 117/4/5
f 119/1/5 118/1/5 117/1/5
f 120/4/5 116/4/5 118/4/5
f 120/1/5 118/1/5 119/1/5
f 121/1/5 108/1/5 116/1/5
f 121/4/5 116/4/5 120/4/5
f 122/4/5 109/4/5 108/4/5
f 122/1/5 108/1/5 121/1/5
f 123/1/5 110/1/5 109/1/5
f 123/4/5 109/4/5 122/4/5
f 124/1/5 110/1/5 123/1/5
f 125/1/6 126/1/6 131/1/6
f 131/1/6 126/1/6 134/1/6
f 132/1/6 133/1/6 135/1/6
f 133/1/6 134/1/6 135/1/6
f 126/4/6 127/4/6 136/4/6
f 135/1/6 134/1/6 136/1/6
f 134/1/6 126/1/6 136/1/6
f 135/4/6 136/4/6 137/4/6
f 127/1/6 128/1/6 138/1/6
f 137/4/6 136/4/6 138/4/6
f 136/4/6 127/4/6 138/4/6
f 129/1/6 130/1/6 139/1/6
f 129/1/6 139/1/6 140/1/6
f 129/1/6 140/1/6 141/1/6
f 129/1/6 141/1/6 142/1/6
f 137/1/6 138/1/6 143/1/6
f 138/1/6 128/1/6 144/1/6
f 143/1/6 138/1/6 144/1/6
f 143/4/6 144/4/6 145/4/6
f 145/4/6 144/4/6 146/4/6
f 145/1/6 146/1/6 147/1/6
f 147/1/6 146/1/6 148/1/6
f 148/1/6 146/1/6 149/1/6
f 149/1/6 146/1/6 150/1/6
f 150/1/6 146/1/6 151/1/6
f 146/4/6 144/4/6 152/4/6
f 151/1/6 146/1/6 152/1/6
f 144/1/6 128/1/6 153/1/6
f 152/4/6 144/4/6 153/4/6
f 128/4/6 129/4/6 154/4/6
f 153/1/6 128/1/6 154/1/6
f 129/1/6 142/1/6 155/1/6
f 154/4/6 129/4/6 155/4/6
f 155/1/6 142/1/6 156/1/6
f 157/2/6 158/2/6 161/2/6
f 161/2/6 158/2/6 162/2/6
f 157/2/6 161/2/6 163/2/6
f 161/3/6 162/3/6 164/3/6
f 163/2/6 161/2/6 164/2/6
f 157/2/6 163/2/6 165/2/6
f 163/3/6 164/3/6 166/3/6
f 165/2/6 163/2/6 166/2/6
f 164/3/6 162/3/6 167/3/6
f 166/3/6 164/3/6 167/3/6
f 159/2/6 160/2/6 168/2/6
f 168/2/6 160/2/6 169/2/6
f 168/3/6 169/3/6 170/3/6
f 170/3/6 169/3/6 171/3/6
f 170/2/6 171/2/6 172/2/6
f 172/2/6 171/2/6 173/2/6
f 172/3/6 173/3/6 174/3/6
f 174/3/6 173/3/6 175/3/6
f 176/2/6 177/2/6 179/2/6
f 177/3/6 178/3/6 179/3/6
f 179/3/6 178/3/6 180/3/6
f 179/2/6 180/2/6 181/2/6
f 180/3/6 178/3/6 181/3/6
f 181/3/6 178/3/6 182/3/6
f 176/2/6 179/2/6 183/2/6
f 179/2/6 181/2/6 183/2/6
f 181/2/6 182/2/6 183/2/6
f 183/2/6 182/2/6 184/2/6
f 174/2/6 175/2/6 185/2/6
f 185/2/6 175/2/6 186/2/6
