# MagicaVoxel @ Ephtracy

# group
o 

# material
mtllib targetafterlevel3.vox.mtl
usemtl palette

# normals
vn -1 0 0
vn 1 0 0
vn 0 0 1
vn 0 0 -1
vn 0 -1 0
vn 0 1 0

# texcoords
vt 0.802734 0.5
vt 0.970703 0.5
vt 0.974609 0.5

# verts
v -0.4 0 0.1
v -0.4 0 -0.1
v -0.4 0.3 0.1
v -0.4 0.3 0
v -0.4 0.4 0.1
v -0.4 0.4 0
v -0.4 0.8 0.1
v -0.4 0.8 0
v -0.4 0.9 0.1
v -0.4 0.9 0
v -0.4 1.2 0.1
v -0.4 1.2 -0.1
v 0 0.1 0.1
v 0 0.1 0
v 0 0.2 0.1
v 0 0.2 0
v 0 0.5 0.1
v 0 0.5 0
v 0 0.6 0.1
v 0 0.6 0
v 0.1 0.2 0.1
v 0.1 0.2 0
v 0.1 0.3 0.2
v 0.1 0.3 0.1
v 0.1 0.3 0
v 0.1 0.4 0.2
v 0.1 0.4 0.1
v 0.1 0.4 0
v 0.1 0.5 0.2
v 0.1 0.5 0.1
v 0.1 0.5 0
v 0.2 0.7 0.1
v 0.2 0.7 0
v 0.2 0.8 0.1
v 0.2 0.8 0
v -0.1 0.1 0.1
v -0.1 0.1 0
v -0.1 0.2 0.1
v -0.1 0.2 0
v -0.1 0.5 0.1
v -0.1 0.5 0
v -0.1 0.6 0.1
v -0.1 0.6 0
v 0 0.2 0.1
v 0 0.2 0
v 0 0.3 0.1
v 0 0.3 0
v 0 0.4 0.1
v 0 0.4 0
v 0 0.5 0.1
v 0 0.5 0
v 0.1 0.7 0.1
v 0.1 0.7 0
v 0.1 0.8 0.1
v 0.1 0.8 0
v 0.2 0.3 0.2
v 0.2 0.3 0.1
v 0.2 0.4 0.2
v 0.2 0.4 0.1
v 0.2 0.5 0.2
v 0.2 0.5 0.1
v 0.2 1 0.1
v 0.2 1 0
v 0.2 1.2 0.1
v 0.2 1.2 0
v 0.4 0 0.1
v 0.4 0 -0.1
v 0.4 1 0.1
v 0.4 1 0
v 0.4 1.2 0
v 0.4 1.2 -0.1
v 0.1 0.3 0.2
v 0.1 0.4 0.2
v 0.1 0.5 0.2
v 0.2 0.3 0.2
v 0.2 0.4 0.2
v 0.2 0.5 0.2
v -0.4 0 0.1
v -0.4 0.3 0.1
v -0.4 0.4 0.1
v -0.4 0.8 0.1
v -0.4 0.9 0.1
v -0.4 1.2 0.1
v -0.3 0.1 0.1
v -0.3 0.2 0.1
v -0.3 0.3 0.1
v -0.3 0.4 0.1
v -0.3 0.7 0.1
v -0.3 0.8 0.1
v -0.3 0.9 0.1
v -0.3 1 0.1
v -0.2 0.2 0.1
v -0.2 0.3 0.1
v -0.2 0.4 0.1
v -0.2 0.5 0.1
v -0.2 0.7 0.1
v -0.2 0.8 0.1
v -0.2 1 0.1
v -0.2 1.1 0.1
v -0.1 0.1 0.1
v -0.1 0.2 0.1
v -0.1 0.3 0.1
v -0.1 0.5 0.1
v -0.1 0.6 0.1
v -0.1 0.7 0.1
v -0.1 0.8 0.1
v -0.1 0.9 0.1
v -0.1 1 0.1
v 0 0.1 0.1
v 0 0.2 0.1
v 0 0.3 0.1
v 0 0.4 0.1
v 0 0.5 0.1
v 0 0.6 0.1
v 0 0.9 0.1
v 0 1 0.1
v 0.1 0.1 0.1
v 0.1 0.2 0.1
v 0.1 0.3 0.1
v 0.1 0.4 0.1
v 0.1 0.5 0.1
v 0.1 0.6 0.1
v 0.1 0.7 0.1
v 0.1 0.8 0.1
v 0.1 1 0.1
v 0.1 1.1 0.1
v 0.2 0.1 0.1
v 0.2 0.2 0.1
v 0.2 0.3 0.1
v 0.2 0.4 0.1
v 0.2 0.5 0.1
v 0.2 0.6 0.1
v 0.2 0.7 0.1
v 0.2 0.8 0.1
v 0.2 0.9 0.1
v 0.2 1 0.1
v 0.2 1.2 0.1
v 0.3 0.1 0.1
v 0.3 0.2 0.1
v 0.3 0.3 0.1
v 0.3 0.5 0.1
v 0.3 0.6 0.1
v 0.3 0.8 0.1
v 0.3 0.9 0.1
v 0.3 1 0.1
v 0.4 0 0.1
v 0.4 1 0.1
v -0.1 0.1 0
v -0.1 0.2 0
v -0.1 0.5 0
v -0.1 0.6 0
v 0 0.1 0
v 0 0.2 0
v 0 0.3 0
v 0 0.4 0
v 0 0.5 0
v 0 0.6 0
v 0.1 0.2 0
v 0.1 0.3 0
v 0.1 0.4 0
v 0.1 0.5 0
v 0.1 0.7 0
v 0.1 0.8 0
v 0.2 0.7 0
v 0.2 0.8 0
v 0.2 1 0
v 0.2 1.2 0
v 0.3 1 0
v 0.4 1 0
v 0.4 1.2 0
v -0.4 0 -0.1
v -0.4 1.2 -0.1
v -0.3 0.1 -0.1
v -0.3 1.1 -0.1
v -0.1 0.1 -0.1
v -0.1 0.2 -0.1
v -0.1 0.5 -0.1
v -0.1 0.6 -0.1
v 0 0.1 -0.1
v 0 0.2 -0.1
v 0 0.3 -0.1
v 0 0.4 -0.1
v 0 0.5 -0.1
v 0 0.6 -0.1
v 0.1 0.2 -0.1
v 0.1 0.3 -0.1
v 0.1 0.4 -0.1
v 0.1 0.5 -0.1
v 0.1 0.7 -0.1
v 0.1 0.8 -0.1
v 0.2 0.7 -0.1
v 0.2 0.8 -0.1
v 0.2 1 -0.1
v 0.2 1.1 -0.1
v 0.3 0.1 -0.1
v 0.3 1 -0.1
v 0.4 0 -0.1
v 0.4 1.2 -0.1
v -0.4 0 0.1
v 0.4 0 0.1
v -0.4 0 -0.1
v 0.4 0 -0.1
v -0.1 0.2 0.1
v 0 0.2 0.1
v -0.1 0.2 0
v 0 0.2 0
v 0.1 0.3 0.2
v 0.2 0.3 0.2
v 0 0.3 0.1
v 0.1 0.3 0.1
v 0.2 0.3 0.1
v 0 0.3 0
v 0.1 0.3 0
v 0 0.5 0.1
v 0.1 0.5 0.1
v 0 0.5 0
v 0.1 0.5 0
v -0.1 0.6 0.1
v 0 0.6 0.1
v -0.1 0.6 0
v 0 0.6 0
v 0.1 0.8 0.1
v 0.2 0.8 0.1
v 0.1 0.8 0
v 0.2 0.8 0
v -0.1 0.1 0.1
v 0 0.1 0.1
v -0.1 0.1 0
v 0 0.1 0
v 0 0.2 0.1
v 0.1 0.2 0.1
v 0 0.2 0
v 0.1 0.2 0
v 0 0.4 0.1
v 0.1 0.4 0.1
v 0 0.4 0
v 0.1 0.4 0
v 0.1 0.5 0.2
v 0.2 0.5 0.2
v -0.1 0.5 0.1
v 0 0.5 0.1
v 0.1 0.5 0.1
v 0.2 0.5 0.1
v -0.1 0.5 0
v 0 0.5 0
v 0.1 0.7 0.1
v 0.2 0.7 0.1
v 0.1 0.7 0
v 0.2 0.7 0
v 0.2 1 0.1
v 0.3 1 0.1
v 0.4 1 0.1
v 0.2 1 0
v 0.3 1 0
v 0.4 1 0
v -0.4 1.2 0.1
v 0.2 1.2 0.1
v 0.2 1.2 0
v 0.4 1.2 0
v -0.4 1.2 -0.1
v 0.4 1.2 -0.1

# faces
f 3/3/1 2/3/1 1/3/1
f 4/3/1 2/3/1 3/3/1
f 5/1/1 4/1/1 3/1/1
f 6/3/1 2/3/1 4/3/1
f 6/1/1 4/1/1 5/1/1
f 7/3/1 6/3/1 5/3/1
f 8/3/1 2/3/1 6/3/1
f 8/3/1 6/3/1 7/3/1
f 9/1/1 8/1/1 7/1/1
f 10/3/1 2/3/1 8/3/1
f 10/1/1 8/1/1 9/1/1
f 11/3/1 10/3/1 9/3/1
f 12/3/1 2/3/1 10/3/1
f 12/3/1 10/3/1 11/3/1
f 15/2/1 14/2/1 13/2/1
f 16/2/1 14/2/1 15/2/1
f 19/2/1 18/2/1 17/2/1
f 20/2/1 18/2/1 19/2/1
f 24/2/1 22/2/1 21/2/1
f 25/2/1 22/2/1 24/2/1
f 26/1/1 24/1/1 23/1/1
f 27/1/1 24/1/1 26/1/1
f 29/3/1 27/3/1 26/3/1
f 30/1/1 28/1/1 27/1/1
f 30/3/1 27/3/1 29/3/1
f 31/1/1 28/1/1 30/1/1
f 34/2/1 33/2/1 32/2/1
f 35/2/1 33/2/1 34/2/1
f 36/2/2 37/2/2 38/2/2
f 38/2/2 37/2/2 39/2/2
f 40/3/2 41/3/2 42/3/2
f 42/3/2 41/3/2 43/3/2
f 44/3/2 45/3/2 46/3/2
f 46/3/2 45/3/2 47/3/2
f 48/2/2 49/2/2 50/2/2
f 50/2/2 49/2/2 51/2/2
f 52/3/2 53/3/2 54/3/2
f 54/3/2 53/3/2 55/3/2
f 56/1/2 57/1/2 58/1/2
f 58/1/2 57/1/2 59/1/2
f 58/3/2 59/3/2 60/3/2
f 60/3/2 59/3/2 61/3/2
f 62/3/2 63/3/2 64/3/2
f 64/3/2 63/3/2 65/3/2
f 66/3/2 67/3/2 68/3/2
f 68/3/2 67/3/2 69/3/2
f 69/3/2 67/3/2 70/3/2
f 70/3/2 67/3/2 71/3/2
f 75/1/3 73/1/3 72/1/3
f 76/3/3 74/3/3 73/3/3
f 76/1/3 73/1/3 75/1/3
f 77/3/3 74/3/3 76/3/3
f 84/3/3 79/3/3 78/3/3
f 85/3/3 79/3/3 84/3/3
f 86/1/3 80/1/3 79/1/3
f 86/3/3 79/3/3 85/3/3
f 87/3/3 81/3/3 80/3/3
f 87/1/3 80/1/3 86/1/3
f 88/3/3 81/3/3 87/3/3
f 89/1/3 82/1/3 81/1/3
f 89/3/3 81/3/3 88/3/3
f 90/3/3 83/3/3 82/3/3
f 90/1/3 82/1/3 89/1/3
f 91/3/3 83/3/3 90/3/3
f 92/2/3 85/2/3 84/2/3
f 92/3/3 86/3/3 85/3/3
f 93/2/3 88/2/3 87/2/3
f 93/3/3 86/3/3 92/3/3
f 93/2/3 87/2/3 86/2/3
f 94/2/3 88/2/3 93/2/3
f 95/2/3 88/2/3 94/2/3
f 96/3/3 89/3/3 88/3/3
f 96/2/3 88/2/3 95/2/3
f 97/2/3 91/2/3 90/2/3
f 97/3/3 89/3/3 96/3/3
f 97/2/3 90/2/3 89/2/3
f 98/3/3 83/3/3 91/3/3
f 98/2/3 91/2/3 97/2/3
f 99/3/3 83/3/3 98/3/3
f 100/2/3 92/2/3 84/2/3
f 100/3/3 84/3/3 78/3/3
f 100/2/3 93/2/3 92/2/3
f 101/2/3 93/2/3 100/2/3
f 102/3/3 94/3/3 93/3/3
f 102/2/3 93/2/3 101/2/3
f 103/2/3 95/2/3 94/2/3
f 103/3/3 96/3/3 95/3/3
f 104/3/3 96/3/3 103/3/3
f 105/2/3 97/2/3 96/2/3
f 105/3/3 96/3/3 104/3/3
f 105/2/3 99/2/3 98/2/3
f 105/2/3 98/2/3 97/2/3
f 106/2/3 99/2/3 105/2/3
f 107/2/3 99/2/3 106/2/3
f 108/2/3 99/2/3 107/2/3
f 109/3/3 100/3/3 78/3/3
f 110/3/3 102/3/3 101/3/3
f 111/3/3 94/3/3 102/3/3
f 111/3/3 102/3/3 110/3/3
f 112/2/3 103/2/3 94/2/3
f 112/3/3 94/3/3 111/3/3
f 113/2/3 103/2/3 112/2/3
f 114/2/3 105/2/3 104/2/3
f 115/3/3 108/3/3 107/3/3
f 115/2/3 107/2/3 106/2/3
f 116/2/3 99/2/3 108/2/3
f 116/3/3 108/3/3 115/3/3
f 117/2/3 110/2/3 109/2/3
f 117/3/3 109/3/3 78/3/3
f 118/2/3 110/2/3 117/2/3
f 119/2/3 112/2/3 111/2/3
f 120/2/3 112/2/3 119/2/3
f 121/2/3 114/2/3 113/2/3
f 122/2/3 105/2/3 114/2/3
f 122/2/3 114/2/3 121/2/3
f 123/3/3 106/3/3 105/3/3
f 123/2/3 105/2/3 122/2/3
f 124/2/3 115/2/3 106/2/3
f 124/3/3 106/3/3 123/3/3
f 124/2/3 116/2/3 115/2/3
f 125/2/3 99/2/3 116/2/3
f 125/2/3 116/2/3 124/2/3
f 126/3/3 83/3/3 99/3/3
f 126/2/3 99/2/3 125/2/3
f 127/3/3 118/3/3 117/3/3
f 127/3/3 117/3/3 78/3/3
f 128/2/3 119/2/3 118/2/3
f 128/3/3 118/3/3 127/3/3
f 129/2/3 119/2/3 128/2/3
f 131/2/3 122/2/3 121/2/3
f 132/3/3 123/3/3 122/3/3
f 132/2/3 122/2/3 131/2/3
f 133/3/3 123/3/3 132/3/3
f 134/2/3 125/2/3 124/2/3
f 135/2/3 125/2/3 134/2/3
f 136/3/3 126/3/3 125/3/3
f 136/2/3 125/2/3 135/2/3
f 137/3/3 83/3/3 126/3/3
f 137/3/3 126/3/3 136/3/3
f 138/3/3 127/3/3 78/3/3
f 138/2/3 128/2/3 127/2/3
f 139/3/3 129/3/3 128/3/3
f 139/2/3 128/2/3 138/2/3
f 140/2/3 131/2/3 130/2/3
f 140/3/3 129/3/3 139/3/3
f 140/2/3 130/2/3 129/2/3
f 141/3/3 132/3/3 131/3/3
f 141/2/3 131/2/3 140/2/3
f 142/2/3 133/2/3 132/2/3
f 142/3/3 132/3/3 141/3/3
f 142/2/3 134/2/3 133/2/3
f 143/3/3 135/3/3 134/3/3
f 143/2/3 134/2/3 142/2/3
f 144/2/3 136/2/3 135/2/3
f 144/3/3 135/3/3 143/3/3
f 145/2/3 136/2/3 144/2/3
f 146/3/3 143/3/3 142/3/3
f 146/3/3 139/3/3 138/3/3
f 146/3/3 145/3/3 144/3/3
f 146/3/3 144/3/3 143/3/3
f 146/3/3 141/3/3 140/3/3
f 146/3/3 138/3/3 78/3/3
f 146/3/3 140/3/3 139/3/3
f 146/3/3 142/3/3 141/3/3
f 147/3/3 145/3/3 146/3/3
f 152/3/3 149/3/3 148/3/3
f 153/3/3 149/3/3 152/3/3
f 156/3/3 151/3/3 150/3/3
f 157/3/3 151/3/3 156/3/3
f 158/3/3 154/3/3 153/3/3
f 159/3/3 154/3/3 158/3/3
f 160/3/3 156/3/3 155/3/3
f 161/3/3 156/3/3 160/3/3
f 164/3/3 163/3/3 162/3/3
f 165/3/3 163/3/3 164/3/3
f 168/3/3 167/3/3 166/3/3
f 169/3/3 167/3/3 168/3/3
f 170/3/3 167/3/3 169/3/3
f 171/3/4 172/3/4 173/3/4
f 173/3/4 172/3/4 174/3/4
f 171/3/4 173/3/4 175/3/4
f 173/2/4 174/2/4 175/2/4
f 175/2/4 174/2/4 176/2/4
f 176/2/4 174/2/4 177/2/4
f 177/2/4 174/2/4 178/2/4
f 171/3/4 175/3/4 179/3/4
f 175/3/4 176/3/4 179/3/4
f 176/2/4 177/2/4 180/2/4
f 179/3/4 176/3/4 180/3/4
f 180/2/4 177/2/4 181/2/4
f 181/2/4 177/2/4 182/2/4
f 177/3/4 178/3/4 183/3/4
f 182/2/4 177/2/4 183/2/4
f 178/2/4 174/2/4 184/2/4
f 183/3/4 178/3/4 184/3/4
f 179/2/4 180/2/4 185/2/4
f 180/3/4 181/3/4 185/3/4
f 181/2/4 182/2/4 186/2/4
f 185/3/4 181/3/4 186/3/4
f 182/3/4 183/3/4 187/3/4
f 186/2/4 182/2/4 187/2/4
f 183/2/4 184/2/4 188/2/4
f 187/3/4 183/3/4 188/3/4
f 184/2/4 174/2/4 189/2/4
f 188/2/4 184/2/4 189/2/4
f 189/2/4 174/2/4 190/2/4
f 185/2/4 186/2/4 191/2/4
f 187/2/4 188/2/4 191/2/4
f 189/3/4 190/3/4 191/3/4
f 188/2/4 189/2/4 191/2/4
f 186/2/4 187/2/4 191/2/4
f 190/2/4 174/2/4 192/2/4
f 191/3/4 190/3/4 192/3/4
f 192/2/4 174/2/4 193/2/4
f 174/3/4 172/3/4 194/3/4
f 193/2/4 174/2/4 194/2/4
f 192/2/4 193/2/4 195/2/4
f 185/2/4 191/2/4 195/2/4
f 179/2/4 185/2/4 195/2/4
f 191/2/4 192/2/4 195/2/4
f 171/3/4 179/3/4 195/3/4
f 193/3/4 194/3/4 196/3/4
f 195/2/4 193/2/4 196/2/4
f 171/3/4 195/3/4 197/3/4
f 195/3/4 196/3/4 197/3/4
f 194/3/4 172/3/4 198/3/4
f 197/3/4 196/3/4 198/3/4
f 196/3/4 194/3/4 198/3/4
f 201/3/5 200/3/5 199/3/5
f 202/3/5 200/3/5 201/3/5
f 205/3/5 204/3/5 203/3/5
f 206/3/5 204/3/5 205/3/5
f 210/1/5 208/1/5 207/1/5
f 211/1/5 208/1/5 210/1/5
f 212/2/5 210/2/5 209/2/5
f 213/2/5 210/2/5 212/2/5
f 216/2/5 215/2/5 214/2/5
f 217/2/5 215/2/5 216/2/5
f 220/2/5 219/2/5 218/2/5
f 221/2/5 219/2/5 220/2/5
f 224/2/5 223/2/5 222/2/5
f 225/2/5 223/2/5 224/2/5
f 226/3/6 227/3/6 228/3/6
f 228/3/6 227/3/6 229/3/6
f 230/2/6 231/2/6 232/2/6
f 232/2/6 231/2/6 233/2/6
f 234/2/6 235/2/6 236/2/6
f 236/2/6 235/2/6 237/2/6
f 238/3/6 239/3/6 242/3/6
f 242/3/6 239/3/6 243/3/6
f 240/2/6 241/2/6 244/2/6
f 244/2/6 241/2/6 245/2/6
f 246/3/6 247/3/6 248/3/6
f 248/3/6 247/3/6 249/3/6
f 250/2/6 251/2/6 253/2/6
f 251/3/6 252/3/6 254/3/6
f 253/2/6 251/2/6 254/2/6
f 254/3/6 252/3/6 255/3/6
f 256/3/6 257/3/6 258/3/6
f 256/3/6 258/3/6 260/3/6
f 258/3/6 259/3/6 260/3/6
f 260/3/6 259/3/6 261/3/6
